<?xml version="1.0" encoding="UTF-8"?>
<svg xmlns="http://www.w3.org/2000/svg" xmlns:xlink="http://www.w3.org/1999/xlink" width="450" height="338" viewBox="0 0 450 338">
<defs>
<g>
<g id="glyph-0-0-1e8babd5">
<path d="M 3.734375 -1.5 C 3.734375 -1.609375 3.65625 -1.609375 3.578125 -1.609375 C 3.453125 -1.609375 3.453125 -1.59375 3.375 -1.40625 C 3.1875 -0.90625 2.765625 -0.109375 2.15625 -0.109375 C 1.875 -0.109375 1.875 -0.375 1.875 -0.546875 C 1.875 -0.625 1.875 -0.78125 1.953125 -1.078125 L 2.734375 -4.203125 L 3.625 -4.203125 C 3.796875 -4.203125 3.921875 -4.203125 3.921875 -4.40625 C 3.921875 -4.53125 3.828125 -4.53125 3.65625 -4.53125 L 2.8125 -4.53125 L 3.203125 -6.078125 C 3.25 -6.21875 3.25 -6.25 3.25 -6.296875 C 3.25 -6.515625 3.0625 -6.578125 2.96875 -6.578125 C 2.703125 -6.578125 2.59375 -6.359375 2.546875 -6.1875 L 2.140625 -4.53125 L 1.25 -4.53125 C 1.078125 -4.53125 0.953125 -4.53125 0.953125 -4.328125 C 0.953125 -4.203125 1.046875 -4.203125 1.21875 -4.203125 L 2.0625 -4.203125 L 1.296875 -1.1875 C 1.296875 -1.140625 1.25 -0.96875 1.25 -0.828125 C 1.25 -0.296875 1.59375 0.109375 2.140625 0.109375 C 3.203125 0.109375 3.734375 -1.453125 3.734375 -1.5 Z M 3.734375 -1.5 "/>
</g>
<g id="glyph-1-0-1e8babd5">
<path d="M 5.359375 -5.265625 C 5.359375 -4.34375 4.828125 -3.5625 3.796875 -3.015625 C 3.796875 -3.015625 2.734375 -2.453125 2.734375 -2.453125 C 1.828125 -1.90625 1.484375 -1.515625 1.390625 -0.90625 C 1.390625 -0.90625 5.3125 -0.90625 5.3125 -0.90625 C 5.3125 -0.90625 5.3125 0 5.3125 0 C 5.3125 0 0.359375 0 0.359375 0 C 0.4375 -1.640625 0.890625 -2.34375 2.453125 -3.21875 C 2.453125 -3.21875 3.40625 -3.765625 3.40625 -3.765625 C 4.078125 -4.140625 4.421875 -4.65625 4.421875 -5.234375 C 4.421875 -6.03125 3.796875 -6.640625 2.953125 -6.640625 C 2.03125 -6.640625 1.515625 -6.109375 1.453125 -4.859375 C 1.453125 -4.859375 0.53125 -4.859375 0.53125 -4.859375 C 0.578125 -6.671875 1.453125 -7.4375 2.984375 -7.4375 C 4.390625 -7.4375 5.359375 -6.515625 5.359375 -5.265625 Z M 5.359375 -5.265625 "/>
</g>
<g id="glyph-1-1-1e8babd5">
<path d="M 5.328125 -3.578125 C 5.328125 -1.140625 4.46875 0.15625 2.890625 0.15625 C 1.296875 0.15625 0.453125 -1.140625 0.453125 -3.640625 C 0.453125 -6.140625 1.28125 -7.4375 2.890625 -7.4375 C 4.5 -7.4375 5.328125 -6.15625 5.328125 -3.578125 Z M 4.375 -3.671875 C 4.375 -5.65625 3.890625 -6.625 2.890625 -6.625 C 1.890625 -6.625 1.390625 -5.671875 1.390625 -3.640625 C 1.390625 -1.59375 1.890625 -0.609375 2.859375 -0.609375 C 3.890625 -0.609375 4.375 -1.546875 4.375 -3.671875 Z M 4.375 -3.671875 "/>
</g>
<g id="glyph-1-2-1e8babd5">
<path d="M 5.390625 -2.46875 C 5.390625 -0.890625 4.34375 0.15625 2.828125 0.15625 C 1.515625 0.15625 0.671875 -0.4375 0.375 -1.90625 C 0.375 -1.90625 1.296875 -1.90625 1.296875 -1.90625 C 1.515625 -1.078125 2 -0.65625 2.8125 -0.65625 C 3.828125 -0.65625 4.4375 -1.265625 4.4375 -2.34375 C 4.4375 -3.4375 3.8125 -4.078125 2.8125 -4.078125 C 2.234375 -4.078125 1.875 -3.90625 1.453125 -3.390625 C 1.453125 -3.390625 0.59375 -3.390625 0.59375 -3.390625 C 0.59375 -3.390625 1.15625 -7.28125 1.15625 -7.28125 C 1.15625 -7.28125 5 -7.28125 5 -7.28125 C 5 -7.28125 5 -6.375 5 -6.375 C 5 -6.375 1.90625 -6.375 1.90625 -6.375 C 1.90625 -6.375 1.609375 -4.453125 1.609375 -4.453125 C 2.03125 -4.765625 2.453125 -4.90625 2.984375 -4.90625 C 4.40625 -4.90625 5.390625 -3.9375 5.390625 -2.46875 Z M 5.390625 -2.46875 "/>
</g>
<g id="glyph-1-3-1e8babd5">
<path d="M 3.640625 0 C 3.640625 0 2.71875 0 2.71875 0 C 2.71875 0 2.71875 -5.296875 2.71875 -5.296875 C 2.71875 -5.296875 1.078125 -5.296875 1.078125 -5.296875 C 1.078125 -5.296875 1.078125 -5.96875 1.078125 -5.96875 C 2.5 -6.140625 2.703125 -6.296875 3.03125 -7.4375 C 3.03125 -7.4375 3.640625 -7.4375 3.640625 -7.4375 C 3.640625 -7.4375 3.640625 0 3.640625 0 Z M 3.640625 0 "/>
</g>
<g id="glyph-1-4-1e8babd5">
<path d="M 2.984375 -2.515625 C 2.984375 -2.515625 0.484375 -2.515625 0.484375 -2.515625 C 0.484375 -2.515625 0.484375 -3.28125 0.484375 -3.28125 C 0.484375 -3.28125 2.984375 -3.28125 2.984375 -3.28125 C 2.984375 -3.28125 2.984375 -2.515625 2.984375 -2.515625 Z M 2.984375 -2.515625 "/>
</g>
<g id="glyph-1-5-1e8babd5">
<path d="M 5.453125 -6.515625 C 3.890625 -4.65625 2.84375 -2.40625 2.4375 0 C 2.4375 0 1.453125 0 1.453125 0 C 1.96875 -2.328125 3.03125 -4.5 4.5 -6.375 C 4.5 -6.375 0.484375 -6.375 0.484375 -6.375 C 0.484375 -6.375 0.484375 -7.28125 0.484375 -7.28125 C 0.484375 -7.28125 5.453125 -7.28125 5.453125 -7.28125 C 5.453125 -7.28125 5.453125 -6.515625 5.453125 -6.515625 Z M 5.453125 -6.515625 "/>
</g>
<g id="glyph-2-0-1e8babd5">
<path d="M 5.359375 -5.265625 C 5.359375 -4.34375 4.828125 -3.5625 3.796875 -3.015625 C 3.796875 -3.015625 2.734375 -2.453125 2.734375 -2.453125 C 1.828125 -1.90625 1.484375 -1.515625 1.390625 -0.90625 C 1.390625 -0.90625 5.3125 -0.90625 5.3125 -0.90625 C 5.3125 -0.90625 5.3125 0 5.3125 0 C 5.3125 0 0.359375 0 0.359375 0 C 0.4375 -1.640625 0.890625 -2.34375 2.453125 -3.21875 C 2.453125 -3.21875 3.40625 -3.765625 3.40625 -3.765625 C 4.078125 -4.140625 4.421875 -4.65625 4.421875 -5.234375 C 4.421875 -6.03125 3.796875 -6.640625 2.953125 -6.640625 C 2.03125 -6.640625 1.515625 -6.109375 1.453125 -4.859375 C 1.453125 -4.859375 0.53125 -4.859375 0.53125 -4.859375 C 0.578125 -6.671875 1.453125 -7.4375 2.984375 -7.4375 C 4.390625 -7.4375 5.359375 -6.515625 5.359375 -5.265625 Z M 5.359375 -5.265625 "/>
</g>
<g id="glyph-2-1-1e8babd5">
<path d="M 2.984375 -2.515625 C 2.984375 -2.515625 0.484375 -2.515625 0.484375 -2.515625 C 0.484375 -2.515625 0.484375 -3.28125 0.484375 -3.28125 C 0.484375 -3.28125 2.984375 -3.28125 2.984375 -3.28125 C 2.984375 -3.28125 2.984375 -2.515625 2.984375 -2.515625 Z M 2.984375 -2.515625 "/>
</g>
<g id="glyph-2-2-1e8babd5">
<path d="M 5.328125 -3.578125 C 5.328125 -1.140625 4.46875 0.15625 2.890625 0.15625 C 1.296875 0.15625 0.453125 -1.140625 0.453125 -3.640625 C 0.453125 -6.140625 1.28125 -7.4375 2.890625 -7.4375 C 4.5 -7.4375 5.328125 -6.15625 5.328125 -3.578125 Z M 4.375 -3.671875 C 4.375 -5.65625 3.890625 -6.625 2.890625 -6.625 C 1.890625 -6.625 1.390625 -5.671875 1.390625 -3.640625 C 1.390625 -1.59375 1.890625 -0.609375 2.859375 -0.609375 C 3.890625 -0.609375 4.375 -1.546875 4.375 -3.671875 Z M 4.375 -3.671875 "/>
</g>
<g id="glyph-2-3-1e8babd5">
<path d="M 4.984375 -1.21875 C 4.984375 -1.21875 4.46875 -0.71875 4.46875 -0.71875 C 4.46875 -0.71875 3.0625 -2.125 3.0625 -2.125 C 3.0625 -2.125 1.65625 -0.71875 1.65625 -0.71875 C 1.65625 -0.71875 1.15625 -1.21875 1.15625 -1.21875 C 1.15625 -1.21875 2.5625 -2.625 2.5625 -2.625 C 2.5625 -2.625 1.15625 -4.03125 1.15625 -4.03125 C 1.15625 -4.03125 1.65625 -4.53125 1.65625 -4.53125 C 1.65625 -4.53125 3.0625 -3.125 3.0625 -3.125 C 3.0625 -3.125 4.46875 -4.53125 4.46875 -4.53125 C 4.46875 -4.53125 4.984375 -4.03125 4.984375 -4.03125 C 4.984375 -4.03125 3.5625 -2.625 3.5625 -2.625 C 3.5625 -2.625 4.984375 -1.21875 4.984375 -1.21875 Z M 4.984375 -1.21875 "/>
</g>
<g id="glyph-3-0-1e8babd5">
<path d="M 5.328125 -3.578125 C 5.328125 -1.140625 4.46875 0.15625 2.890625 0.15625 C 1.296875 0.15625 0.453125 -1.140625 0.453125 -3.640625 C 0.453125 -6.140625 1.28125 -7.4375 2.890625 -7.4375 C 4.5 -7.4375 5.328125 -6.15625 5.328125 -3.578125 Z M 4.375 -3.671875 C 4.375 -5.65625 3.890625 -6.625 2.890625 -6.625 C 1.890625 -6.625 1.390625 -5.671875 1.390625 -3.640625 C 1.390625 -1.59375 1.890625 -0.609375 2.859375 -0.609375 C 3.890625 -0.609375 4.375 -1.546875 4.375 -3.671875 Z M 4.375 -3.671875 "/>
</g>
<g id="glyph-3-1-1e8babd5">
<path d="M 5.359375 -5.265625 C 5.359375 -4.34375 4.828125 -3.5625 3.796875 -3.015625 C 3.796875 -3.015625 2.734375 -2.453125 2.734375 -2.453125 C 1.828125 -1.90625 1.484375 -1.515625 1.390625 -0.90625 C 1.390625 -0.90625 5.3125 -0.90625 5.3125 -0.90625 C 5.3125 -0.90625 5.3125 0 5.3125 0 C 5.3125 0 0.359375 0 0.359375 0 C 0.4375 -1.640625 0.890625 -2.34375 2.453125 -3.21875 C 2.453125 -3.21875 3.40625 -3.765625 3.40625 -3.765625 C 4.078125 -4.140625 4.421875 -4.65625 4.421875 -5.234375 C 4.421875 -6.03125 3.796875 -6.640625 2.953125 -6.640625 C 2.03125 -6.640625 1.515625 -6.109375 1.453125 -4.859375 C 1.453125 -4.859375 0.53125 -4.859375 0.53125 -4.859375 C 0.578125 -6.671875 1.453125 -7.4375 2.984375 -7.4375 C 4.390625 -7.4375 5.359375 -6.515625 5.359375 -5.265625 Z M 5.359375 -5.265625 "/>
</g>
<g id="glyph-3-2-1e8babd5">
<path d="M 3.640625 0 C 3.640625 0 2.71875 0 2.71875 0 C 2.71875 0 2.71875 -5.296875 2.71875 -5.296875 C 2.71875 -5.296875 1.078125 -5.296875 1.078125 -5.296875 C 1.078125 -5.296875 1.078125 -5.96875 1.078125 -5.96875 C 2.5 -6.140625 2.703125 -6.296875 3.03125 -7.4375 C 3.03125 -7.4375 3.640625 -7.4375 3.640625 -7.4375 C 3.640625 -7.4375 3.640625 0 3.640625 0 Z M 3.640625 0 "/>
</g>
<g id="glyph-4-0-1e8babd5">
<path d="M 5.328125 -3.578125 C 5.328125 -1.140625 4.46875 0.15625 2.890625 0.15625 C 1.296875 0.15625 0.453125 -1.140625 0.453125 -3.640625 C 0.453125 -6.140625 1.28125 -7.4375 2.890625 -7.4375 C 4.5 -7.4375 5.328125 -6.15625 5.328125 -3.578125 Z M 4.375 -3.671875 C 4.375 -5.65625 3.890625 -6.625 2.890625 -6.625 C 1.890625 -6.625 1.390625 -5.671875 1.390625 -3.640625 C 1.390625 -1.59375 1.890625 -0.609375 2.859375 -0.609375 C 3.890625 -0.609375 4.375 -1.546875 4.375 -3.671875 Z M 4.375 -3.671875 "/>
</g>
<g id="glyph-4-1-1e8babd5">
<path d="M 5.359375 -5.265625 C 5.359375 -4.34375 4.828125 -3.5625 3.796875 -3.015625 C 3.796875 -3.015625 2.734375 -2.453125 2.734375 -2.453125 C 1.828125 -1.90625 1.484375 -1.515625 1.390625 -0.90625 C 1.390625 -0.90625 5.3125 -0.90625 5.3125 -0.90625 C 5.3125 -0.90625 5.3125 0 5.3125 0 C 5.3125 0 0.359375 0 0.359375 0 C 0.4375 -1.640625 0.890625 -2.34375 2.453125 -3.21875 C 2.453125 -3.21875 3.40625 -3.765625 3.40625 -3.765625 C 4.078125 -4.140625 4.421875 -4.65625 4.421875 -5.234375 C 4.421875 -6.03125 3.796875 -6.640625 2.953125 -6.640625 C 2.03125 -6.640625 1.515625 -6.109375 1.453125 -4.859375 C 1.453125 -4.859375 0.53125 -4.859375 0.53125 -4.859375 C 0.578125 -6.671875 1.453125 -7.4375 2.984375 -7.4375 C 4.390625 -7.4375 5.359375 -6.515625 5.359375 -5.265625 Z M 5.359375 -5.265625 "/>
</g>
<g id="glyph-5-0-1e8babd5">
<path d="M 5.359375 -5.265625 C 5.359375 -4.34375 4.828125 -3.5625 3.796875 -3.015625 C 3.796875 -3.015625 2.734375 -2.453125 2.734375 -2.453125 C 1.828125 -1.90625 1.484375 -1.515625 1.390625 -0.90625 C 1.390625 -0.90625 5.3125 -0.90625 5.3125 -0.90625 C 5.3125 -0.90625 5.3125 0 5.3125 0 C 5.3125 0 0.359375 0 0.359375 0 C 0.4375 -1.640625 0.890625 -2.34375 2.453125 -3.21875 C 2.453125 -3.21875 3.40625 -3.765625 3.40625 -3.765625 C 4.078125 -4.140625 4.421875 -4.65625 4.421875 -5.234375 C 4.421875 -6.03125 3.796875 -6.640625 2.953125 -6.640625 C 2.03125 -6.640625 1.515625 -6.109375 1.453125 -4.859375 C 1.453125 -4.859375 0.53125 -4.859375 0.53125 -4.859375 C 0.578125 -6.671875 1.453125 -7.4375 2.984375 -7.4375 C 4.390625 -7.4375 5.359375 -6.515625 5.359375 -5.265625 Z M 5.359375 -5.265625 "/>
</g>
<g id="glyph-5-1-1e8babd5">
<path d="M 5.328125 -3.578125 C 5.328125 -1.140625 4.46875 0.15625 2.890625 0.15625 C 1.296875 0.15625 0.453125 -1.140625 0.453125 -3.640625 C 0.453125 -6.140625 1.28125 -7.4375 2.890625 -7.4375 C 4.5 -7.4375 5.328125 -6.15625 5.328125 -3.578125 Z M 4.375 -3.671875 C 4.375 -5.65625 3.890625 -6.625 2.890625 -6.625 C 1.890625 -6.625 1.390625 -5.671875 1.390625 -3.640625 C 1.390625 -1.59375 1.890625 -0.609375 2.859375 -0.609375 C 3.890625 -0.609375 4.375 -1.546875 4.375 -3.671875 Z M 4.375 -3.671875 "/>
</g>
<g id="glyph-5-2-1e8babd5">
<path d="M 5.34375 -3.890625 C 5.34375 -1.328125 4.40625 0.15625 2.671875 0.15625 C 1.53125 0.15625 0.734375 -0.5625 0.5625 -1.78125 C 0.5625 -1.78125 1.484375 -1.78125 1.484375 -1.78125 C 1.625 -1.078125 2.078125 -0.65625 2.734375 -0.65625 C 3.796875 -0.65625 4.375 -1.671875 4.390625 -3.484375 C 3.90625 -2.90625 3.390625 -2.65625 2.6875 -2.65625 C 1.34375 -2.65625 0.40625 -3.59375 0.40625 -4.984375 C 0.40625 -6.4375 1.421875 -7.4375 2.828125 -7.4375 C 4.53125 -7.4375 5.34375 -6.21875 5.34375 -3.890625 Z M 4.34375 -5 C 4.34375 -5.96875 3.6875 -6.640625 2.828125 -6.640625 C 1.96875 -6.640625 1.34375 -6 1.34375 -5.046875 C 1.34375 -4.046875 1.90625 -3.46875 2.796875 -3.46875 C 3.703125 -3.46875 4.34375 -4.078125 4.34375 -5 Z M 4.34375 -5 "/>
</g>
<g id="glyph-5-3-1e8babd5">
<path d="M 3.640625 0 C 3.640625 0 2.71875 0 2.71875 0 C 2.71875 0 2.71875 -5.296875 2.71875 -5.296875 C 2.71875 -5.296875 1.078125 -5.296875 1.078125 -5.296875 C 1.078125 -5.296875 1.078125 -5.96875 1.078125 -5.96875 C 2.5 -6.140625 2.703125 -6.296875 3.03125 -7.4375 C 3.03125 -7.4375 3.640625 -7.4375 3.640625 -7.4375 C 3.640625 -7.4375 3.640625 0 3.640625 0 Z M 3.640625 0 "/>
</g>
<g id="glyph-6-0-1e8babd5">
<path d="M 0 -1.609375 C 0 -1.609375 0 -0.734375 0 -0.734375 C 0 -0.734375 -5.5 -0.734375 -5.5 -0.734375 C -5.5 -0.734375 -5.5 -1.609375 -5.5 -1.609375 C -5.5 -1.609375 0 -1.609375 0 -1.609375 Z M -6.328125 -1.71875 C -6.328125 -1.71875 -6.328125 -0.625 -6.328125 -0.625 C -6.328125 -0.625 -7.421875 -0.625 -7.421875 -0.625 C -7.421875 -0.625 -7.421875 -1.71875 -7.421875 -1.71875 C -7.421875 -1.71875 -6.328125 -1.71875 -6.328125 -1.71875 Z M -6.328125 -1.71875 "/>
</g>
<g id="glyph-6-1-1e8babd5">
<path d="M 0 -5.109375 C 0 -5.109375 0 -4.234375 0 -4.234375 C 0 -4.234375 -3.8125 -4.234375 -3.8125 -4.234375 C -4.46875 -4.234375 -4.890625 -3.796875 -4.890625 -3.109375 C -4.890625 -2.21875 -4.15625 -1.609375 -3.03125 -1.609375 C -3.03125 -1.609375 0 -1.609375 0 -1.609375 C 0 -1.609375 0 -0.734375 0 -0.734375 C 0 -0.734375 -5.5 -0.734375 -5.5 -0.734375 C -5.5 -0.734375 -5.5 -1.546875 -5.5 -1.546875 C -5.5 -1.546875 -4.578125 -1.546875 -4.578125 -1.546875 C -5.34375 -2.03125 -5.65625 -2.546875 -5.65625 -3.375 C -5.65625 -4.4375 -5.078125 -5.109375 -4.15625 -5.109375 C -4.15625 -5.109375 0 -5.109375 0 -5.109375 Z M 0 -5.109375 "/>
</g>
<g id="glyph-6-2-1e8babd5">
<path d="M -2.5 -5.390625 C -2.5 -5.390625 -2.5 -1.328125 -2.5 -1.328125 C -1.234375 -1.359375 -0.65625 -2.03125 -0.65625 -2.953125 C -0.65625 -3.65625 -0.9375 -4.140625 -1.671875 -4.390625 C -1.671875 -4.390625 -1.671875 -5.265625 -1.671875 -5.265625 C -0.5625 -5.046875 0.15625 -4.171875 0.15625 -2.921875 C 0.15625 -1.375 -0.90625 -0.421875 -2.71875 -0.421875 C -4.53125 -0.421875 -5.65625 -1.40625 -5.65625 -2.9375 C -5.65625 -3.96875 -5.109375 -4.8125 -4.203125 -5.171875 C -3.796875 -5.328125 -3.296875 -5.390625 -2.5 -5.390625 Z M -3.28125 -4.453125 C -4.140625 -4.453125 -4.84375 -3.796875 -4.84375 -2.921875 C -4.84375 -2.046875 -4.1875 -1.421875 -3.21875 -1.359375 C -3.21875 -1.359375 -3.21875 -4.4375 -3.21875 -4.4375 C -3.234375 -4.453125 -3.28125 -4.453125 -3.28125 -4.453125 Z M -3.28125 -4.453125 "/>
</g>
<g id="glyph-6-3-1e8babd5">
<path d="M -1.890625 -5.015625 C -0.625 -4.90625 0.15625 -4.078125 0.15625 -2.765625 C 0.15625 -1.265625 -0.921875 -0.328125 -2.703125 -0.328125 C -4.53125 -0.328125 -5.65625 -1.296875 -5.65625 -2.765625 C -5.65625 -4 -5 -4.84375 -3.65625 -4.953125 C -3.65625 -4.953125 -3.65625 -4.0625 -3.65625 -4.0625 C -4.421875 -3.953125 -4.84375 -3.5 -4.84375 -2.765625 C -4.84375 -1.8125 -4.078125 -1.234375 -2.703125 -1.234375 C -1.390625 -1.234375 -0.65625 -1.8125 -0.65625 -2.78125 C -0.65625 -3.53125 -1.015625 -3.984375 -1.890625 -4.125 C -1.890625 -4.125 -1.890625 -5.015625 -1.890625 -5.015625 Z M -1.890625 -5.015625 "/>
</g>
<g id="glyph-6-4-1e8babd5">
<path d="M 0 -2.671875 C 0.046875 -2.375 0.078125 -2.15625 0.078125 -1.953125 C 0.078125 -1.265625 -0.234375 -0.890625 -0.796875 -0.890625 C -0.796875 -0.890625 -4.78125 -0.890625 -4.78125 -0.890625 C -4.78125 -0.890625 -4.78125 -0.140625 -4.78125 -0.140625 C -4.78125 -0.140625 -5.5 -0.140625 -5.5 -0.140625 C -5.5 -0.140625 -5.5 -0.890625 -5.5 -0.890625 C -5.5 -0.890625 -7.015625 -0.890625 -7.015625 -0.890625 C -7.015625 -0.890625 -7.015625 -1.765625 -7.015625 -1.765625 C -7.015625 -1.765625 -5.5 -1.765625 -5.5 -1.765625 C -5.5 -1.765625 -5.5 -2.671875 -5.5 -2.671875 C -5.5 -2.671875 -4.78125 -2.671875 -4.78125 -2.671875 C -4.78125 -2.671875 -4.78125 -1.765625 -4.78125 -1.765625 C -4.78125 -1.765625 -1.1875 -1.765625 -1.1875 -1.765625 C -0.796875 -1.765625 -0.6875 -1.875 -0.6875 -2.25 C -0.6875 -2.421875 -0.703125 -2.546875 -0.734375 -2.671875 C -0.734375 -2.671875 0 -2.671875 0 -2.671875 Z M 0 -2.671875 "/>
</g>
<g id="glyph-6-5-1e8babd5">
<path d="M 0 -1.578125 C 0 -1.578125 0 -0.71875 0 -0.71875 C 0 -0.71875 -7.65625 -0.71875 -7.65625 -0.71875 C -7.65625 -0.71875 -7.65625 -1.578125 -7.65625 -1.578125 C -7.65625 -1.578125 0 -1.578125 0 -1.578125 Z M 0 -1.578125 "/>
</g>
<g id="glyph-6-6-1e8babd5">
<path d="M -5.5 -5.015625 C -5.5 -5.015625 1.15625 -2.578125 1.15625 -2.578125 C 1.9375 -2.28125 2.28125 -1.78125 2.28125 -1.15625 C 2.28125 -0.921875 2.25 -0.75 2.15625 -0.5625 C 2.15625 -0.5625 1.359375 -0.5625 1.359375 -0.5625 C 1.40625 -0.75 1.421875 -0.90625 1.421875 -1.03125 C 1.421875 -1.40625 1.28125 -1.578125 0.890625 -1.734375 C 0.890625 -1.734375 0.015625 -2.0625 0.015625 -2.0625 C 0.015625 -2.0625 -5.5 -0.203125 -5.5 -0.203125 C -5.5 -0.203125 -5.5 -1.140625 -5.5 -1.140625 C -5.5 -1.140625 -1.21875 -2.546875 -1.21875 -2.546875 C -1.21875 -2.546875 -5.5 -4.078125 -5.5 -4.078125 C -5.5 -4.078125 -5.5 -5.015625 -5.5 -5.015625 Z M -5.5 -5.015625 "/>
</g>
<g id="glyph-7-0-1e8babd5">
<path d="M -4.78125 -2.703125 C -4.78125 -2.703125 -4.78125 -1.796875 -4.78125 -1.796875 C -4.78125 -1.796875 0 -1.796875 0 -1.796875 C 0 -1.796875 0 -0.921875 0 -0.921875 C 0 -0.921875 -4.78125 -0.921875 -4.78125 -0.921875 C -4.78125 -0.921875 -4.78125 -0.1875 -4.78125 -0.1875 C -4.78125 -0.1875 -5.5 -0.1875 -5.5 -0.1875 C -5.5 -0.1875 -5.5 -0.921875 -5.5 -0.921875 C -5.5 -0.921875 -6.4375 -0.921875 -6.4375 -0.921875 C -7.21875 -0.921875 -7.6875 -1.40625 -7.6875 -2.21875 C -7.6875 -2.390625 -7.671875 -2.515625 -7.640625 -2.703125 C -7.640625 -2.703125 -6.90625 -2.703125 -6.90625 -2.703125 C -6.921875 -2.515625 -6.921875 -2.484375 -6.921875 -2.40625 C -6.921875 -2 -6.734375 -1.796875 -6.359375 -1.796875 C -6.359375 -1.796875 -5.5 -1.796875 -5.5 -1.796875 C -5.5 -1.796875 -5.5 -2.703125 -5.5 -2.703125 C -5.5 -2.703125 -4.78125 -2.703125 -4.78125 -2.703125 Z M -4.78125 -2.703125 "/>
</g>
<g id="glyph-7-1-1e8babd5">
<path d="M 0 -5.203125 C 0 -5.203125 0 -4.421875 0 -4.421875 C 0 -4.421875 -0.8125 -4.421875 -0.8125 -4.421875 C -0.125 -3.953125 0.15625 -3.421875 0.15625 -2.671875 C 0.15625 -1.1875 -0.9375 -0.265625 -2.796875 -0.265625 C -4.5625 -0.265625 -5.65625 -1.203125 -5.65625 -2.640625 C -5.65625 -3.375 -5.359375 -3.953125 -4.8125 -4.328125 C -4.8125 -4.328125 -7.65625 -4.328125 -7.65625 -4.328125 C -7.65625 -4.328125 -7.65625 -5.203125 -7.65625 -5.203125 C -7.65625 -5.203125 0 -5.203125 0 -5.203125 Z M -2.734375 -4.328125 C -4 -4.328125 -4.84375 -3.734375 -4.84375 -2.78125 C -4.84375 -1.828125 -4.03125 -1.1875 -2.75 -1.1875 C -1.46875 -1.1875 -0.65625 -1.828125 -0.65625 -2.796875 C -0.65625 -3.71875 -1.453125 -4.328125 -2.734375 -4.328125 Z M -2.734375 -4.328125 "/>
</g>
<g id="glyph-7-2-1e8babd5">
</g>
<g id="glyph-7-3-1e8babd5">
<path d="M 0 -1.609375 C 0 -1.609375 0 -0.734375 0 -0.734375 C 0 -0.734375 -5.5 -0.734375 -5.5 -0.734375 C -5.5 -0.734375 -5.5 -1.609375 -5.5 -1.609375 C -5.5 -1.609375 0 -1.609375 0 -1.609375 Z M -6.328125 -1.71875 C -6.328125 -1.71875 -6.328125 -0.625 -6.328125 -0.625 C -6.328125 -0.625 -7.421875 -0.625 -7.421875 -0.625 C -7.421875 -0.625 -7.421875 -1.71875 -7.421875 -1.71875 C -7.421875 -1.71875 -6.328125 -1.71875 -6.328125 -1.71875 Z M -6.328125 -1.71875 "/>
</g>
<g id="glyph-8-0-1e8babd5">
<path d="M 0 -5.203125 C 0 -5.203125 0 -4.421875 0 -4.421875 C 0 -4.421875 -0.8125 -4.421875 -0.8125 -4.421875 C -0.125 -3.953125 0.15625 -3.421875 0.15625 -2.671875 C 0.15625 -1.1875 -0.9375 -0.265625 -2.796875 -0.265625 C -4.5625 -0.265625 -5.65625 -1.203125 -5.65625 -2.640625 C -5.65625 -3.375 -5.359375 -3.953125 -4.8125 -4.328125 C -4.8125 -4.328125 -7.65625 -4.328125 -7.65625 -4.328125 C -7.65625 -4.328125 -7.65625 -5.203125 -7.65625 -5.203125 C -7.65625 -5.203125 0 -5.203125 0 -5.203125 Z M -2.734375 -4.328125 C -4 -4.328125 -4.84375 -3.734375 -4.84375 -2.78125 C -4.84375 -1.828125 -4.03125 -1.1875 -2.75 -1.1875 C -1.46875 -1.1875 -0.65625 -1.828125 -0.65625 -2.796875 C -0.65625 -3.71875 -1.453125 -4.328125 -2.734375 -4.328125 Z M -2.734375 -4.328125 "/>
</g>
<g id="glyph-9-0-1e8babd5">
<path d="M -0.015625 -5.625 C 0.046875 -5.328125 0.078125 -5.203125 0.078125 -5.015625 C 0.078125 -4.59375 -0.234375 -4.203125 -0.65625 -4.109375 C -0.140625 -3.640625 0.15625 -2.953125 0.15625 -2.25 C 0.15625 -1.140625 -0.4375 -0.4375 -1.421875 -0.4375 C -2.09375 -0.4375 -2.59375 -0.765625 -2.859375 -1.40625 C -3 -1.75 -3.03125 -1.9375 -3.1875 -3.171875 C -3.28125 -3.859375 -3.4375 -4.078125 -3.796875 -4.078125 C -3.796875 -4.078125 -4.03125 -4.078125 -4.03125 -4.078125 C -4.5625 -4.078125 -4.84375 -3.640625 -4.84375 -2.859375 C -4.84375 -2.03125 -4.546875 -1.640625 -3.875 -1.5625 C -3.875 -1.5625 -3.875 -0.6875 -3.875 -0.6875 C -5.140625 -0.734375 -5.65625 -1.546875 -5.65625 -2.890625 C -5.65625 -4.234375 -5.140625 -4.953125 -4.15625 -4.953125 C -4.15625 -4.953125 -1.09375 -4.953125 -1.09375 -4.953125 C -0.8125 -4.953125 -0.65625 -5.125 -0.65625 -5.421875 C -0.65625 -5.484375 -0.65625 -5.515625 -0.6875 -5.625 C -0.6875 -5.625 -0.015625 -5.625 -0.015625 -5.625 Z M -1.90625 -4.078125 C -1.90625 -4.078125 -2.71875 -4.078125 -2.71875 -4.078125 C -2.578125 -3.796875 -2.546875 -3.59375 -2.421875 -2.671875 C -2.28125 -1.75 -2.03125 -1.359375 -1.453125 -1.359375 C -0.84375 -1.359375 -0.609375 -1.75 -0.609375 -2.4375 C -0.609375 -3.28125 -1.109375 -4.078125 -1.90625 -4.078125 Z M -1.90625 -4.078125 "/>
</g>
<g id="glyph-10-0-1e8babd5">
<path d="M 5.328125 -3.578125 C 5.328125 -1.140625 4.46875 0.15625 2.890625 0.15625 C 1.296875 0.15625 0.453125 -1.140625 0.453125 -3.640625 C 0.453125 -6.140625 1.28125 -7.4375 2.890625 -7.4375 C 4.5 -7.4375 5.328125 -6.15625 5.328125 -3.578125 Z M 4.375 -3.671875 C 4.375 -5.65625 3.890625 -6.625 2.890625 -6.625 C 1.890625 -6.625 1.390625 -5.671875 1.390625 -3.640625 C 1.390625 -1.59375 1.890625 -0.609375 2.859375 -0.609375 C 3.890625 -0.609375 4.375 -1.546875 4.375 -3.671875 Z M 4.375 -3.671875 "/>
</g>
<g id="glyph-11-0-1e8babd5">
<path d="M 5.359375 -5.265625 C 5.359375 -4.34375 4.828125 -3.5625 3.796875 -3.015625 C 3.796875 -3.015625 2.734375 -2.453125 2.734375 -2.453125 C 1.828125 -1.90625 1.484375 -1.515625 1.390625 -0.90625 C 1.390625 -0.90625 5.3125 -0.90625 5.3125 -0.90625 C 5.3125 -0.90625 5.3125 0 5.3125 0 C 5.3125 0 0.359375 0 0.359375 0 C 0.4375 -1.640625 0.890625 -2.34375 2.453125 -3.21875 C 2.453125 -3.21875 3.40625 -3.765625 3.40625 -3.765625 C 4.078125 -4.140625 4.421875 -4.65625 4.421875 -5.234375 C 4.421875 -6.03125 3.796875 -6.640625 2.953125 -6.640625 C 2.03125 -6.640625 1.515625 -6.109375 1.453125 -4.859375 C 1.453125 -4.859375 0.53125 -4.859375 0.53125 -4.859375 C 0.578125 -6.671875 1.453125 -7.4375 2.984375 -7.4375 C 4.390625 -7.4375 5.359375 -6.515625 5.359375 -5.265625 Z M 5.359375 -5.265625 "/>
</g>
<g id="glyph-11-1-1e8babd5">
<path d="M 5.390625 -2.46875 C 5.390625 -0.890625 4.34375 0.15625 2.828125 0.15625 C 1.515625 0.15625 0.671875 -0.4375 0.375 -1.90625 C 0.375 -1.90625 1.296875 -1.90625 1.296875 -1.90625 C 1.515625 -1.078125 2 -0.65625 2.8125 -0.65625 C 3.828125 -0.65625 4.4375 -1.265625 4.4375 -2.34375 C 4.4375 -3.4375 3.8125 -4.078125 2.8125 -4.078125 C 2.234375 -4.078125 1.875 -3.90625 1.453125 -3.390625 C 1.453125 -3.390625 0.59375 -3.390625 0.59375 -3.390625 C 0.59375 -3.390625 1.15625 -7.28125 1.15625 -7.28125 C 1.15625 -7.28125 5 -7.28125 5 -7.28125 C 5 -7.28125 5 -6.375 5 -6.375 C 5 -6.375 1.90625 -6.375 1.90625 -6.375 C 1.90625 -6.375 1.609375 -4.453125 1.609375 -4.453125 C 2.03125 -4.765625 2.453125 -4.90625 2.984375 -4.90625 C 4.40625 -4.90625 5.390625 -3.9375 5.390625 -2.46875 Z M 5.390625 -2.46875 "/>
</g>
<g id="glyph-12-0-1e8babd5">
<path d="M 2 0 C 2 0 0.90625 0 0.90625 0 C 0.90625 0 0.90625 -1.09375 0.90625 -1.09375 C 0.90625 -1.09375 2 -1.09375 2 -1.09375 C 2 -1.09375 2 0 2 0 Z M 2 0 "/>
</g>
<g id="glyph-12-1-1e8babd5">
<path d="M 5.390625 -2.46875 C 5.390625 -0.890625 4.34375 0.15625 2.828125 0.15625 C 1.515625 0.15625 0.671875 -0.4375 0.375 -1.90625 C 0.375 -1.90625 1.296875 -1.90625 1.296875 -1.90625 C 1.515625 -1.078125 2 -0.65625 2.8125 -0.65625 C 3.828125 -0.65625 4.4375 -1.265625 4.4375 -2.34375 C 4.4375 -3.4375 3.8125 -4.078125 2.8125 -4.078125 C 2.234375 -4.078125 1.875 -3.90625 1.453125 -3.390625 C 1.453125 -3.390625 0.59375 -3.390625 0.59375 -3.390625 C 0.59375 -3.390625 1.15625 -7.28125 1.15625 -7.28125 C 1.15625 -7.28125 5 -7.28125 5 -7.28125 C 5 -7.28125 5 -6.375 5 -6.375 C 5 -6.375 1.90625 -6.375 1.90625 -6.375 C 1.90625 -6.375 1.609375 -4.453125 1.609375 -4.453125 C 2.03125 -4.765625 2.453125 -4.90625 2.984375 -4.90625 C 4.40625 -4.90625 5.390625 -3.9375 5.390625 -2.46875 Z M 5.390625 -2.46875 "/>
</g>
<g id="glyph-12-2-1e8babd5">
<path d="M 5.328125 -3.578125 C 5.328125 -1.140625 4.46875 0.15625 2.890625 0.15625 C 1.296875 0.15625 0.453125 -1.140625 0.453125 -3.640625 C 0.453125 -6.140625 1.28125 -7.4375 2.890625 -7.4375 C 4.5 -7.4375 5.328125 -6.15625 5.328125 -3.578125 Z M 4.375 -3.671875 C 4.375 -5.65625 3.890625 -6.625 2.890625 -6.625 C 1.890625 -6.625 1.390625 -5.671875 1.390625 -3.640625 C 1.390625 -1.59375 1.890625 -0.609375 2.859375 -0.609375 C 3.890625 -0.609375 4.375 -1.546875 4.375 -3.671875 Z M 4.375 -3.671875 "/>
</g>
<g id="glyph-13-0-1e8babd5">
<path d="M 3.640625 0 C 3.640625 0 2.71875 0 2.71875 0 C 2.71875 0 2.71875 -5.296875 2.71875 -5.296875 C 2.71875 -5.296875 1.078125 -5.296875 1.078125 -5.296875 C 1.078125 -5.296875 1.078125 -5.96875 1.078125 -5.96875 C 2.5 -6.140625 2.703125 -6.296875 3.03125 -7.4375 C 3.03125 -7.4375 3.640625 -7.4375 3.640625 -7.4375 C 3.640625 -7.4375 3.640625 0 3.640625 0 Z M 3.640625 0 "/>
</g>
<g id="glyph-14-0-1e8babd5">
<path d="M 2.453125 -7.078125 L 0.859375 -4.9375 L 2.453125 -4.9375 Z M 2.328125 -7.703125 L 3.1875 -7.703125 L 3.1875 -4.9375 L 3.875 -4.9375 L 3.875 -4.375 L 3.1875 -4.375 L 3.1875 -3.421875 L 2.453125 -3.421875 L 2.453125 -4.375 L 0.328125 -4.375 L 0.328125 -5 Z M 2.328125 -7.703125 "/>
</g>
</g>
</defs>
<path fill-rule="nonzero" fill="rgb(100%, 100%, 100%)" fill-opacity="1" d="M 0 0 L 450 0 L 450 337.5 L 0 337.5 Z M 0 0 "/>
<path fill-rule="nonzero" fill="rgb(100%, 100%, 100%)" fill-opacity="1" d="M 77.25 295.5 L 438 295.5 L 438 12 L 77.25 12 Z M 77.25 295.5 "/>
<path fill="none" stroke-width="1" stroke-linecap="butt" stroke-linejoin="miter" stroke="rgb(0%, 0%, 0%)" stroke-opacity="0.12" stroke-miterlimit="1.154701" d="M 171.3125 394 L 171.3125 16 " transform="matrix(0.75, 0, 0, 0.75, 0, 0)"/>
<path fill="none" stroke-width="1" stroke-linecap="butt" stroke-linejoin="miter" stroke="rgb(0%, 0%, 0%)" stroke-opacity="0.12" stroke-miterlimit="1.154701" d="M 269.020833 394 L 269.020833 16 " transform="matrix(0.75, 0, 0, 0.75, 0, 0)"/>
<path fill="none" stroke-width="1" stroke-linecap="butt" stroke-linejoin="miter" stroke="rgb(0%, 0%, 0%)" stroke-opacity="0.12" stroke-miterlimit="1.154701" d="M 368.328125 394 L 368.328125 16 " transform="matrix(0.75, 0, 0, 0.75, 0, 0)"/>
<path fill="none" stroke-width="1" stroke-linecap="butt" stroke-linejoin="miter" stroke="rgb(0%, 0%, 0%)" stroke-opacity="0.12" stroke-miterlimit="1.154701" d="M 466.03125 394 L 466.03125 16 " transform="matrix(0.75, 0, 0, 0.75, 0, 0)"/>
<path fill="none" stroke-width="1" stroke-linecap="butt" stroke-linejoin="miter" stroke="rgb(0%, 0%, 0%)" stroke-opacity="0.12" stroke-miterlimit="1.154701" d="M 103 381.072917 L 584 381.072917 " transform="matrix(0.75, 0, 0, 0.75, 0, 0)"/>
<path fill="none" stroke-width="1" stroke-linecap="butt" stroke-linejoin="miter" stroke="rgb(0%, 0%, 0%)" stroke-opacity="0.12" stroke-miterlimit="1.154701" d="M 103 254.473958 L 584 254.473958 " transform="matrix(0.75, 0, 0, 0.75, 0, 0)"/>
<path fill="none" stroke-width="1" stroke-linecap="butt" stroke-linejoin="miter" stroke="rgb(0%, 0%, 0%)" stroke-opacity="0.12" stroke-miterlimit="1.154701" d="M 103 127.875 L 584 127.875 " transform="matrix(0.75, 0, 0, 0.75, 0, 0)"/>
<g fill="rgb(0%, 0%, 0%)" fill-opacity="1">
<use xlink:href="#glyph-0-0-1e8babd5" x="255.882019" y="324.445518"/>
</g>
<g fill="rgb(0%, 0%, 0%)" fill-opacity="1">
<use xlink:href="#glyph-1-0-1e8babd5" x="101.63689" y="311.443497"/>
</g>
<g fill="rgb(0%, 0%, 0%)" fill-opacity="1">
<use xlink:href="#glyph-1-1-1e8babd5" x="107.474899" y="311.443497"/>
</g>
<g fill="rgb(0%, 0%, 0%)" fill-opacity="1">
<use xlink:href="#glyph-2-0-1e8babd5" x="113.312897" y="311.443497"/>
</g>
<g fill="rgb(0%, 0%, 0%)" fill-opacity="1">
<use xlink:href="#glyph-3-0-1e8babd5" x="119.150883" y="311.443497"/>
</g>
<g fill="rgb(0%, 0%, 0%)" fill-opacity="1">
<use xlink:href="#glyph-2-1-1e8babd5" x="124.988903" y="311.443497"/>
</g>
<g fill="rgb(0%, 0%, 0%)" fill-opacity="1">
<use xlink:href="#glyph-2-2-1e8babd5" x="128.485405" y="311.443497"/>
</g>
<g fill="rgb(0%, 0%, 0%)" fill-opacity="1">
<use xlink:href="#glyph-1-2-1e8babd5" x="134.323391" y="311.443497"/>
</g>
<g fill="rgb(0%, 0%, 0%)" fill-opacity="1">
<use xlink:href="#glyph-2-1-1e8babd5" x="140.161411" y="311.443497"/>
</g>
<g fill="rgb(0%, 0%, 0%)" fill-opacity="1">
<use xlink:href="#glyph-4-0-1e8babd5" x="143.65789" y="311.443497"/>
</g>
<g fill="rgb(0%, 0%, 0%)" fill-opacity="1">
<use xlink:href="#glyph-1-3-1e8babd5" x="149.495899" y="311.443497"/>
</g>
<g fill="rgb(0%, 0%, 0%)" fill-opacity="1">
<use xlink:href="#glyph-4-1-1e8babd5" x="174.9161" y="311.443497"/>
</g>
<g fill="rgb(0%, 0%, 0%)" fill-opacity="1">
<use xlink:href="#glyph-1-1-1e8babd5" x="180.754108" y="311.443497"/>
</g>
<g fill="rgb(0%, 0%, 0%)" fill-opacity="1">
<use xlink:href="#glyph-4-1-1e8babd5" x="186.592106" y="311.443497"/>
</g>
<g fill="rgb(0%, 0%, 0%)" fill-opacity="1">
<use xlink:href="#glyph-1-1-1e8babd5" x="192.430115" y="311.443497"/>
</g>
<g fill="rgb(0%, 0%, 0%)" fill-opacity="1">
<use xlink:href="#glyph-1-4-1e8babd5" x="198.268112" y="311.443497"/>
</g>
<g fill="rgb(0%, 0%, 0%)" fill-opacity="1">
<use xlink:href="#glyph-1-1-1e8babd5" x="201.764603" y="311.443497"/>
</g>
<g fill="rgb(0%, 0%, 0%)" fill-opacity="1">
<use xlink:href="#glyph-1-5-1e8babd5" x="207.6026" y="311.443497"/>
</g>
<g fill="rgb(0%, 0%, 0%)" fill-opacity="1">
<use xlink:href="#glyph-1-4-1e8babd5" x="213.440598" y="311.443497"/>
</g>
<g fill="rgb(0%, 0%, 0%)" fill-opacity="1">
<use xlink:href="#glyph-1-1-1e8babd5" x="216.937111" y="311.443497"/>
</g>
<g fill="rgb(0%, 0%, 0%)" fill-opacity="1">
<use xlink:href="#glyph-1-3-1e8babd5" x="222.775108" y="311.443497"/>
</g>
<g fill="rgb(0%, 0%, 0%)" fill-opacity="1">
<use xlink:href="#glyph-5-0-1e8babd5" x="249.396652" y="311.443497"/>
</g>
<g fill="rgb(0%, 0%, 0%)" fill-opacity="1">
<use xlink:href="#glyph-1-1-1e8babd5" x="255.234627" y="311.443497"/>
</g>
<g fill="rgb(0%, 0%, 0%)" fill-opacity="1">
<use xlink:href="#glyph-1-0-1e8babd5" x="261.072647" y="311.443497"/>
</g>
<g fill="rgb(0%, 0%, 0%)" fill-opacity="1">
<use xlink:href="#glyph-5-1-1e8babd5" x="266.910645" y="311.443497"/>
</g>
<g fill="rgb(0%, 0%, 0%)" fill-opacity="1">
<use xlink:href="#glyph-1-4-1e8babd5" x="272.748642" y="311.443497"/>
</g>
<g fill="rgb(0%, 0%, 0%)" fill-opacity="1">
<use xlink:href="#glyph-3-0-1e8babd5" x="276.245132" y="311.443497"/>
</g>
<g fill="rgb(0%, 0%, 0%)" fill-opacity="1">
<use xlink:href="#glyph-5-2-1e8babd5" x="282.083153" y="311.443497"/>
</g>
<g fill="rgb(0%, 0%, 0%)" fill-opacity="1">
<use xlink:href="#glyph-1-4-1e8babd5" x="287.921127" y="311.443497"/>
</g>
<g fill="rgb(0%, 0%, 0%)" fill-opacity="1">
<use xlink:href="#glyph-3-0-1e8babd5" x="291.417641" y="311.443497"/>
</g>
<g fill="rgb(0%, 0%, 0%)" fill-opacity="1">
<use xlink:href="#glyph-5-3-1e8babd5" x="297.255661" y="311.443497"/>
</g>
<g fill="rgb(0%, 0%, 0%)" fill-opacity="1">
<use xlink:href="#glyph-1-0-1e8babd5" x="322.67585" y="311.443497"/>
</g>
<g fill="rgb(0%, 0%, 0%)" fill-opacity="1">
<use xlink:href="#glyph-3-0-1e8babd5" x="328.513847" y="311.443497"/>
</g>
<g fill="rgb(0%, 0%, 0%)" fill-opacity="1">
<use xlink:href="#glyph-3-1-1e8babd5" x="334.351868" y="311.443497"/>
</g>
<g fill="rgb(0%, 0%, 0%)" fill-opacity="1">
<use xlink:href="#glyph-5-1-1e8babd5" x="340.189888" y="311.443497"/>
</g>
<g fill="rgb(0%, 0%, 0%)" fill-opacity="1">
<use xlink:href="#glyph-1-4-1e8babd5" x="346.027863" y="311.443497"/>
</g>
<g fill="rgb(0%, 0%, 0%)" fill-opacity="1">
<use xlink:href="#glyph-1-3-1e8babd5" x="349.524353" y="311.443497"/>
</g>
<g fill="rgb(0%, 0%, 0%)" fill-opacity="1">
<use xlink:href="#glyph-3-2-1e8babd5" x="355.36235" y="311.443497"/>
</g>
<g fill="rgb(0%, 0%, 0%)" fill-opacity="1">
<use xlink:href="#glyph-1-4-1e8babd5" x="361.200371" y="311.443497"/>
</g>
<g fill="rgb(0%, 0%, 0%)" fill-opacity="1">
<use xlink:href="#glyph-3-0-1e8babd5" x="364.696838" y="311.443497"/>
</g>
<g fill="rgb(0%, 0%, 0%)" fill-opacity="1">
<use xlink:href="#glyph-3-2-1e8babd5" x="370.534859" y="311.443497"/>
</g>
<g fill="rgb(0%, 0%, 0%)" fill-opacity="1">
<use xlink:href="#glyph-6-0-1e8babd5" x="21.260771" y="184.389004"/>
</g>
<g fill="rgb(0%, 0%, 0%)" fill-opacity="1">
<use xlink:href="#glyph-6-1-1e8babd5" x="21.260771" y="182.057991"/>
</g>
<g fill="rgb(0%, 0%, 0%)" fill-opacity="1">
<use xlink:href="#glyph-7-0-1e8babd5" x="21.260771" y="176.220005"/>
</g>
<g fill="rgb(0%, 0%, 0%)" fill-opacity="1">
<use xlink:href="#glyph-6-2-1e8babd5" x="21.260771" y="173.300995"/>
</g>
<g fill="rgb(0%, 0%, 0%)" fill-opacity="1">
<use xlink:href="#glyph-6-3-1e8babd5" x="21.260771" y="167.462997"/>
</g>
<g fill="rgb(0%, 0%, 0%)" fill-opacity="1">
<use xlink:href="#glyph-6-4-1e8babd5" x="21.260771" y="162.212997"/>
</g>
<g fill="rgb(0%, 0%, 0%)" fill-opacity="1">
<use xlink:href="#glyph-6-2-1e8babd5" x="21.260771" y="159.293999"/>
</g>
<g fill="rgb(0%, 0%, 0%)" fill-opacity="1">
<use xlink:href="#glyph-7-1-1e8babd5" x="21.260771" y="153.456001"/>
</g>
<g fill="rgb(0%, 0%, 0%)" fill-opacity="1">
<use xlink:href="#glyph-7-2-1e8babd5" x="21.260771" y="147.618004"/>
</g>
<g fill="rgb(0%, 0%, 0%)" fill-opacity="1">
<use xlink:href="#glyph-8-0-1e8babd5" x="21.260771" y="144.698994"/>
</g>
<g fill="rgb(0%, 0%, 0%)" fill-opacity="1">
<use xlink:href="#glyph-9-0-1e8babd5" x="21.260771" y="138.860996"/>
</g>
<g fill="rgb(0%, 0%, 0%)" fill-opacity="1">
<use xlink:href="#glyph-7-3-1e8babd5" x="21.260771" y="133.022999"/>
</g>
<g fill="rgb(0%, 0%, 0%)" fill-opacity="1">
<use xlink:href="#glyph-6-5-1e8babd5" x="21.260771" y="130.691998"/>
</g>
<g fill="rgb(0%, 0%, 0%)" fill-opacity="1">
<use xlink:href="#glyph-6-6-1e8babd5" x="21.260771" y="128.360996"/>
</g>
<g fill="rgb(0%, 0%, 0%)" fill-opacity="1">
<use xlink:href="#glyph-10-0-1e8babd5" x="63.911997" y="289.631172"/>
</g>
<g fill="rgb(0%, 0%, 0%)" fill-opacity="1">
<use xlink:href="#glyph-11-0-1e8babd5" x="27.299778" y="194.58799"/>
</g>
<g fill="rgb(0%, 0%, 0%)" fill-opacity="1">
<use xlink:href="#glyph-12-0-1e8babd5" x="33.137767" y="194.58799"/>
</g>
<g fill="rgb(0%, 0%, 0%)" fill-opacity="1">
<use xlink:href="#glyph-12-1-1e8babd5" x="36.056774" y="194.58799"/>
</g>
<g fill="rgb(0%, 0%, 0%)" fill-opacity="1">
<use xlink:href="#glyph-2-2-1e8babd5" x="41.894777" y="194.58799"/>
</g>
<g fill="rgb(0%, 0%, 0%)" fill-opacity="1">
<use xlink:href="#glyph-2-3-1e8babd5" x="47.73278" y="194.58799"/>
</g>
<g fill="rgb(0%, 0%, 0%)" fill-opacity="1">
<use xlink:href="#glyph-13-0-1e8babd5" x="53.864777" y="194.58799"/>
</g>
<g fill="rgb(0%, 0%, 0%)" fill-opacity="1">
<use xlink:href="#glyph-1-1-1e8babd5" x="59.702768" y="194.58799"/>
</g>
<g fill="rgb(0%, 0%, 0%)" fill-opacity="1">
<use xlink:href="#glyph-14-0-1e8babd5" x="65.540771" y="194.58799"/>
</g>
<g fill="rgb(0%, 0%, 0%)" fill-opacity="1">
<use xlink:href="#glyph-11-1-1e8babd5" x="27.299778" y="99.63842"/>
</g>
<g fill="rgb(0%, 0%, 0%)" fill-opacity="1">
<use xlink:href="#glyph-12-0-1e8babd5" x="33.137767" y="99.63842"/>
</g>
<g fill="rgb(0%, 0%, 0%)" fill-opacity="1">
<use xlink:href="#glyph-12-2-1e8babd5" x="36.056774" y="99.63842"/>
</g>
<g fill="rgb(0%, 0%, 0%)" fill-opacity="1">
<use xlink:href="#glyph-2-2-1e8babd5" x="41.894777" y="99.63842"/>
</g>
<g fill="rgb(0%, 0%, 0%)" fill-opacity="1">
<use xlink:href="#glyph-2-3-1e8babd5" x="47.73278" y="99.63842"/>
</g>
<g fill="rgb(0%, 0%, 0%)" fill-opacity="1">
<use xlink:href="#glyph-13-0-1e8babd5" x="53.864777" y="99.63842"/>
</g>
<g fill="rgb(0%, 0%, 0%)" fill-opacity="1">
<use xlink:href="#glyph-1-1-1e8babd5" x="59.702768" y="99.63842"/>
</g>
<g fill="rgb(0%, 0%, 0%)" fill-opacity="1">
<use xlink:href="#glyph-14-0-1e8babd5" x="65.540771" y="99.63842"/>
</g>
<path fill="none" stroke-width="1.5" stroke-linecap="butt" stroke-linejoin="miter" stroke="rgb(0%, 0%, 0%)" stroke-opacity="1" stroke-miterlimit="2" d="M 124.864583 375.161458 L 126.463542 375.432292 L 128.067708 375.151042 L 129.666667 375.807292 L 131.270833 376.817708 L 132.869792 371.848958 L 134.473958 370.067708 L 136.078125 371.34375 L 137.677083 372.15625 L 139.28125 375.734375 L 140.880208 373.651042 L 142.484375 373.979167 L 144.083333 371.359375 L 145.6875 364.651042 L 147.286458 370.526042 L 148.890625 364.380208 L 150.489583 367.005208 L 152.09375 371.296875 L 153.692708 371.875 L 155.296875 367.28125 L 156.895833 367 L 158.5 361.458333 L 160.104167 361.255208 L 161.703125 354.25 L 163.307292 362.260417 L 164.90625 360.083333 L 166.510417 349.505208 L 168.109375 350.109375 L 169.713542 343.536458 L 171.3125 353.442708 L 172.916667 355.765625 L 174.515625 359.614583 L 176.119792 345.822917 L 177.71875 342.40625 L 179.322917 327.671875 L 180.921875 331.791667 L 182.526042 328.385417 L 184.130208 329.645833 L 185.729167 349.364583 L 187.333333 349.552083 L 188.932292 332.395833 L 190.536458 321.859375 L 192.135417 309.5 L 193.739583 302.848958 L 195.338542 309.875 L 196.942708 342.260417 L 198.541667 307.34375 L 200.145833 292.505208 L 201.744792 279.015625 L 203.348958 290.4375 L 204.947917 269.083333 L 206.552083 294.963542 L 208.15625 307.791667 L 209.755208 316.21875 L 211.359375 298.390625 L 212.958333 278.78125 L 214.5625 237.572917 L 216.161458 244.901042 L 217.765625 217.40625 L 219.364583 314.322917 L 220.96875 305.302083 L 222.567708 219.494792 L 224.171875 248.979167 L 225.770833 219.265625 L 227.375 218.505208 L 228.973958 260.598958 L 230.578125 289.984375 L 232.177083 293.276042 L 233.78125 220.541667 L 235.385417 209.958333 L 236.984375 235.807292 L 238.588542 258.078125 L 240.1875 274.234375 L 241.791667 295.364583 L 243.390625 256.59375 L 244.994792 193.609375 L 246.59375 224.46875 L 248.197917 253.864583 L 249.796875 96.921875 L 251.401042 234.84375 L 253 297.161458 L 254.604167 246.833333 L 256.203125 180.708333 L 257.807292 173.234375 L 259.411458 169.791667 L 261.010417 153.776042 L 262.614583 194.109375 L 264.213542 214.71875 L 265.817708 271.78125 L 267.416667 180.130208 L 269.020833 143.953125 L 270.619792 156.223958 L 272.223958 164.0625 L 273.822917 212.458333 L 275.427083 251.192708 L 277.026042 257.21875 L 278.630208 144.614583 L 280.229167 151.916667 L 281.833333 163.515625 L 283.4375 156.682292 L 285.036458 204.098958 L 286.640625 261.270833 L 288.239583 265.140625 L 289.84375 163.713542 L 291.442708 177.791667 L 293.046875 159.864583 L 294.645833 205.765625 L 296.25 250.796875 L 297.848958 262.375 L 299.453125 265.848958 L 301.052083 143.411458 L 302.65625 46.088542 L 304.255208 90.776042 L 305.859375 92.916667 L 307.463542 140.354167 L 309.0625 274.494792 L 310.666667 230.984375 L 312.265625 107.598958 L 313.869792 100.270833 L 315.46875 87.083333 L 317.072917 111.34375 L 318.671875 170.708333 L 320.276042 259.203125 L 321.875 279.255208 L 323.479167 96.0625 L 325.078125 96.791667 L 326.682292 107.515625 L 328.28125 133.109375 L 329.885417 143.942708 L 331.489583 265.96875 L 333.088542 254.744792 L 334.692708 123.166667 L 336.291667 96.958333 L 337.895833 73.625 L 339.494792 131.526042 L 341.098958 193.661458 L 342.697917 265.348958 L 344.302083 256.744792 L 345.901042 131.598958 L 347.505208 134.947917 L 349.104167 163.453125 L 350.708333 217.375 L 352.307292 148.59375 L 353.911458 270.328125 L 355.510417 261.984375 L 357.114583 146.572917 L 358.71875 137.229167 L 360.317708 167.067708 L 361.921875 157.8125 L 363.520833 192.229167 L 365.125 307.473958 L 366.723958 126.734375 L 368.328125 156.588542 L 369.927083 145.833333 L 371.53125 144.03125 L 373.130208 182.25 L 374.734375 208.21875 L 376.333333 308.458333 L 377.9375 331.197917 L 379.536458 286.572917 L 381.140625 192.885417 L 382.744792 174.911458 L 384.34375 170.244792 L 385.947917 225.098958 L 387.546875 310.072917 L 389.151042 276.697917 L 390.75 206.098958 L 392.354167 192.203125 L 393.953125 196.71875 L 395.557292 179.875 L 397.15625 231.390625 L 398.760417 302.875 L 400.359375 291.770833 L 401.963542 204 L 403.5625 215.348958 L 405.166667 218.953125 L 406.770833 217.447917 L 408.369792 255.90625 L 409.973958 311.302083 L 411.572917 295.588542 L 413.177083 214.729167 L 414.776042 214.463542 L 416.380208 200.010417 L 417.979167 214.739583 L 419.583333 264.5625 L 421.182292 336.9375 L 422.786458 249.140625 L 424.385417 221.427083 L 425.989583 224.401042 L 427.588542 245.203125 L 429.192708 240.630208 L 430.796875 260.833333 L 432.395833 319.338542 L 434 337.338542 L 435.598958 313.4375 L 437.203125 240.057292 L 438.802083 226.994792 L 440.40625 236.260417 L 442.005208 275.864583 L 443.609375 320.046875 L 445.208333 297.114583 L 446.8125 260.723958 L 448.411458 250.203125 L 450.015625 255.604167 L 451.614583 229.145833 L 453.21875 254.5625 L 454.822917 321.838542 L 456.421875 283.994792 L 458.026042 229.244792 L 459.625 237.505208 L 461.229167 245.864583 L 462.828125 257.75 L 464.432292 314.380208 L 466.03125 329.479167 L 467.635417 339.296875 L 469.234375 313.885417 L 470.838542 256.34375 L 472.4375 260.322917 L 474.041667 278.802083 L 475.640625 291.197917 L 477.244792 327.890625 L 478.84375 313.145833 L 480.447917 145.984375 L 482.052083 248.171875 L 483.651042 209.291667 L 485.255208 185.005208 L 486.854167 248 L 488.458333 310.651042 L 490.057292 301.34375 L 491.661458 201.348958 L 493.260417 205.088542 L 494.864583 199.46875 L 496.463542 184.739583 L 498.067708 228.026042 L 499.666667 290.296875 L 501.270833 289.119792 L 502.869792 206.197917 L 504.473958 155.161458 L 506.078125 173.942708 L 507.677083 211.390625 L 509.28125 120.354167 L 510.880208 274.666667 L 512.484375 261.083333 L 514.083333 117.822917 L 515.6875 135.59375 L 517.286458 127.166667 L 518.890625 139.666667 L 520.489583 177.083333 L 522.09375 247.229167 L 523.692708 244.223958 L 525.296875 139.036458 L 526.895833 104.625 L 528.5 109.895833 L 530.104167 114.963542 L 531.703125 166.739583 L 533.307292 269.515625 L 534.90625 242.421875 L 536.510417 137.838542 L 538.109375 46.223958 L 539.713542 33.182292 L 541.3125 113.427083 L 542.916667 136.776042 L 544.515625 257.083333 L 546.119792 241.078125 L 547.71875 94.119792 L 549.322917 149.755208 L 550.921875 86.291667 L 552.526042 273.802083 L 554.130208 292.286458 L 555.729167 291.875 L 557.333333 242.130208 L 558.932292 95.609375 L 560.536458 99.515625 L 562.135417 105.244792 " transform="matrix(0.75, 0, 0, 0.75, 0, 0)"/>
<path fill="none" stroke-width="1" stroke-linecap="butt" stroke-linejoin="miter" stroke="rgb(0%, 0%, 0%)" stroke-opacity="1" stroke-miterlimit="1.154701" d="M 171.3125 394.5 L 171.3125 399.5 " transform="matrix(0.75, 0, 0, 0.75, 0, 0)"/>
<path fill="none" stroke-width="1" stroke-linecap="butt" stroke-linejoin="miter" stroke="rgb(0%, 0%, 0%)" stroke-opacity="1" stroke-miterlimit="1.154701" d="M 269.020833 394.5 L 269.020833 399.5 " transform="matrix(0.75, 0, 0, 0.75, 0, 0)"/>
<path fill="none" stroke-width="1" stroke-linecap="butt" stroke-linejoin="miter" stroke="rgb(0%, 0%, 0%)" stroke-opacity="1" stroke-miterlimit="1.154701" d="M 368.328125 394.5 L 368.328125 399.5 " transform="matrix(0.75, 0, 0, 0.75, 0, 0)"/>
<path fill="none" stroke-width="1" stroke-linecap="butt" stroke-linejoin="miter" stroke="rgb(0%, 0%, 0%)" stroke-opacity="1" stroke-miterlimit="1.154701" d="M 466.03125 394.5 L 466.03125 399.5 " transform="matrix(0.75, 0, 0, 0.75, 0, 0)"/>
<path fill="none" stroke-width="1" stroke-linecap="butt" stroke-linejoin="miter" stroke="rgb(0%, 0%, 0%)" stroke-opacity="1" stroke-miterlimit="1.154701" d="M 102.5 381.072917 L 97.5 381.072917 " transform="matrix(0.75, 0, 0, 0.75, 0, 0)"/>
<path fill="none" stroke-width="1" stroke-linecap="butt" stroke-linejoin="miter" stroke="rgb(0%, 0%, 0%)" stroke-opacity="1" stroke-miterlimit="1.154701" d="M 102.5 254.473958 L 97.5 254.473958 " transform="matrix(0.75, 0, 0, 0.75, 0, 0)"/>
<path fill="none" stroke-width="1" stroke-linecap="butt" stroke-linejoin="miter" stroke="rgb(0%, 0%, 0%)" stroke-opacity="1" stroke-miterlimit="1.154701" d="M 102.5 127.875 L 97.5 127.875 " transform="matrix(0.75, 0, 0, 0.75, 0, 0)"/>
<path fill="none" stroke-width="1" stroke-linecap="butt" stroke-linejoin="miter" stroke="rgb(0%, 0%, 0%)" stroke-opacity="1" stroke-miterlimit="1.154701" d="M 102.5 394 L 584.5 394 " transform="matrix(0.75, 0, 0, 0.75, 0, 0)"/>
<path fill="none" stroke-width="1" stroke-linecap="butt" stroke-linejoin="miter" stroke="rgb(0%, 0%, 0%)" stroke-opacity="1" stroke-miterlimit="1.154701" d="M 103 394.5 L 103 15.5 " transform="matrix(0.75, 0, 0, 0.75, 0, 0)"/>
<path fill="none" stroke-width="1" stroke-linecap="butt" stroke-linejoin="miter" stroke="rgb(0%, 0%, 0%)" stroke-opacity="1" stroke-miterlimit="1.154701" d="M 102.5 16 L 584.5 16 " transform="matrix(0.75, 0, 0, 0.75, 0, 0)"/>
<path fill="none" stroke-width="1" stroke-linecap="butt" stroke-linejoin="miter" stroke="rgb(0%, 0%, 0%)" stroke-opacity="1" stroke-miterlimit="1.154701" d="M 584 394.5 L 584 15.5 " transform="matrix(0.75, 0, 0, 0.75, 0, 0)"/>
</svg>
