<?xml version="1.0" encoding="UTF-8"?>
<svg xmlns="http://www.w3.org/2000/svg" xmlns:xlink="http://www.w3.org/1999/xlink" width="450pt" height="338pt" viewBox="0 0 450 338" version="1.1">
<defs>
<g>
<symbol overflow="visible" id="glyph0-0-9bdc1bc4">
<path style="stroke:none;" d=""/>
</symbol>
<symbol overflow="visible" id="glyph0-1-9bdc1bc4">
<path style="stroke:none;" d="M 3.734375 -1.5 C 3.734375 -1.609375 3.65625 -1.609375 3.578125 -1.609375 C 3.453125 -1.609375 3.453125 -1.59375 3.375 -1.40625 C 3.1875 -0.90625 2.765625 -0.109375 2.15625 -0.109375 C 1.875 -0.109375 1.875 -0.375 1.875 -0.546875 C 1.875 -0.625 1.875 -0.78125 1.953125 -1.078125 L 2.734375 -4.203125 L 3.625 -4.203125 C 3.796875 -4.203125 3.921875 -4.203125 3.921875 -4.40625 C 3.921875 -4.53125 3.828125 -4.53125 3.65625 -4.53125 L 2.8125 -4.53125 L 3.203125 -6.078125 C 3.25 -6.21875 3.25 -6.25 3.25 -6.296875 C 3.25 -6.515625 3.0625 -6.578125 2.96875 -6.578125 C 2.703125 -6.578125 2.59375 -6.359375 2.546875 -6.1875 L 2.140625 -4.53125 L 1.25 -4.53125 C 1.078125 -4.53125 0.953125 -4.53125 0.953125 -4.328125 C 0.953125 -4.203125 1.046875 -4.203125 1.21875 -4.203125 L 2.0625 -4.203125 L 1.296875 -1.1875 C 1.296875 -1.140625 1.25 -0.96875 1.25 -0.828125 C 1.25 -0.296875 1.59375 0.109375 2.140625 0.109375 C 3.203125 0.109375 3.734375 -1.453125 3.734375 -1.5 Z M 3.734375 -1.5 "/>
</symbol>
<symbol overflow="visible" id="glyph1-0-9bdc1bc4">
<path style="stroke:none;" d="M 0.203125 -7.65625 C 0.203125 -7.65625 0.203125 0 0.203125 0 C 0.203125 0 4.9375 0 4.9375 0 C 4.9375 0 4.9375 -7.65625 4.9375 -7.65625 C 4.9375 -7.65625 0.203125 -7.65625 0.203125 -7.65625 Z M 0.75 -0.546875 C 0.75 -0.546875 0.75 -7.109375 0.75 -7.109375 C 0.75 -7.109375 4.390625 -7.109375 4.390625 -7.109375 C 4.390625 -7.109375 4.390625 -0.546875 4.390625 -0.546875 C 4.390625 -0.546875 0.75 -0.546875 0.75 -0.546875 Z M 0.75 -0.546875 "/>
</symbol>
<symbol overflow="visible" id="glyph1-1-9bdc1bc4">
<path style="stroke:none;" d="M 5.328125 -3.578125 C 5.328125 -1.140625 4.46875 0.15625 2.890625 0.15625 C 1.296875 0.15625 0.453125 -1.140625 0.453125 -3.640625 C 0.453125 -6.140625 1.28125 -7.4375 2.890625 -7.4375 C 4.5 -7.4375 5.328125 -6.15625 5.328125 -3.578125 Z M 4.375 -3.671875 C 4.375 -5.65625 3.890625 -6.625 2.890625 -6.625 C 1.890625 -6.625 1.390625 -5.671875 1.390625 -3.640625 C 1.390625 -1.59375 1.890625 -0.609375 2.859375 -0.609375 C 3.890625 -0.609375 4.375 -1.546875 4.375 -3.671875 Z M 4.375 -3.671875 "/>
</symbol>
<symbol overflow="visible" id="glyph1-2-9bdc1bc4">
<path style="stroke:none;" d="M 3.640625 0 C 3.640625 0 2.71875 0 2.71875 0 C 2.71875 0 2.71875 -5.296875 2.71875 -5.296875 C 2.71875 -5.296875 1.078125 -5.296875 1.078125 -5.296875 C 1.078125 -5.296875 1.078125 -5.96875 1.078125 -5.96875 C 2.5 -6.140625 2.703125 -6.296875 3.03125 -7.4375 C 3.03125 -7.4375 3.640625 -7.4375 3.640625 -7.4375 C 3.640625 -7.4375 3.640625 0 3.640625 0 Z M 3.640625 0 "/>
</symbol>
<symbol overflow="visible" id="glyph2-0-9bdc1bc4">
<path style="stroke:none;" d="M 0.203125 -7.65625 C 0.203125 -7.65625 0.203125 0 0.203125 0 C 0.203125 0 4.9375 0 4.9375 0 C 4.9375 0 4.9375 -7.65625 4.9375 -7.65625 C 4.9375 -7.65625 0.203125 -7.65625 0.203125 -7.65625 Z M 0.75 -0.546875 C 0.75 -0.546875 0.75 -7.109375 0.75 -7.109375 C 0.75 -7.109375 4.390625 -7.109375 4.390625 -7.109375 C 4.390625 -7.109375 4.390625 -0.546875 4.390625 -0.546875 C 4.390625 -0.546875 0.75 -0.546875 0.75 -0.546875 Z M 0.75 -0.546875 "/>
</symbol>
<symbol overflow="visible" id="glyph2-1-9bdc1bc4">
<path style="stroke:none;" d="M 5.390625 -2.46875 C 5.390625 -0.890625 4.34375 0.15625 2.828125 0.15625 C 1.515625 0.15625 0.671875 -0.4375 0.375 -1.90625 C 0.375 -1.90625 1.296875 -1.90625 1.296875 -1.90625 C 1.515625 -1.078125 2 -0.65625 2.8125 -0.65625 C 3.828125 -0.65625 4.4375 -1.265625 4.4375 -2.34375 C 4.4375 -3.4375 3.8125 -4.078125 2.8125 -4.078125 C 2.234375 -4.078125 1.875 -3.90625 1.453125 -3.390625 C 1.453125 -3.390625 0.59375 -3.390625 0.59375 -3.390625 C 0.59375 -3.390625 1.15625 -7.28125 1.15625 -7.28125 C 1.15625 -7.28125 5 -7.28125 5 -7.28125 C 5 -7.28125 5 -6.375 5 -6.375 C 5 -6.375 1.90625 -6.375 1.90625 -6.375 C 1.90625 -6.375 1.609375 -4.453125 1.609375 -4.453125 C 2.03125 -4.765625 2.453125 -4.90625 2.984375 -4.90625 C 4.40625 -4.90625 5.390625 -3.9375 5.390625 -2.46875 Z M 5.390625 -2.46875 "/>
</symbol>
<symbol overflow="visible" id="glyph2-2-9bdc1bc4">
<path style="stroke:none;" d="M 3.640625 0 C 3.640625 0 2.71875 0 2.71875 0 C 2.71875 0 2.71875 -5.296875 2.71875 -5.296875 C 2.71875 -5.296875 1.078125 -5.296875 1.078125 -5.296875 C 1.078125 -5.296875 1.078125 -5.96875 1.078125 -5.96875 C 2.5 -6.140625 2.703125 -6.296875 3.03125 -7.4375 C 3.03125 -7.4375 3.640625 -7.4375 3.640625 -7.4375 C 3.640625 -7.4375 3.640625 0 3.640625 0 Z M 3.640625 0 "/>
</symbol>
<symbol overflow="visible" id="glyph2-3-9bdc1bc4">
<path style="stroke:none;" d="M 5.328125 -3.578125 C 5.328125 -1.140625 4.46875 0.15625 2.890625 0.15625 C 1.296875 0.15625 0.453125 -1.140625 0.453125 -3.640625 C 0.453125 -6.140625 1.28125 -7.4375 2.890625 -7.4375 C 4.5 -7.4375 5.328125 -6.15625 5.328125 -3.578125 Z M 4.375 -3.671875 C 4.375 -5.65625 3.890625 -6.625 2.890625 -6.625 C 1.890625 -6.625 1.390625 -5.671875 1.390625 -3.640625 C 1.390625 -1.59375 1.890625 -0.609375 2.859375 -0.609375 C 3.890625 -0.609375 4.375 -1.546875 4.375 -3.671875 Z M 4.375 -3.671875 "/>
</symbol>
<symbol overflow="visible" id="glyph3-0-9bdc1bc4">
<path style="stroke:none;" d="M 0.203125 -7.65625 C 0.203125 -7.65625 0.203125 0 0.203125 0 C 0.203125 0 4.9375 0 4.9375 0 C 4.9375 0 4.9375 -7.65625 4.9375 -7.65625 C 4.9375 -7.65625 0.203125 -7.65625 0.203125 -7.65625 Z M 0.75 -0.546875 C 0.75 -0.546875 0.75 -7.109375 0.75 -7.109375 C 0.75 -7.109375 4.390625 -7.109375 4.390625 -7.109375 C 4.390625 -7.109375 4.390625 -0.546875 4.390625 -0.546875 C 4.390625 -0.546875 0.75 -0.546875 0.75 -0.546875 Z M 0.75 -0.546875 "/>
</symbol>
<symbol overflow="visible" id="glyph3-1-9bdc1bc4">
<path style="stroke:none;" d="M 5.328125 -3.578125 C 5.328125 -1.140625 4.46875 0.15625 2.890625 0.15625 C 1.296875 0.15625 0.453125 -1.140625 0.453125 -3.640625 C 0.453125 -6.140625 1.28125 -7.4375 2.890625 -7.4375 C 4.5 -7.4375 5.328125 -6.15625 5.328125 -3.578125 Z M 4.375 -3.671875 C 4.375 -5.65625 3.890625 -6.625 2.890625 -6.625 C 1.890625 -6.625 1.390625 -5.671875 1.390625 -3.640625 C 1.390625 -1.59375 1.890625 -0.609375 2.859375 -0.609375 C 3.890625 -0.609375 4.375 -1.546875 4.375 -3.671875 Z M 4.375 -3.671875 "/>
</symbol>
<symbol overflow="visible" id="glyph4-0-9bdc1bc4">
<path style="stroke:none;" d="M 0.203125 -7.65625 C 0.203125 -7.65625 0.203125 0 0.203125 0 C 0.203125 0 4.9375 0 4.9375 0 C 4.9375 0 4.9375 -7.65625 4.9375 -7.65625 C 4.9375 -7.65625 0.203125 -7.65625 0.203125 -7.65625 Z M 0.75 -0.546875 C 0.75 -0.546875 0.75 -7.109375 0.75 -7.109375 C 0.75 -7.109375 4.390625 -7.109375 4.390625 -7.109375 C 4.390625 -7.109375 4.390625 -0.546875 4.390625 -0.546875 C 4.390625 -0.546875 0.75 -0.546875 0.75 -0.546875 Z M 0.75 -0.546875 "/>
</symbol>
<symbol overflow="visible" id="glyph4-1-9bdc1bc4">
<path style="stroke:none;" d="M 5.328125 -3.578125 C 5.328125 -1.140625 4.46875 0.15625 2.890625 0.15625 C 1.296875 0.15625 0.453125 -1.140625 0.453125 -3.640625 C 0.453125 -6.140625 1.28125 -7.4375 2.890625 -7.4375 C 4.5 -7.4375 5.328125 -6.15625 5.328125 -3.578125 Z M 4.375 -3.671875 C 4.375 -5.65625 3.890625 -6.625 2.890625 -6.625 C 1.890625 -6.625 1.390625 -5.671875 1.390625 -3.640625 C 1.390625 -1.59375 1.890625 -0.609375 2.859375 -0.609375 C 3.890625 -0.609375 4.375 -1.546875 4.375 -3.671875 Z M 4.375 -3.671875 "/>
</symbol>
<symbol overflow="visible" id="glyph5-0-9bdc1bc4">
<path style="stroke:none;" d=""/>
</symbol>
<symbol overflow="visible" id="glyph5-1-9bdc1bc4">
<path style="stroke:none;" d="M -7.03125 -8.953125 C -7.125 -8.953125 -7.171875 -8.90625 -7.171875 -8.8125 C -7.171875 -8.484375 -7.140625 -8.140625 -7.140625 -7.796875 C -7.140625 -7.46875 -7.171875 -7.109375 -7.171875 -6.78125 C -7.171875 -6.734375 -7.171875 -6.59375 -6.96875 -6.59375 C -6.859375 -6.59375 -6.84375 -6.6875 -6.84375 -6.78125 C -6.828125 -7.328125 -6.609375 -7.40625 -6.390625 -7.40625 C -6.296875 -7.40625 -6.21875 -7.390625 -6.140625 -7.375 L -1.53125 -6.21875 L -7 -4.25 C -7.15625 -4.1875 -7.171875 -4.171875 -7.171875 -3.953125 L -7.171875 -2.640625 C -7.171875 -2.484375 -7.171875 -2.359375 -6.96875 -2.359375 C -6.84375 -2.359375 -6.84375 -2.453125 -6.84375 -2.640625 C -6.84375 -2.71875 -6.84375 -3.28125 -6.765625 -3.28125 C -6.765625 -3.28125 -6.734375 -3.28125 -6.625 -3.25 L -1.0625 -1.875 C -0.484375 -1.71875 -0.34375 -1.328125 -0.328125 -0.84375 C -0.328125 -0.765625 -0.3125 -0.65625 -0.125 -0.65625 C -0.03125 -0.65625 0 -0.71875 0 -0.78125 C 0 -1.109375 -0.03125 -1.453125 -0.03125 -1.78125 C -0.03125 -2.125 0 -2.484375 0 -2.8125 C 0 -2.875 0 -3 -0.1875 -3 C -0.3125 -3 -0.328125 -2.921875 -0.328125 -2.796875 C -0.34375 -2.203125 -0.625 -2.1875 -0.78125 -2.1875 C -0.8125 -2.1875 -0.875 -2.1875 -1.046875 -2.21875 L -6.453125 -3.578125 L -0.171875 -5.84375 C -0.015625 -5.890625 0 -5.90625 0 -6.046875 C 0 -6.15625 -0.015625 -6.203125 -0.203125 -6.265625 L -6.125 -7.734375 C -6.796875 -7.890625 -6.828125 -8.484375 -6.84375 -8.78125 C -6.84375 -8.8125 -6.859375 -8.953125 -7.03125 -8.953125 Z M -7.03125 -8.953125 "/>
</symbol>
<symbol overflow="visible" id="glyph6-0-9bdc1bc4">
<path style="stroke:none;" d="M 0.203125 -7.65625 C 0.203125 -7.65625 0.203125 0 0.203125 0 C 0.203125 0 4.9375 0 4.9375 0 C 4.9375 0 4.9375 -7.65625 4.9375 -7.65625 C 4.9375 -7.65625 0.203125 -7.65625 0.203125 -7.65625 Z M 0.75 -0.546875 C 0.75 -0.546875 0.75 -7.109375 0.75 -7.109375 C 0.75 -7.109375 4.390625 -7.109375 4.390625 -7.109375 C 4.390625 -7.109375 4.390625 -0.546875 4.390625 -0.546875 C 4.390625 -0.546875 0.75 -0.546875 0.75 -0.546875 Z M 0.75 -0.546875 "/>
</symbol>
<symbol overflow="visible" id="glyph6-1-9bdc1bc4">
<path style="stroke:none;" d="M 5.328125 -3.578125 C 5.328125 -1.140625 4.46875 0.15625 2.890625 0.15625 C 1.296875 0.15625 0.453125 -1.140625 0.453125 -3.640625 C 0.453125 -6.140625 1.28125 -7.4375 2.890625 -7.4375 C 4.5 -7.4375 5.328125 -6.15625 5.328125 -3.578125 Z M 4.375 -3.671875 C 4.375 -5.65625 3.890625 -6.625 2.890625 -6.625 C 1.890625 -6.625 1.390625 -5.671875 1.390625 -3.640625 C 1.390625 -1.59375 1.890625 -0.609375 2.859375 -0.609375 C 3.890625 -0.609375 4.375 -1.546875 4.375 -3.671875 Z M 4.375 -3.671875 "/>
</symbol>
<symbol overflow="visible" id="glyph7-0-9bdc1bc4">
<path style="stroke:none;" d="M 0.203125 -7.65625 C 0.203125 -7.65625 0.203125 0 0.203125 0 C 0.203125 0 4.9375 0 4.9375 0 C 4.9375 0 4.9375 -7.65625 4.9375 -7.65625 C 4.9375 -7.65625 0.203125 -7.65625 0.203125 -7.65625 Z M 0.75 -0.546875 C 0.75 -0.546875 0.75 -7.109375 0.75 -7.109375 C 0.75 -7.109375 4.390625 -7.109375 4.390625 -7.109375 C 4.390625 -7.109375 4.390625 -0.546875 4.390625 -0.546875 C 4.390625 -0.546875 0.75 -0.546875 0.75 -0.546875 Z M 0.75 -0.546875 "/>
</symbol>
<symbol overflow="visible" id="glyph7-1-9bdc1bc4">
<path style="stroke:none;" d="M 5.390625 -2.46875 C 5.390625 -0.890625 4.34375 0.15625 2.828125 0.15625 C 1.515625 0.15625 0.671875 -0.4375 0.375 -1.90625 C 0.375 -1.90625 1.296875 -1.90625 1.296875 -1.90625 C 1.515625 -1.078125 2 -0.65625 2.8125 -0.65625 C 3.828125 -0.65625 4.4375 -1.265625 4.4375 -2.34375 C 4.4375 -3.4375 3.8125 -4.078125 2.8125 -4.078125 C 2.234375 -4.078125 1.875 -3.90625 1.453125 -3.390625 C 1.453125 -3.390625 0.59375 -3.390625 0.59375 -3.390625 C 0.59375 -3.390625 1.15625 -7.28125 1.15625 -7.28125 C 1.15625 -7.28125 5 -7.28125 5 -7.28125 C 5 -7.28125 5 -6.375 5 -6.375 C 5 -6.375 1.90625 -6.375 1.90625 -6.375 C 1.90625 -6.375 1.609375 -4.453125 1.609375 -4.453125 C 2.03125 -4.765625 2.453125 -4.90625 2.984375 -4.90625 C 4.40625 -4.90625 5.390625 -3.9375 5.390625 -2.46875 Z M 5.390625 -2.46875 "/>
</symbol>
<symbol overflow="visible" id="glyph7-2-9bdc1bc4">
<path style="stroke:none;" d="M 2 0 C 2 0 0.90625 0 0.90625 0 C 0.90625 0 0.90625 -1.09375 0.90625 -1.09375 C 0.90625 -1.09375 2 -1.09375 2 -1.09375 C 2 -1.09375 2 0 2 0 Z M 2 0 "/>
</symbol>
<symbol overflow="visible" id="glyph7-3-9bdc1bc4">
<path style="stroke:none;" d="M 3.640625 0 C 3.640625 0 2.71875 0 2.71875 0 C 2.71875 0 2.71875 -5.296875 2.71875 -5.296875 C 2.71875 -5.296875 1.078125 -5.296875 1.078125 -5.296875 C 1.078125 -5.296875 1.078125 -5.96875 1.078125 -5.96875 C 2.5 -6.140625 2.703125 -6.296875 3.03125 -7.4375 C 3.03125 -7.4375 3.640625 -7.4375 3.640625 -7.4375 C 3.640625 -7.4375 3.640625 0 3.640625 0 Z M 3.640625 0 "/>
</symbol>
<symbol overflow="visible" id="glyph8-0-9bdc1bc4">
<path style="stroke:none;" d="M 0.203125 -7.65625 C 0.203125 -7.65625 0.203125 0 0.203125 0 C 0.203125 0 4.9375 0 4.9375 0 C 4.9375 0 4.9375 -7.65625 4.9375 -7.65625 C 4.9375 -7.65625 0.203125 -7.65625 0.203125 -7.65625 Z M 0.75 -0.546875 C 0.75 -0.546875 0.75 -7.109375 0.75 -7.109375 C 0.75 -7.109375 4.390625 -7.109375 4.390625 -7.109375 C 4.390625 -7.109375 4.390625 -0.546875 4.390625 -0.546875 C 4.390625 -0.546875 0.75 -0.546875 0.75 -0.546875 Z M 0.75 -0.546875 "/>
</symbol>
<symbol overflow="visible" id="glyph8-1-9bdc1bc4">
<path style="stroke:none;" d="M 5.328125 -3.578125 C 5.328125 -1.140625 4.46875 0.15625 2.890625 0.15625 C 1.296875 0.15625 0.453125 -1.140625 0.453125 -3.640625 C 0.453125 -6.140625 1.28125 -7.4375 2.890625 -7.4375 C 4.5 -7.4375 5.328125 -6.15625 5.328125 -3.578125 Z M 4.375 -3.671875 C 4.375 -5.65625 3.890625 -6.625 2.890625 -6.625 C 1.890625 -6.625 1.390625 -5.671875 1.390625 -3.640625 C 1.390625 -1.59375 1.890625 -0.609375 2.859375 -0.609375 C 3.890625 -0.609375 4.375 -1.546875 4.375 -3.671875 Z M 4.375 -3.671875 "/>
</symbol>
<symbol overflow="visible" id="glyph8-2-9bdc1bc4">
<path style="stroke:none;" d="M 4.984375 -1.21875 C 4.984375 -1.21875 4.46875 -0.71875 4.46875 -0.71875 C 4.46875 -0.71875 3.0625 -2.125 3.0625 -2.125 C 3.0625 -2.125 1.65625 -0.71875 1.65625 -0.71875 C 1.65625 -0.71875 1.15625 -1.21875 1.15625 -1.21875 C 1.15625 -1.21875 2.5625 -2.625 2.5625 -2.625 C 2.5625 -2.625 1.15625 -4.03125 1.15625 -4.03125 C 1.15625 -4.03125 1.65625 -4.53125 1.65625 -4.53125 C 1.65625 -4.53125 3.0625 -3.125 3.0625 -3.125 C 3.0625 -3.125 4.46875 -4.53125 4.46875 -4.53125 C 4.46875 -4.53125 4.984375 -4.03125 4.984375 -4.03125 C 4.984375 -4.03125 3.5625 -2.625 3.5625 -2.625 C 3.5625 -2.625 4.984375 -1.21875 4.984375 -1.21875 Z M 4.984375 -1.21875 "/>
</symbol>
<symbol overflow="visible" id="glyph8-3-9bdc1bc4">
<path style="stroke:none;" d="M 5.390625 -2.46875 C 5.390625 -0.890625 4.34375 0.15625 2.828125 0.15625 C 1.515625 0.15625 0.671875 -0.4375 0.375 -1.90625 C 0.375 -1.90625 1.296875 -1.90625 1.296875 -1.90625 C 1.515625 -1.078125 2 -0.65625 2.8125 -0.65625 C 3.828125 -0.65625 4.4375 -1.265625 4.4375 -2.34375 C 4.4375 -3.4375 3.8125 -4.078125 2.8125 -4.078125 C 2.234375 -4.078125 1.875 -3.90625 1.453125 -3.390625 C 1.453125 -3.390625 0.59375 -3.390625 0.59375 -3.390625 C 0.59375 -3.390625 1.15625 -7.28125 1.15625 -7.28125 C 1.15625 -7.28125 5 -7.28125 5 -7.28125 C 5 -7.28125 5 -6.375 5 -6.375 C 5 -6.375 1.90625 -6.375 1.90625 -6.375 C 1.90625 -6.375 1.609375 -4.453125 1.609375 -4.453125 C 2.03125 -4.765625 2.453125 -4.90625 2.984375 -4.90625 C 4.40625 -4.90625 5.390625 -3.9375 5.390625 -2.46875 Z M 5.390625 -2.46875 "/>
</symbol>
<symbol overflow="visible" id="glyph9-0-9bdc1bc4">
<path style="stroke:none;" d="M 0.203125 -7.65625 C 0.203125 -7.65625 0.203125 0 0.203125 0 C 0.203125 0 4.9375 0 4.9375 0 C 4.9375 0 4.9375 -7.65625 4.9375 -7.65625 C 4.9375 -7.65625 0.203125 -7.65625 0.203125 -7.65625 Z M 0.75 -0.546875 C 0.75 -0.546875 0.75 -7.109375 0.75 -7.109375 C 0.75 -7.109375 4.390625 -7.109375 4.390625 -7.109375 C 4.390625 -7.109375 4.390625 -0.546875 4.390625 -0.546875 C 4.390625 -0.546875 0.75 -0.546875 0.75 -0.546875 Z M 0.75 -0.546875 "/>
</symbol>
<symbol overflow="visible" id="glyph9-1-9bdc1bc4">
<path style="stroke:none;" d="M 5.328125 -3.578125 C 5.328125 -1.140625 4.46875 0.15625 2.890625 0.15625 C 1.296875 0.15625 0.453125 -1.140625 0.453125 -3.640625 C 0.453125 -6.140625 1.28125 -7.4375 2.890625 -7.4375 C 4.5 -7.4375 5.328125 -6.15625 5.328125 -3.578125 Z M 4.375 -3.671875 C 4.375 -5.65625 3.890625 -6.625 2.890625 -6.625 C 1.890625 -6.625 1.390625 -5.671875 1.390625 -3.640625 C 1.390625 -1.59375 1.890625 -0.609375 2.859375 -0.609375 C 3.890625 -0.609375 4.375 -1.546875 4.375 -3.671875 Z M 4.375 -3.671875 "/>
</symbol>
<symbol overflow="visible" id="glyph10-0-9bdc1bc4">
<path style="stroke:none;" d="M 0.515625 1.859375 L 0.515625 -7.40625 L 5.765625 -7.40625 L 5.765625 1.859375 Z M 1.109375 1.265625 L 5.1875 1.265625 L 5.1875 -6.8125 L 1.109375 -6.8125 Z M 1.109375 1.265625 "/>
</symbol>
<symbol overflow="visible" id="glyph10-1-9bdc1bc4">
<path style="stroke:none;" d="M 0.546875 -7.703125 L 3.71875 -7.703125 L 3.71875 -7.453125 L 1.9375 -3.421875 L 1.234375 -3.421875 L 2.921875 -7.21875 L 0.546875 -7.21875 Z M 0.546875 -7.703125 "/>
</symbol>
<symbol overflow="visible" id="glyph10-2-9bdc1bc4">
<path style="stroke:none;" d="M 2.890625 -5.234375 C 2.710938 -5.390625 2.460938 -5.46875 2.140625 -5.46875 C 1.828125 -5.46875 1.582031 -5.390625 1.40625 -5.234375 C 1.21875 -5.085938 1.125 -4.890625 1.125 -4.640625 C 1.125 -4.378906 1.210938 -4.171875 1.390625 -4.015625 C 1.578125 -3.867188 1.828125 -3.796875 2.140625 -3.796875 C 2.460938 -3.796875 2.710938 -3.875 2.890625 -4.03125 C 3.078125 -4.175781 3.171875 -4.375 3.171875 -4.625 C 3.171875 -4.882812 3.078125 -5.085938 2.890625 -5.234375 Z M 1.484375 -5.71875 C 1.191406 -5.78125 0.96875 -5.894531 0.8125 -6.0625 C 0.65625 -6.226562 0.578125 -6.4375 0.578125 -6.6875 C 0.578125 -7.03125 0.71875 -7.300781 1 -7.5 C 1.28125 -7.695312 1.660156 -7.796875 2.140625 -7.796875 C 2.628906 -7.796875 3.015625 -7.695312 3.296875 -7.5 C 3.578125 -7.300781 3.71875 -7.03125 3.71875 -6.6875 C 3.71875 -6.4375 3.640625 -6.226562 3.484375 -6.0625 C 3.316406 -5.894531 3.09375 -5.78125 2.8125 -5.71875 C 3.125 -5.65625 3.375 -5.523438 3.5625 -5.328125 C 3.738281 -5.140625 3.828125 -4.910156 3.828125 -4.640625 C 3.828125 -4.222656 3.6875 -3.90625 3.40625 -3.6875 C 3.101562 -3.457031 2.679688 -3.34375 2.140625 -3.34375 C 1.597656 -3.34375 1.179688 -3.457031 0.890625 -3.6875 C 0.597656 -3.90625 0.453125 -4.222656 0.453125 -4.640625 C 0.453125 -4.898438 0.546875 -5.128906 0.734375 -5.328125 C 0.910156 -5.515625 1.160156 -5.644531 1.484375 -5.71875 Z M 1.234375 -6.625 C 1.234375 -6.414062 1.316406 -6.242188 1.484375 -6.109375 C 1.640625 -5.984375 1.859375 -5.921875 2.140625 -5.921875 C 2.421875 -5.921875 2.644531 -5.984375 2.8125 -6.109375 C 2.976562 -6.234375 3.0625 -6.40625 3.0625 -6.625 C 3.0625 -6.84375 2.976562 -7.015625 2.8125 -7.140625 C 2.65625 -7.273438 2.429688 -7.34375 2.140625 -7.34375 C 1.859375 -7.34375 1.640625 -7.273438 1.484375 -7.140625 C 1.316406 -7.023438 1.234375 -6.851562 1.234375 -6.625 Z M 1.234375 -6.625 "/>
</symbol>
<symbol overflow="visible" id="glyph11-0-9bdc1bc4">
<path style="stroke:none;" d="M 0.203125 -7.65625 C 0.203125 -7.65625 0.203125 0 0.203125 0 C 0.203125 0 4.9375 0 4.9375 0 C 4.9375 0 4.9375 -7.65625 4.9375 -7.65625 C 4.9375 -7.65625 0.203125 -7.65625 0.203125 -7.65625 Z M 0.75 -0.546875 C 0.75 -0.546875 0.75 -7.109375 0.75 -7.109375 C 0.75 -7.109375 4.390625 -7.109375 4.390625 -7.109375 C 4.390625 -7.109375 4.390625 -0.546875 4.390625 -0.546875 C 4.390625 -0.546875 0.75 -0.546875 0.75 -0.546875 Z M 0.75 -0.546875 "/>
</symbol>
<symbol overflow="visible" id="glyph11-1-9bdc1bc4">
<path style="stroke:none;" d="M 5.359375 -5.265625 C 5.359375 -4.34375 4.828125 -3.5625 3.796875 -3.015625 C 3.796875 -3.015625 2.734375 -2.453125 2.734375 -2.453125 C 1.828125 -1.90625 1.484375 -1.515625 1.390625 -0.90625 C 1.390625 -0.90625 5.3125 -0.90625 5.3125 -0.90625 C 5.3125 -0.90625 5.3125 0 5.3125 0 C 5.3125 0 0.359375 0 0.359375 0 C 0.4375 -1.640625 0.890625 -2.34375 2.453125 -3.21875 C 2.453125 -3.21875 3.40625 -3.765625 3.40625 -3.765625 C 4.078125 -4.140625 4.421875 -4.65625 4.421875 -5.234375 C 4.421875 -6.03125 3.796875 -6.640625 2.953125 -6.640625 C 2.03125 -6.640625 1.515625 -6.109375 1.453125 -4.859375 C 1.453125 -4.859375 0.53125 -4.859375 0.53125 -4.859375 C 0.578125 -6.671875 1.453125 -7.4375 2.984375 -7.4375 C 4.390625 -7.4375 5.359375 -6.515625 5.359375 -5.265625 Z M 5.359375 -5.265625 "/>
</symbol>
<symbol overflow="visible" id="glyph11-2-9bdc1bc4">
<path style="stroke:none;" d="M 2 0 C 2 0 0.90625 0 0.90625 0 C 0.90625 0 0.90625 -1.09375 0.90625 -1.09375 C 0.90625 -1.09375 2 -1.09375 2 -1.09375 C 2 -1.09375 2 0 2 0 Z M 2 0 "/>
</symbol>
<symbol overflow="visible" id="glyph12-0-9bdc1bc4">
<path style="stroke:none;" d="M 0.203125 -7.65625 C 0.203125 -7.65625 0.203125 0 0.203125 0 C 0.203125 0 4.9375 0 4.9375 0 C 4.9375 0 4.9375 -7.65625 4.9375 -7.65625 C 4.9375 -7.65625 0.203125 -7.65625 0.203125 -7.65625 Z M 0.75 -0.546875 C 0.75 -0.546875 0.75 -7.109375 0.75 -7.109375 C 0.75 -7.109375 4.390625 -7.109375 4.390625 -7.109375 C 4.390625 -7.109375 4.390625 -0.546875 4.390625 -0.546875 C 4.390625 -0.546875 0.75 -0.546875 0.75 -0.546875 Z M 0.75 -0.546875 "/>
</symbol>
<symbol overflow="visible" id="glyph12-1-9bdc1bc4">
<path style="stroke:none;" d="M 5.328125 -3.578125 C 5.328125 -1.140625 4.46875 0.15625 2.890625 0.15625 C 1.296875 0.15625 0.453125 -1.140625 0.453125 -3.640625 C 0.453125 -6.140625 1.28125 -7.4375 2.890625 -7.4375 C 4.5 -7.4375 5.328125 -6.15625 5.328125 -3.578125 Z M 4.375 -3.671875 C 4.375 -5.65625 3.890625 -6.625 2.890625 -6.625 C 1.890625 -6.625 1.390625 -5.671875 1.390625 -3.640625 C 1.390625 -1.59375 1.890625 -0.609375 2.859375 -0.609375 C 3.890625 -0.609375 4.375 -1.546875 4.375 -3.671875 Z M 4.375 -3.671875 "/>
</symbol>
<symbol overflow="visible" id="glyph12-2-9bdc1bc4">
<path style="stroke:none;" d="M 4.984375 -1.21875 C 4.984375 -1.21875 4.46875 -0.71875 4.46875 -0.71875 C 4.46875 -0.71875 3.0625 -2.125 3.0625 -2.125 C 3.0625 -2.125 1.65625 -0.71875 1.65625 -0.71875 C 1.65625 -0.71875 1.15625 -1.21875 1.15625 -1.21875 C 1.15625 -1.21875 2.5625 -2.625 2.5625 -2.625 C 2.5625 -2.625 1.15625 -4.03125 1.15625 -4.03125 C 1.15625 -4.03125 1.65625 -4.53125 1.65625 -4.53125 C 1.65625 -4.53125 3.0625 -3.125 3.0625 -3.125 C 3.0625 -3.125 4.46875 -4.53125 4.46875 -4.53125 C 4.46875 -4.53125 4.984375 -4.03125 4.984375 -4.03125 C 4.984375 -4.03125 3.5625 -2.625 3.5625 -2.625 C 3.5625 -2.625 4.984375 -1.21875 4.984375 -1.21875 Z M 4.984375 -1.21875 "/>
</symbol>
<symbol overflow="visible" id="glyph13-0-9bdc1bc4">
<path style="stroke:none;" d="M 0.203125 -7.65625 C 0.203125 -7.65625 0.203125 0 0.203125 0 C 0.203125 0 4.9375 0 4.9375 0 C 4.9375 0 4.9375 -7.65625 4.9375 -7.65625 C 4.9375 -7.65625 0.203125 -7.65625 0.203125 -7.65625 Z M 0.75 -0.546875 C 0.75 -0.546875 0.75 -7.109375 0.75 -7.109375 C 0.75 -7.109375 4.390625 -7.109375 4.390625 -7.109375 C 4.390625 -7.109375 4.390625 -0.546875 4.390625 -0.546875 C 4.390625 -0.546875 0.75 -0.546875 0.75 -0.546875 Z M 0.75 -0.546875 "/>
</symbol>
<symbol overflow="visible" id="glyph13-1-9bdc1bc4">
<path style="stroke:none;" d="M 5.328125 -3.578125 C 5.328125 -1.140625 4.46875 0.15625 2.890625 0.15625 C 1.296875 0.15625 0.453125 -1.140625 0.453125 -3.640625 C 0.453125 -6.140625 1.28125 -7.4375 2.890625 -7.4375 C 4.5 -7.4375 5.328125 -6.15625 5.328125 -3.578125 Z M 4.375 -3.671875 C 4.375 -5.65625 3.890625 -6.625 2.890625 -6.625 C 1.890625 -6.625 1.390625 -5.671875 1.390625 -3.640625 C 1.390625 -1.59375 1.890625 -0.609375 2.859375 -0.609375 C 3.890625 -0.609375 4.375 -1.546875 4.375 -3.671875 Z M 4.375 -3.671875 "/>
</symbol>
<symbol overflow="visible" id="glyph14-0-9bdc1bc4">
<path style="stroke:none;" d="M 0.203125 -7.65625 C 0.203125 -7.65625 0.203125 0 0.203125 0 C 0.203125 0 4.9375 0 4.9375 0 C 4.9375 0 4.9375 -7.65625 4.9375 -7.65625 C 4.9375 -7.65625 0.203125 -7.65625 0.203125 -7.65625 Z M 0.75 -0.546875 C 0.75 -0.546875 0.75 -7.109375 0.75 -7.109375 C 0.75 -7.109375 4.390625 -7.109375 4.390625 -7.109375 C 4.390625 -7.109375 4.390625 -0.546875 4.390625 -0.546875 C 4.390625 -0.546875 0.75 -0.546875 0.75 -0.546875 Z M 0.75 -0.546875 "/>
</symbol>
<symbol overflow="visible" id="glyph14-1-9bdc1bc4">
<path style="stroke:none;" d="M 3.640625 0 C 3.640625 0 2.71875 0 2.71875 0 C 2.71875 0 2.71875 -5.296875 2.71875 -5.296875 C 2.71875 -5.296875 1.078125 -5.296875 1.078125 -5.296875 C 1.078125 -5.296875 1.078125 -5.96875 1.078125 -5.96875 C 2.5 -6.140625 2.703125 -6.296875 3.03125 -7.4375 C 3.03125 -7.4375 3.640625 -7.4375 3.640625 -7.4375 C 3.640625 -7.4375 3.640625 0 3.640625 0 Z M 3.640625 0 "/>
</symbol>
<symbol overflow="visible" id="glyph15-0-9bdc1bc4">
<path style="stroke:none;" d="M 0.203125 -7.65625 C 0.203125 -7.65625 0.203125 0 0.203125 0 C 0.203125 0 4.9375 0 4.9375 0 C 4.9375 0 4.9375 -7.65625 4.9375 -7.65625 C 4.9375 -7.65625 0.203125 -7.65625 0.203125 -7.65625 Z M 0.75 -0.546875 C 0.75 -0.546875 0.75 -7.109375 0.75 -7.109375 C 0.75 -7.109375 4.390625 -7.109375 4.390625 -7.109375 C 4.390625 -7.109375 4.390625 -0.546875 4.390625 -0.546875 C 4.390625 -0.546875 0.75 -0.546875 0.75 -0.546875 Z M 0.75 -0.546875 "/>
</symbol>
<symbol overflow="visible" id="glyph15-1-9bdc1bc4">
<path style="stroke:none;" d="M 5.328125 -3.578125 C 5.328125 -1.140625 4.46875 0.15625 2.890625 0.15625 C 1.296875 0.15625 0.453125 -1.140625 0.453125 -3.640625 C 0.453125 -6.140625 1.28125 -7.4375 2.890625 -7.4375 C 4.5 -7.4375 5.328125 -6.15625 5.328125 -3.578125 Z M 4.375 -3.671875 C 4.375 -5.65625 3.890625 -6.625 2.890625 -6.625 C 1.890625 -6.625 1.390625 -5.671875 1.390625 -3.640625 C 1.390625 -1.59375 1.890625 -0.609375 2.859375 -0.609375 C 3.890625 -0.609375 4.375 -1.546875 4.375 -3.671875 Z M 4.375 -3.671875 "/>
</symbol>
<symbol overflow="visible" id="glyph16-0-9bdc1bc4">
<path style="stroke:none;" d="M 0.515625 1.859375 L 0.515625 -7.40625 L 5.765625 -7.40625 L 5.765625 1.859375 Z M 1.109375 1.265625 L 5.1875 1.265625 L 5.1875 -6.8125 L 1.109375 -6.8125 Z M 1.109375 1.265625 "/>
</symbol>
<symbol overflow="visible" id="glyph16-1-9bdc1bc4">
<path style="stroke:none;" d="M 2.890625 -5.234375 C 2.710938 -5.390625 2.460938 -5.46875 2.140625 -5.46875 C 1.828125 -5.46875 1.582031 -5.390625 1.40625 -5.234375 C 1.21875 -5.085938 1.125 -4.890625 1.125 -4.640625 C 1.125 -4.378906 1.210938 -4.171875 1.390625 -4.015625 C 1.578125 -3.867188 1.828125 -3.796875 2.140625 -3.796875 C 2.460938 -3.796875 2.710938 -3.875 2.890625 -4.03125 C 3.078125 -4.175781 3.171875 -4.375 3.171875 -4.625 C 3.171875 -4.882812 3.078125 -5.085938 2.890625 -5.234375 Z M 1.484375 -5.71875 C 1.191406 -5.78125 0.96875 -5.894531 0.8125 -6.0625 C 0.65625 -6.226562 0.578125 -6.4375 0.578125 -6.6875 C 0.578125 -7.03125 0.71875 -7.300781 1 -7.5 C 1.28125 -7.695312 1.660156 -7.796875 2.140625 -7.796875 C 2.628906 -7.796875 3.015625 -7.695312 3.296875 -7.5 C 3.578125 -7.300781 3.71875 -7.03125 3.71875 -6.6875 C 3.71875 -6.4375 3.640625 -6.226562 3.484375 -6.0625 C 3.316406 -5.894531 3.09375 -5.78125 2.8125 -5.71875 C 3.125 -5.65625 3.375 -5.523438 3.5625 -5.328125 C 3.738281 -5.140625 3.828125 -4.910156 3.828125 -4.640625 C 3.828125 -4.222656 3.6875 -3.90625 3.40625 -3.6875 C 3.101562 -3.457031 2.679688 -3.34375 2.140625 -3.34375 C 1.597656 -3.34375 1.179688 -3.457031 0.890625 -3.6875 C 0.597656 -3.90625 0.453125 -4.222656 0.453125 -4.640625 C 0.453125 -4.898438 0.546875 -5.128906 0.734375 -5.328125 C 0.910156 -5.515625 1.160156 -5.644531 1.484375 -5.71875 Z M 1.234375 -6.625 C 1.234375 -6.414062 1.316406 -6.242188 1.484375 -6.109375 C 1.640625 -5.984375 1.859375 -5.921875 2.140625 -5.921875 C 2.421875 -5.921875 2.644531 -5.984375 2.8125 -6.109375 C 2.976562 -6.234375 3.0625 -6.40625 3.0625 -6.625 C 3.0625 -6.84375 2.976562 -7.015625 2.8125 -7.140625 C 2.65625 -7.273438 2.429688 -7.34375 2.140625 -7.34375 C 1.859375 -7.34375 1.640625 -7.273438 1.484375 -7.140625 C 1.316406 -7.023438 1.234375 -6.851562 1.234375 -6.625 Z M 1.234375 -6.625 "/>
</symbol>
<symbol overflow="visible" id="glyph17-0-9bdc1bc4">
<path style="stroke:none;" d="M 0.203125 -7.65625 C 0.203125 -7.65625 0.203125 0 0.203125 0 C 0.203125 0 4.9375 0 4.9375 0 C 4.9375 0 4.9375 -7.65625 4.9375 -7.65625 C 4.9375 -7.65625 0.203125 -7.65625 0.203125 -7.65625 Z M 0.75 -0.546875 C 0.75 -0.546875 0.75 -7.109375 0.75 -7.109375 C 0.75 -7.109375 4.390625 -7.109375 4.390625 -7.109375 C 4.390625 -7.109375 4.390625 -0.546875 4.390625 -0.546875 C 4.390625 -0.546875 0.75 -0.546875 0.75 -0.546875 Z M 0.75 -0.546875 "/>
</symbol>
<symbol overflow="visible" id="glyph17-1-9bdc1bc4">
<path style="stroke:none;" d="M 6.640625 -2.296875 C 6.640625 -0.75 5.484375 0.125 3.5 0.125 C 1.546875 0.125 0.34375 -0.765625 0.34375 -2.40625 C 0.34375 -2.40625 1.875 -2.40625 1.875 -2.40625 C 1.875 -1.578125 2.515625 -1.140625 3.59375 -1.140625 C 4.546875 -1.140625 5.140625 -1.46875 5.140625 -2.109375 C 5.140625 -2.734375 4.75 -2.953125 3.703125 -3.15625 C 3.703125 -3.15625 2.625 -3.375 2.625 -3.375 C 1.078125 -3.671875 0.46875 -4.234375 0.46875 -5.421875 C 0.46875 -6.921875 1.53125 -7.78125 3.375 -7.78125 C 5.234375 -7.78125 6.375 -6.9375 6.375 -5.328125 C 6.375 -5.328125 4.90625 -5.328125 4.90625 -5.328125 C 4.90625 -6.09375 4.296875 -6.515625 3.296875 -6.515625 C 2.484375 -6.515625 1.96875 -6.15625 1.96875 -5.578125 C 1.96875 -5.015625 2.296875 -4.796875 3.421875 -4.578125 C 3.421875 -4.578125 4.625 -4.34375 4.625 -4.34375 C 6.03125 -4.078125 6.640625 -3.5 6.640625 -2.296875 Z M 6.640625 -2.296875 "/>
</symbol>
<symbol overflow="visible" id="glyph17-2-9bdc1bc4">
<path style="stroke:none;" d="M 2.234375 0 C 2.234375 0 0.65625 0 0.65625 0 C 0.65625 0 0.65625 -7.65625 0.65625 -7.65625 C 0.65625 -7.65625 2.234375 -7.65625 2.234375 -7.65625 C 2.234375 -7.65625 2.234375 0 2.234375 0 Z M 2.234375 0 "/>
</symbol>
<symbol overflow="visible" id="glyph17-3-9bdc1bc4">
<path style="stroke:none;" d="M 7.109375 0 C 7.109375 0 5.421875 0 5.421875 0 C 5.21875 -0.375 5.171875 -0.59375 5.171875 -1.3125 C 5.171875 -1.3125 5.203125 -2.125 5.203125 -2.125 C 5.203125 -2.765625 4.90625 -3.03125 4.21875 -3.03125 C 4.21875 -3.03125 2.421875 -3.03125 2.421875 -3.03125 C 2.421875 -3.03125 2.421875 0 2.421875 0 C 2.421875 0 0.84375 0 0.84375 0 C 0.84375 0 0.84375 -7.65625 0.84375 -7.65625 C 0.84375 -7.65625 4.953125 -7.65625 4.953125 -7.65625 C 6.296875 -7.65625 7 -6.765625 7 -5.59375 C 7 -4.65625 6.578125 -4.03125 5.71875 -3.703125 C 6.6875 -3.28125 6.734375 -3.171875 6.765625 -0.90625 C 6.765625 -0.578125 6.859375 -0.421875 7.109375 -0.28125 C 7.109375 -0.28125 7.109375 0 7.109375 0 Z M 5.421875 -5.359375 C 5.421875 -6.03125 5.171875 -6.34375 4.3125 -6.34375 C 4.3125 -6.34375 2.421875 -6.34375 2.421875 -6.34375 C 2.421875 -6.34375 2.421875 -4.34375 2.421875 -4.34375 C 2.421875 -4.34375 4.3125 -4.34375 4.3125 -4.34375 C 5.203125 -4.34375 5.421875 -4.6875 5.421875 -5.359375 Z M 5.421875 -5.359375 "/>
</symbol>
<symbol overflow="visible" id="glyph17-4-9bdc1bc4">
<path style="stroke:none;" d="M 5.71875 0 C 5.71875 0 4.25 0 4.25 0 C 4.25 0 4.25 -0.65625 4.25 -0.65625 C 3.890625 -0.171875 3.390625 0.09375 2.6875 0.09375 C 1.1875 0.09375 0.296875 -1.21875 0.296875 -2.828125 C 0.296875 -4.53125 1.328125 -5.765625 2.6875 -5.765625 C 3.390625 -5.765625 3.890625 -5.5 4.25 -4.9375 C 4.25 -4.9375 4.25 -7.65625 4.25 -7.65625 C 4.25 -7.65625 5.71875 -7.65625 5.71875 -7.65625 C 5.71875 -7.65625 5.71875 0 5.71875 0 Z M 4.25 -2.796875 C 4.25 -3.890625 3.765625 -4.53125 3.015625 -4.53125 C 2.28125 -4.53125 1.78125 -3.875 1.78125 -2.828125 C 1.78125 -1.78125 2.28125 -1.140625 3.015625 -1.140625 C 3.75 -1.140625 4.25 -1.78125 4.25 -2.796875 Z M 4.25 -2.796875 "/>
</symbol>
<symbol overflow="visible" id="glyph17-5-9bdc1bc4">
<path style="stroke:none;" d="M 5.515625 -2.625 C 5.515625 -2.625 5.5 -2.453125 5.5 -2.453125 C 5.5 -2.453125 1.703125 -2.453125 1.703125 -2.453125 C 1.75 -1.34375 2.1875 -1.03125 2.875 -1.03125 C 3.40625 -1.03125 3.875 -1.1875 4 -1.59375 C 4 -1.59375 5.453125 -1.59375 5.453125 -1.59375 C 5.125 -0.484375 4.09375 0.09375 2.828125 0.09375 C 1.21875 0.09375 0.234375 -0.9375 0.234375 -2.765625 C 0.234375 -4.65625 1.234375 -5.765625 2.859375 -5.765625 C 4.53125 -5.765625 5.515625 -4.578125 5.515625 -2.625 Z M 3.984375 -3.421875 C 3.90625 -4.234375 3.46875 -4.640625 2.828125 -4.640625 C 2.1875 -4.640625 1.8125 -4.203125 1.71875 -3.421875 C 1.71875 -3.421875 3.984375 -3.421875 3.984375 -3.421875 Z M 3.984375 -3.421875 "/>
</symbol>
<symbol overflow="visible" id="glyph17-6-9bdc1bc4">
<path style="stroke:none;" d="M 2.171875 0 C 2.171875 0 0.703125 0 0.703125 0 C 0.703125 0 0.703125 -7.65625 0.703125 -7.65625 C 0.703125 -7.65625 2.171875 -7.65625 2.171875 -7.65625 C 2.171875 -7.65625 2.171875 0 2.171875 0 Z M 2.171875 0 "/>
</symbol>
<symbol overflow="visible" id="glyph17-7-9bdc1bc4">
<path style="stroke:none;" d=""/>
</symbol>
<symbol overflow="visible" id="glyph17-8-9bdc1bc4">
<path style="stroke:none;" d="M 3.28125 -4.578125 C 3.28125 -4.578125 2.421875 -4.578125 2.421875 -4.578125 C 2.421875 -4.578125 2.421875 0 2.421875 0 C 2.421875 0 0.9375 0 0.9375 0 C 0.9375 0 0.9375 -4.578125 0.9375 -4.578125 C 0.9375 -4.578125 0.140625 -4.578125 0.140625 -4.578125 C 0.140625 -4.578125 0.140625 -5.546875 0.140625 -5.546875 C 0.140625 -5.546875 0.9375 -5.546875 0.9375 -5.546875 C 0.9375 -5.546875 0.9375 -6.234375 0.9375 -6.234375 C 0.9375 -7.1875 1.421875 -7.65625 2.390625 -7.65625 C 2.59375 -7.65625 2.96875 -7.640625 3.234375 -7.625 C 3.234375 -7.625 3.234375 -6.515625 3.234375 -6.515625 C 3.109375 -6.546875 2.9375 -6.546875 2.8125 -6.546875 C 2.546875 -6.546875 2.421875 -6.40625 2.421875 -6.109375 C 2.421875 -6.109375 2.421875 -5.546875 2.421875 -5.546875 C 2.421875 -5.546875 3.28125 -5.546875 3.28125 -5.546875 C 3.28125 -5.546875 3.28125 -4.578125 3.28125 -4.578125 Z M 3.28125 -4.578125 "/>
</symbol>
<symbol overflow="visible" id="glyph17-9-9bdc1bc4">
<path style="stroke:none;" d="M 5.96875 -2.796875 C 5.96875 -0.96875 4.890625 0.09375 3.171875 0.09375 C 1.421875 0.09375 0.375 -0.96875 0.375 -2.828125 C 0.375 -4.6875 1.421875 -5.765625 3.15625 -5.765625 C 4.9375 -5.765625 5.96875 -4.71875 5.96875 -2.796875 Z M 4.5 -2.8125 C 4.5 -3.921875 3.984375 -4.578125 3.171875 -4.578125 C 2.375 -4.578125 1.84375 -3.921875 1.84375 -2.828125 C 1.84375 -1.75 2.375 -1.09375 3.171875 -1.09375 C 3.953125 -1.09375 4.5 -1.75 4.5 -2.8125 Z M 4.5 -2.8125 "/>
</symbol>
<symbol overflow="visible" id="glyph17-10-9bdc1bc4">
<path style="stroke:none;" d="M 3.890625 -4.265625 C 3.6875 -4.296875 3.578125 -4.3125 3.421875 -4.3125 C 2.5625 -4.3125 2.125 -3.875 2.125 -3.015625 C 2.125 -3.015625 2.125 0 2.125 0 C 2.125 0 0.65625 0 0.65625 0 C 0.65625 0 0.65625 -5.671875 0.65625 -5.671875 C 0.65625 -5.671875 2.125 -5.671875 2.125 -5.671875 C 2.125 -5.671875 2.125 -4.5625 2.125 -4.5625 C 2.453125 -5.328125 3.03125 -5.765625 3.703125 -5.765625 C 3.75 -5.765625 3.796875 -5.765625 3.890625 -5.75 C 3.890625 -5.75 3.890625 -4.265625 3.890625 -4.265625 Z M 3.890625 -4.265625 "/>
</symbol>
<symbol overflow="visible" id="glyph17-11-9bdc1bc4">
<path style="stroke:none;" d="M 3.96875 0 C 3.96875 0 2.5 0 2.5 0 C 2.5 0 2.5 -5.140625 2.5 -5.140625 C 2.5 -5.140625 0.71875 -5.140625 0.71875 -5.140625 C 0.71875 -5.140625 0.71875 -6.109375 0.71875 -6.109375 C 2 -6.109375 2.765625 -6.5625 3 -7.4375 C 3 -7.4375 3.96875 -7.4375 3.96875 -7.4375 C 3.96875 -7.4375 3.96875 0 3.96875 0 Z M 3.96875 0 "/>
</symbol>
<symbol overflow="visible" id="glyph17-12-9bdc1bc4">
<path style="stroke:none;" d="M 5.421875 -3.703125 C 5.421875 -0.765625 4.375 0.09375 2.859375 0.09375 C 0.71875 0.09375 0.296875 -1.671875 0.296875 -3.75 C 0.296875 -5.890625 0.734375 -7.609375 2.859375 -7.609375 C 5.046875 -7.609375 5.421875 -5.8125 5.421875 -3.703125 Z M 3.953125 -3.734375 C 3.953125 -6.046875 3.59375 -6.421875 2.859375 -6.421875 C 2.078125 -6.421875 1.78125 -5.921875 1.78125 -3.765625 C 1.78125 -1.546875 2.125 -1.171875 2.859375 -1.171875 C 3.65625 -1.171875 3.953125 -1.65625 3.953125 -3.734375 Z M 3.953125 -3.734375 "/>
</symbol>
<symbol overflow="visible" id="glyph17-13-9bdc1bc4">
<path style="stroke:none;" d="M 5.453125 -1.6875 C 5.453125 -0.53125 4.578125 0.09375 2.984375 0.09375 C 1.265625 0.09375 0.34375 -0.5625 0.296875 -1.796875 C 0.296875 -1.796875 1.75 -1.796875 1.75 -1.796875 C 1.875 -1.1875 2.21875 -1.0625 2.890625 -1.0625 C 3.578125 -1.0625 3.984375 -1.203125 3.984375 -1.546875 C 3.984375 -1.703125 3.859375 -1.8125 3.5 -1.9375 C 3.5 -1.9375 1.75 -2.484375 1.75 -2.484375 C 0.6875 -2.796875 0.5 -3.1875 0.5 -3.875 C 0.5 -5.046875 1.390625 -5.765625 2.828125 -5.765625 C 4.359375 -5.765625 5.28125 -5.046875 5.296875 -3.84375 C 5.296875 -3.84375 3.890625 -3.84375 3.890625 -3.84375 C 3.875 -4.359375 3.53125 -4.609375 2.828125 -4.609375 C 2.3125 -4.609375 1.96875 -4.40625 1.96875 -4.078125 C 1.96875 -3.859375 2.078125 -3.765625 2.484375 -3.640625 C 2.484375 -3.640625 4.34375 -3.109375 4.34375 -3.109375 C 5.09375 -2.890625 5.453125 -2.40625 5.453125 -1.75 C 5.453125 -1.75 5.453125 -1.6875 5.453125 -1.6875 Z M 5.453125 -1.6875 "/>
</symbol>
<symbol overflow="visible" id="glyph17-14-9bdc1bc4">
<path style="stroke:none;" d="M 2.25 -0.09375 C 2.25 0.71875 2.09375 1.109375 1.6875 1.4375 C 1.390625 1.65625 1.109375 1.78125 0.671875 1.828125 C 0.671875 1.828125 0.671875 1.234375 0.671875 1.234375 C 1.296875 1.109375 1.578125 0.75 1.578125 0.03125 C 1.578125 0.03125 1.578125 0 1.578125 0 C 1.578125 0 0.671875 0 0.671875 0 C 0.671875 0 0.671875 -1.53125 0.671875 -1.53125 C 0.671875 -1.53125 2.25 -1.53125 2.25 -1.53125 C 2.25 -1.53125 2.25 -0.09375 2.25 -0.09375 Z M 2.25 -0.09375 "/>
</symbol>
<symbol overflow="visible" id="glyph17-15-9bdc1bc4">
<path style="stroke:none;" d="M 5.5 -3.0625 C 5.5 -3.0625 0.625 -3.0625 0.625 -3.0625 C 0.625 -3.0625 0.625 -4.109375 0.625 -4.109375 C 0.625 -4.109375 5.5 -4.109375 5.5 -4.109375 C 5.5 -4.109375 5.5 -3.0625 5.5 -3.0625 Z M 5.5 -1.140625 C 5.5 -1.140625 0.625 -1.140625 0.625 -1.140625 C 0.625 -1.140625 0.625 -2.1875 0.625 -2.1875 C 0.625 -2.1875 5.5 -2.1875 5.5 -2.1875 C 5.5 -2.1875 5.5 -1.140625 5.5 -1.140625 Z M 5.5 -1.140625 "/>
</symbol>
<symbol overflow="visible" id="glyph18-0-9bdc1bc4">
<path style="stroke:none;" d="M 0.203125 -7.65625 C 0.203125 -7.65625 0.203125 0 0.203125 0 C 0.203125 0 4.9375 0 4.9375 0 C 4.9375 0 4.9375 -7.65625 4.9375 -7.65625 C 4.9375 -7.65625 0.203125 -7.65625 0.203125 -7.65625 Z M 0.75 -0.546875 C 0.75 -0.546875 0.75 -7.109375 0.75 -7.109375 C 0.75 -7.109375 4.390625 -7.109375 4.390625 -7.109375 C 4.390625 -7.109375 4.390625 -0.546875 4.390625 -0.546875 C 4.390625 -0.546875 0.75 -0.546875 0.75 -0.546875 Z M 0.75 -0.546875 "/>
</symbol>
<symbol overflow="visible" id="glyph18-1-9bdc1bc4">
<path style="stroke:none;" d=""/>
</symbol>
<symbol overflow="visible" id="glyph18-2-9bdc1bc4">
<path style="stroke:none;" d="M 8.140625 0 C 8.140625 0 6.578125 0 6.578125 0 C 6.578125 0 6.578125 -5.96875 6.578125 -5.96875 C 6.578125 -5.96875 5.21875 0 5.21875 0 C 5.21875 0 3.640625 0 3.640625 0 C 3.640625 0 2.265625 -5.96875 2.265625 -5.96875 C 2.265625 -5.96875 2.265625 0 2.265625 0 C 2.265625 0 0.6875 0 0.6875 0 C 0.6875 0 0.6875 -7.65625 0.6875 -7.65625 C 0.6875 -7.65625 3.046875 -7.65625 3.046875 -7.65625 C 3.046875 -7.65625 4.4375 -1.5625 4.4375 -1.5625 C 4.4375 -1.5625 5.78125 -7.65625 5.78125 -7.65625 C 5.78125 -7.65625 8.140625 -7.65625 8.140625 -7.65625 C 8.140625 -7.65625 8.140625 0 8.140625 0 Z M 8.140625 0 "/>
</symbol>
<symbol overflow="visible" id="glyph18-3-9bdc1bc4">
<path style="stroke:none;" d="M 5.96875 -2.796875 C 5.96875 -0.96875 4.890625 0.09375 3.171875 0.09375 C 1.421875 0.09375 0.375 -0.96875 0.375 -2.828125 C 0.375 -4.6875 1.421875 -5.765625 3.15625 -5.765625 C 4.9375 -5.765625 5.96875 -4.71875 5.96875 -2.796875 Z M 4.5 -2.8125 C 4.5 -3.921875 3.984375 -4.578125 3.171875 -4.578125 C 2.375 -4.578125 1.84375 -3.921875 1.84375 -2.828125 C 1.84375 -1.75 2.375 -1.09375 3.171875 -1.09375 C 3.953125 -1.09375 4.5 -1.75 4.5 -2.8125 Z M 4.5 -2.8125 "/>
</symbol>
<symbol overflow="visible" id="glyph19-0-9bdc1bc4">
<path style="stroke:none;" d="M 0.203125 -7.65625 C 0.203125 -7.65625 0.203125 0 0.203125 0 C 0.203125 0 4.9375 0 4.9375 0 C 4.9375 0 4.9375 -7.65625 4.9375 -7.65625 C 4.9375 -7.65625 0.203125 -7.65625 0.203125 -7.65625 Z M 0.75 -0.546875 C 0.75 -0.546875 0.75 -7.109375 0.75 -7.109375 C 0.75 -7.109375 4.390625 -7.109375 4.390625 -7.109375 C 4.390625 -7.109375 4.390625 -0.546875 4.390625 -0.546875 C 4.390625 -0.546875 0.75 -0.546875 0.75 -0.546875 Z M 0.75 -0.546875 "/>
</symbol>
<symbol overflow="visible" id="glyph19-1-9bdc1bc4">
<path style="stroke:none;" d=""/>
</symbol>
<symbol overflow="visible" id="glyph19-2-9bdc1bc4">
<path style="stroke:none;" d="M 5.5 0 C 5.5 0 3.90625 0 3.90625 0 C 3.765625 -0.171875 3.734375 -0.421875 3.734375 -0.71875 C 3.21875 -0.171875 2.640625 0.09375 2.015625 0.09375 C 1.078125 0.09375 0.296875 -0.4375 0.296875 -1.53125 C 0.296875 -2.5625 0.84375 -3.046875 1.96875 -3.25 C 1.96875 -3.25 2.546875 -3.34375 2.546875 -3.34375 C 3.28125 -3.46875 3.734375 -3.40625 3.734375 -4.015625 C 3.734375 -4.390625 3.4375 -4.578125 2.875 -4.578125 C 2.15625 -4.578125 1.90625 -4.390625 1.84375 -3.796875 C 1.84375 -3.796875 0.421875 -3.796875 0.421875 -3.796875 C 0.515625 -5.109375 1.3125 -5.765625 2.84375 -5.765625 C 4.375 -5.765625 5.171875 -5.171875 5.171875 -4.015625 C 5.171875 -4.015625 5.171875 -0.875 5.171875 -0.875 C 5.171875 -0.578125 5.234375 -0.421875 5.5 -0.171875 C 5.5 -0.171875 5.5 0 5.5 0 Z M 3.734375 -2.421875 C 3.734375 -2.421875 3.734375 -2.671875 3.734375 -2.671875 C 3.5625 -2.59375 3.5 -2.578125 3.109375 -2.5 C 3.109375 -2.5 2.609375 -2.40625 2.609375 -2.40625 C 2 -2.28125 1.765625 -2.125 1.765625 -1.703125 C 1.765625 -1.28125 2.0625 -1.09375 2.5625 -1.09375 C 3.3125 -1.09375 3.734375 -1.578125 3.734375 -2.421875 Z M 3.734375 -2.421875 "/>
</symbol>
<symbol overflow="visible" id="glyph19-3-9bdc1bc4">
<path style="stroke:none;" d="M 2.25 -0.09375 C 2.25 0.71875 2.09375 1.109375 1.6875 1.4375 C 1.390625 1.65625 1.109375 1.78125 0.671875 1.828125 C 0.671875 1.828125 0.671875 1.234375 0.671875 1.234375 C 1.296875 1.109375 1.578125 0.75 1.578125 0.03125 C 1.578125 0.03125 1.578125 0 1.578125 0 C 1.578125 0 0.671875 0 0.671875 0 C 0.671875 0 0.671875 -1.53125 0.671875 -1.53125 C 0.671875 -1.53125 2.25 -1.53125 2.25 -1.53125 C 2.25 -1.53125 2.25 -0.09375 2.25 -0.09375 Z M 2.25 -0.09375 "/>
</symbol>
<symbol overflow="visible" id="glyph19-4-9bdc1bc4">
<path style="stroke:none;" d="M 5.421875 -3.703125 C 5.421875 -0.765625 4.375 0.09375 2.859375 0.09375 C 0.71875 0.09375 0.296875 -1.671875 0.296875 -3.75 C 0.296875 -5.890625 0.734375 -7.609375 2.859375 -7.609375 C 5.046875 -7.609375 5.421875 -5.8125 5.421875 -3.703125 Z M 3.953125 -3.734375 C 3.953125 -6.046875 3.59375 -6.421875 2.859375 -6.421875 C 2.078125 -6.421875 1.78125 -5.921875 1.78125 -3.765625 C 1.78125 -1.546875 2.125 -1.171875 2.859375 -1.171875 C 3.65625 -1.171875 3.953125 -1.65625 3.953125 -3.734375 Z M 3.953125 -3.734375 "/>
</symbol>
<symbol overflow="visible" id="glyph19-5-9bdc1bc4">
<path style="stroke:none;" d="M 6.53125 -5.671875 C 6.53125 -5.671875 4.3125 0.09375 4.3125 0.09375 C 4.3125 0.09375 4.3125 2.421875 4.3125 2.421875 C 4.3125 2.421875 2.84375 2.421875 2.84375 2.421875 C 2.84375 2.421875 2.84375 0.09375 2.84375 0.09375 C 2.84375 0.09375 0.625 -5.671875 0.625 -5.671875 C 0.625 -5.671875 2.15625 -5.671875 2.15625 -5.671875 C 2.15625 -5.671875 3.578125 -2 3.578125 -2 C 3.578125 -2 5 -5.671875 5 -5.671875 C 5 -5.671875 6.53125 -5.671875 6.53125 -5.671875 Z M 6.53125 -5.671875 "/>
</symbol>
<symbol overflow="visible" id="glyph19-6-9bdc1bc4">
<path style="stroke:none;" d="M 5.421875 -2.53125 C 5.421875 -0.921875 4.34375 0.09375 2.734375 0.09375 C 1.296875 0.09375 0.28125 -0.78125 0.28125 -2.09375 C 0.28125 -2.09375 1.734375 -2.09375 1.734375 -2.09375 C 1.734375 -1.484375 2.125 -1.171875 2.765625 -1.171875 C 3.5 -1.171875 3.953125 -1.625 3.953125 -2.5 C 3.953125 -3.40625 3.5 -3.859375 2.765625 -3.859375 C 2.3125 -3.859375 1.96875 -3.671875 1.8125 -3.296875 C 1.8125 -3.296875 0.5 -3.296875 0.5 -3.296875 C 0.5 -3.296875 1.15625 -7.4375 1.15625 -7.4375 C 1.15625 -7.4375 5.140625 -7.4375 5.140625 -7.4375 C 5.140625 -7.4375 5.140625 -6.125 5.140625 -6.125 C 5.140625 -6.125 2.0625 -6.125 2.0625 -6.125 C 2.0625 -6.125 1.8125 -4.578125 1.8125 -4.578125 C 2.25 -4.90625 2.609375 -5.03125 3.109375 -5.03125 C 4.484375 -5.03125 5.421875 -4.046875 5.421875 -2.53125 Z M 5.421875 -2.53125 "/>
</symbol>
<symbol overflow="visible" id="glyph20-0-9bdc1bc4">
<path style="stroke:none;" d="M 0.203125 -7.65625 C 0.203125 -7.65625 0.203125 0 0.203125 0 C 0.203125 0 4.9375 0 4.9375 0 C 4.9375 0 4.9375 -7.65625 4.9375 -7.65625 C 4.9375 -7.65625 0.203125 -7.65625 0.203125 -7.65625 Z M 0.75 -0.546875 C 0.75 -0.546875 0.75 -7.109375 0.75 -7.109375 C 0.75 -7.109375 4.390625 -7.109375 4.390625 -7.109375 C 4.390625 -7.109375 4.390625 -0.546875 4.390625 -0.546875 C 4.390625 -0.546875 0.75 -0.546875 0.75 -0.546875 Z M 0.75 -0.546875 "/>
</symbol>
<symbol overflow="visible" id="glyph20-1-9bdc1bc4">
<path style="stroke:none;" d="M 5.421875 -3.703125 C 5.421875 -0.765625 4.375 0.09375 2.859375 0.09375 C 0.71875 0.09375 0.296875 -1.671875 0.296875 -3.75 C 0.296875 -5.890625 0.734375 -7.609375 2.859375 -7.609375 C 5.046875 -7.609375 5.421875 -5.8125 5.421875 -3.703125 Z M 3.953125 -3.734375 C 3.953125 -6.046875 3.59375 -6.421875 2.859375 -6.421875 C 2.078125 -6.421875 1.78125 -5.921875 1.78125 -3.765625 C 1.78125 -1.546875 2.125 -1.171875 2.859375 -1.171875 C 3.65625 -1.171875 3.953125 -1.65625 3.953125 -3.734375 Z M 3.953125 -3.734375 "/>
</symbol>
<symbol overflow="visible" id="glyph20-2-9bdc1bc4">
<path style="stroke:none;" d="M 5.71875 0 C 5.71875 0 4.25 0 4.25 0 C 4.25 0 4.25 -0.65625 4.25 -0.65625 C 3.890625 -0.171875 3.390625 0.09375 2.6875 0.09375 C 1.1875 0.09375 0.296875 -1.21875 0.296875 -2.828125 C 0.296875 -4.53125 1.328125 -5.765625 2.6875 -5.765625 C 3.390625 -5.765625 3.890625 -5.5 4.25 -4.9375 C 4.25 -4.9375 4.25 -7.65625 4.25 -7.65625 C 4.25 -7.65625 5.71875 -7.65625 5.71875 -7.65625 C 5.71875 -7.65625 5.71875 0 5.71875 0 Z M 4.25 -2.796875 C 4.25 -3.890625 3.765625 -4.53125 3.015625 -4.53125 C 2.28125 -4.53125 1.78125 -3.875 1.78125 -2.828125 C 1.78125 -1.78125 2.28125 -1.140625 3.015625 -1.140625 C 3.75 -1.140625 4.25 -1.78125 4.25 -2.796875 Z M 4.25 -2.796875 "/>
</symbol>
<symbol overflow="visible" id="glyph20-3-9bdc1bc4">
<path style="stroke:none;" d="M 5.65625 -5.671875 C 5.65625 -5.671875 3.3125 1.046875 3.3125 1.046875 C 2.921875 2.125 2.421875 2.296875 1.421875 2.296875 C 1.25 2.296875 1.125 2.28125 0.90625 2.25 C 0.90625 2.25 0.90625 1.15625 0.90625 1.15625 C 1.09375 1.203125 1.171875 1.21875 1.296875 1.21875 C 1.8125 1.21875 2.203125 0.8125 2.203125 0.265625 C 2.203125 0.265625 2.203125 0.234375 2.203125 0.234375 C 2.203125 0.234375 0.09375 -5.671875 0.09375 -5.671875 C 0.09375 -5.671875 1.71875 -5.671875 1.71875 -5.671875 C 1.71875 -5.671875 2.96875 -1.546875 2.96875 -1.546875 C 2.96875 -1.546875 4.140625 -5.671875 4.140625 -5.671875 C 4.140625 -5.671875 5.65625 -5.671875 5.65625 -5.671875 Z M 5.65625 -5.671875 "/>
</symbol>
<symbol overflow="visible" id="glyph20-4-9bdc1bc4">
<path style="stroke:none;" d=""/>
</symbol>
<symbol overflow="visible" id="glyph20-5-9bdc1bc4">
<path style="stroke:none;" d="M 6.40625 -2.484375 C 6.40625 -0.875 5.484375 0.09375 4.109375 0.09375 C 3.5625 0.09375 3.03125 -0.046875 2.546875 -0.328125 C 2.546875 -0.328125 2.546875 2.421875 2.546875 2.421875 C 2.546875 2.421875 1.078125 2.421875 1.078125 2.421875 C 1.078125 2.421875 1.078125 -5.4375 1.078125 -5.4375 C 1.078125 -6.265625 1.265625 -6.765625 1.71875 -7.125 C 2.125 -7.453125 2.828125 -7.65625 3.546875 -7.65625 C 4.96875 -7.65625 5.953125 -6.859375 5.953125 -5.75 C 5.953125 -5.046875 5.640625 -4.546875 5.046875 -4.3125 C 5.390625 -4.234375 5.609375 -4.140625 5.875 -3.890625 C 6.25 -3.53125 6.40625 -3.125 6.40625 -2.484375 Z M 4.9375 -2.375 C 4.9375 -3.171875 4.390625 -3.671875 3.5 -3.671875 C 3.5 -3.671875 3.359375 -3.671875 3.359375 -3.671875 C 3.359375 -3.671875 3.359375 -4.65625 3.359375 -4.65625 C 3.359375 -4.65625 3.453125 -4.65625 3.453125 -4.65625 C 4.078125 -4.671875 4.484375 -5.03125 4.484375 -5.59375 C 4.484375 -6.140625 4.09375 -6.46875 3.453125 -6.46875 C 2.875 -6.46875 2.546875 -6.15625 2.546875 -5.640625 C 2.546875 -5.640625 2.546875 -1.796875 2.546875 -1.796875 C 2.796875 -1.390625 3.234375 -1.171875 3.703125 -1.171875 C 4.4375 -1.171875 4.9375 -1.625 4.9375 -2.375 Z M 4.9375 -2.375 "/>
</symbol>
<symbol overflow="visible" id="glyph20-6-9bdc1bc4">
<path style="stroke:none;" d="M 5.5 -3.0625 C 5.5 -3.0625 0.625 -3.0625 0.625 -3.0625 C 0.625 -3.0625 0.625 -4.109375 0.625 -4.109375 C 0.625 -4.109375 5.5 -4.109375 5.5 -4.109375 C 5.5 -4.109375 5.5 -3.0625 5.5 -3.0625 Z M 5.5 -1.140625 C 5.5 -1.140625 0.625 -1.140625 0.625 -1.140625 C 0.625 -1.140625 0.625 -2.1875 0.625 -2.1875 C 0.625 -2.1875 5.5 -2.1875 5.5 -2.1875 C 5.5 -2.1875 5.5 -1.140625 5.5 -1.140625 Z M 5.5 -1.140625 "/>
</symbol>
<symbol overflow="visible" id="glyph20-7-9bdc1bc4">
<path style="stroke:none;" d="M 2.25 0 C 2.25 0 0.671875 0 0.671875 0 C 0.671875 0 0.671875 -1.53125 0.671875 -1.53125 C 0.671875 -1.53125 2.25 -1.53125 2.25 -1.53125 C 2.25 -1.53125 2.25 0 2.25 0 Z M 2.25 0 "/>
</symbol>
<symbol overflow="visible" id="glyph20-8-9bdc1bc4">
<path style="stroke:none;" d="M 5.421875 -2.53125 C 5.421875 -0.921875 4.34375 0.09375 2.734375 0.09375 C 1.296875 0.09375 0.28125 -0.78125 0.28125 -2.09375 C 0.28125 -2.09375 1.734375 -2.09375 1.734375 -2.09375 C 1.734375 -1.484375 2.125 -1.171875 2.765625 -1.171875 C 3.5 -1.171875 3.953125 -1.625 3.953125 -2.5 C 3.953125 -3.40625 3.5 -3.859375 2.765625 -3.859375 C 2.3125 -3.859375 1.96875 -3.671875 1.8125 -3.296875 C 1.8125 -3.296875 0.5 -3.296875 0.5 -3.296875 C 0.5 -3.296875 1.15625 -7.4375 1.15625 -7.4375 C 1.15625 -7.4375 5.140625 -7.4375 5.140625 -7.4375 C 5.140625 -7.4375 5.140625 -6.125 5.140625 -6.125 C 5.140625 -6.125 2.0625 -6.125 2.0625 -6.125 C 2.0625 -6.125 1.8125 -4.578125 1.8125 -4.578125 C 2.25 -4.90625 2.609375 -5.03125 3.109375 -5.03125 C 4.484375 -5.03125 5.421875 -4.046875 5.421875 -2.53125 Z M 5.421875 -2.53125 "/>
</symbol>
</g>
</defs>
<g id="surface1-9bdc1bc4">
<path style=" stroke:none;fill-rule:nonzero;fill:rgb(100%,100%,100%);fill-opacity:1;" d="M 0 0 L 450 0 L 450 337.5 L 0 337.5 Z M 0 0 "/>
<path style=" stroke:none;fill-rule:nonzero;fill:rgb(100%,100%,100%);fill-opacity:1;" d="M 75.75 295.5 L 438 295.5 L 438 27 L 75.75 27 Z M 75.75 295.5 "/>
<path style="fill:none;stroke-width:1;stroke-linecap:butt;stroke-linejoin:miter;stroke:rgb(0%,0%,0%);stroke-opacity:0.12;stroke-miterlimit:2;" d="M 118.520833 394 L 118.520833 36 " transform="matrix(0.75,0,0,0.75,0,0)"/>
<path style="fill:none;stroke-width:1;stroke-linecap:butt;stroke-linejoin:miter;stroke:rgb(0%,0%,0%);stroke-opacity:0.12;stroke-miterlimit:2;" d="M 340.28125 394 L 340.28125 36 " transform="matrix(0.75,0,0,0.75,0,0)"/>
<path style="fill:none;stroke-width:1;stroke-linecap:butt;stroke-linejoin:miter;stroke:rgb(0%,0%,0%);stroke-opacity:0.12;stroke-miterlimit:2;" d="M 562.046875 394 L 562.046875 36 " transform="matrix(0.75,0,0,0.75,0,0)"/>
<path style="fill:none;stroke-width:1;stroke-linecap:butt;stroke-linejoin:miter;stroke:rgb(0%,0%,0%);stroke-opacity:0.12;stroke-miterlimit:2;" d="M 101 377.729167 L 584 377.729167 " transform="matrix(0.75,0,0,0.75,0,0)"/>
<path style="fill:none;stroke-width:1;stroke-linecap:butt;stroke-linejoin:miter;stroke:rgb(0%,0%,0%);stroke-opacity:0.12;stroke-miterlimit:2;" d="M 101 300.291667 L 584 300.291667 " transform="matrix(0.75,0,0,0.75,0,0)"/>
<path style="fill:none;stroke-width:1;stroke-linecap:butt;stroke-linejoin:miter;stroke:rgb(0%,0%,0%);stroke-opacity:0.12;stroke-miterlimit:2;" d="M 101 222.854167 L 584 222.854167 " transform="matrix(0.75,0,0,0.75,0,0)"/>
<path style="fill:none;stroke-width:1;stroke-linecap:butt;stroke-linejoin:miter;stroke:rgb(0%,0%,0%);stroke-opacity:0.12;stroke-miterlimit:2;" d="M 101 145.421875 L 584 145.421875 " transform="matrix(0.75,0,0,0.75,0,0)"/>
<path style="fill:none;stroke-width:1;stroke-linecap:butt;stroke-linejoin:miter;stroke:rgb(0%,0%,0%);stroke-opacity:0.12;stroke-miterlimit:2;" d="M 101 67.984375 L 584 67.984375 " transform="matrix(0.75,0,0,0.75,0,0)"/>
<g style="fill:rgb(0%,0%,0%);fill-opacity:1;">
  <use xlink:href="#glyph0-1-9bdc1bc4" x="255.131996" y="324.445496"/>
</g>
<g style="fill:rgb(0%,0%,0%);fill-opacity:1;">
  <use xlink:href="#glyph1-1-9bdc1bc4" x="85.970472" y="311.443497"/>
</g>
<g style="fill:rgb(0%,0%,0%);fill-opacity:1;">
  <use xlink:href="#glyph2-1-9bdc1bc4" x="249.373764" y="311.443497"/>
</g>
<g style="fill:rgb(0%,0%,0%);fill-opacity:1;">
  <use xlink:href="#glyph3-1-9bdc1bc4" x="255.211761" y="311.443497"/>
</g>
<g style="fill:rgb(0%,0%,0%);fill-opacity:1;">
  <use xlink:href="#glyph2-2-9bdc1bc4" x="412.777039" y="311.443497"/>
</g>
<g style="fill:rgb(0%,0%,0%);fill-opacity:1;">
  <use xlink:href="#glyph2-3-9bdc1bc4" x="418.615036" y="311.443497"/>
</g>
<g style="fill:rgb(0%,0%,0%);fill-opacity:1;">
  <use xlink:href="#glyph4-1-9bdc1bc4" x="424.453079" y="311.443497"/>
</g>
<g style="fill:rgb(0%,0%,0%);fill-opacity:1;">
  <use xlink:href="#glyph5-1-9bdc1bc4" x="20.012767" y="165.150742"/>
</g>
<g style="fill:rgb(0%,0%,0%);fill-opacity:1;">
  <use xlink:href="#glyph6-1-9bdc1bc4" x="62.412003" y="287.122673"/>
</g>
<g style="fill:rgb(0%,0%,0%);fill-opacity:1;">
  <use xlink:href="#glyph7-1-9bdc1bc4" x="25.799767" y="228.952538"/>
</g>
<g style="fill:rgb(0%,0%,0%);fill-opacity:1;">
  <use xlink:href="#glyph7-2-9bdc1bc4" x="31.63777" y="228.952538"/>
</g>
<g style="fill:rgb(0%,0%,0%);fill-opacity:1;">
  <use xlink:href="#glyph8-1-9bdc1bc4" x="34.556777" y="228.952538"/>
</g>
<g style="fill:rgb(0%,0%,0%);fill-opacity:1;">
  <use xlink:href="#glyph2-3-9bdc1bc4" x="40.394766" y="228.952538"/>
</g>
<g style="fill:rgb(0%,0%,0%);fill-opacity:1;">
  <use xlink:href="#glyph8-2-9bdc1bc4" x="46.23278" y="228.952538"/>
</g>
<g style="fill:rgb(0%,0%,0%);fill-opacity:1;">
  <use xlink:href="#glyph1-2-9bdc1bc4" x="52.364765" y="228.952538"/>
</g>
<g style="fill:rgb(0%,0%,0%);fill-opacity:1;">
  <use xlink:href="#glyph9-1-9bdc1bc4" x="58.20278" y="228.952538"/>
</g>
<g style="fill:rgb(0%,0%,0%);fill-opacity:1;">
  <use xlink:href="#glyph10-1-9bdc1bc4" x="64.040771" y="228.952538"/>
</g>
<g style="fill:rgb(0%,0%,0%);fill-opacity:1;">
  <use xlink:href="#glyph7-3-9bdc1bc4" x="25.799767" y="170.876003"/>
</g>
<g style="fill:rgb(0%,0%,0%);fill-opacity:1;">
  <use xlink:href="#glyph7-2-9bdc1bc4" x="31.63777" y="170.876003"/>
</g>
<g style="fill:rgb(0%,0%,0%);fill-opacity:1;">
  <use xlink:href="#glyph8-1-9bdc1bc4" x="34.556777" y="170.876003"/>
</g>
<g style="fill:rgb(0%,0%,0%);fill-opacity:1;">
  <use xlink:href="#glyph2-3-9bdc1bc4" x="40.394766" y="170.876003"/>
</g>
<g style="fill:rgb(0%,0%,0%);fill-opacity:1;">
  <use xlink:href="#glyph8-2-9bdc1bc4" x="46.23278" y="170.876003"/>
</g>
<g style="fill:rgb(0%,0%,0%);fill-opacity:1;">
  <use xlink:href="#glyph1-2-9bdc1bc4" x="52.364765" y="170.876003"/>
</g>
<g style="fill:rgb(0%,0%,0%);fill-opacity:1;">
  <use xlink:href="#glyph9-1-9bdc1bc4" x="58.20278" y="170.876003"/>
</g>
<g style="fill:rgb(0%,0%,0%);fill-opacity:1;">
  <use xlink:href="#glyph10-2-9bdc1bc4" x="64.040771" y="170.876003"/>
</g>
<g style="fill:rgb(0%,0%,0%);fill-opacity:1;">
  <use xlink:href="#glyph7-3-9bdc1bc4" x="25.799767" y="112.799492"/>
</g>
<g style="fill:rgb(0%,0%,0%);fill-opacity:1;">
  <use xlink:href="#glyph7-2-9bdc1bc4" x="31.63777" y="112.799492"/>
</g>
<g style="fill:rgb(0%,0%,0%);fill-opacity:1;">
  <use xlink:href="#glyph8-3-9bdc1bc4" x="34.556777" y="112.799492"/>
</g>
<g style="fill:rgb(0%,0%,0%);fill-opacity:1;">
  <use xlink:href="#glyph2-3-9bdc1bc4" x="40.394766" y="112.799492"/>
</g>
<g style="fill:rgb(0%,0%,0%);fill-opacity:1;">
  <use xlink:href="#glyph8-2-9bdc1bc4" x="46.23278" y="112.799492"/>
</g>
<g style="fill:rgb(0%,0%,0%);fill-opacity:1;">
  <use xlink:href="#glyph1-2-9bdc1bc4" x="52.364765" y="112.799492"/>
</g>
<g style="fill:rgb(0%,0%,0%);fill-opacity:1;">
  <use xlink:href="#glyph9-1-9bdc1bc4" x="58.20278" y="112.799492"/>
</g>
<g style="fill:rgb(0%,0%,0%);fill-opacity:1;">
  <use xlink:href="#glyph10-2-9bdc1bc4" x="64.040771" y="112.799492"/>
</g>
<g style="fill:rgb(0%,0%,0%);fill-opacity:1;">
  <use xlink:href="#glyph11-1-9bdc1bc4" x="25.799767" y="54.722958"/>
</g>
<g style="fill:rgb(0%,0%,0%);fill-opacity:1;">
  <use xlink:href="#glyph11-2-9bdc1bc4" x="31.63777" y="54.722958"/>
</g>
<g style="fill:rgb(0%,0%,0%);fill-opacity:1;">
  <use xlink:href="#glyph12-1-9bdc1bc4" x="34.556777" y="54.722958"/>
</g>
<g style="fill:rgb(0%,0%,0%);fill-opacity:1;">
  <use xlink:href="#glyph13-1-9bdc1bc4" x="40.394766" y="54.722958"/>
</g>
<g style="fill:rgb(0%,0%,0%);fill-opacity:1;">
  <use xlink:href="#glyph12-2-9bdc1bc4" x="46.23278" y="54.722958"/>
</g>
<g style="fill:rgb(0%,0%,0%);fill-opacity:1;">
  <use xlink:href="#glyph14-1-9bdc1bc4" x="52.364765" y="54.722958"/>
</g>
<g style="fill:rgb(0%,0%,0%);fill-opacity:1;">
  <use xlink:href="#glyph15-1-9bdc1bc4" x="58.20278" y="54.722958"/>
</g>
<g style="fill:rgb(0%,0%,0%);fill-opacity:1;">
  <use xlink:href="#glyph16-1-9bdc1bc4" x="64.040771" y="54.722958"/>
</g>
<g style="fill:rgb(0%,0%,0%);fill-opacity:1;">
  <use xlink:href="#glyph17-1-9bdc1bc4" x="156.915024" y="21.710987"/>
</g>
<g style="fill:rgb(0%,0%,0%);fill-opacity:1;">
  <use xlink:href="#glyph17-2-9bdc1bc4" x="163.918522" y="21.710987"/>
</g>
<g style="fill:rgb(0%,0%,0%);fill-opacity:1;">
  <use xlink:href="#glyph17-3-9bdc1bc4" x="166.837532" y="21.710987"/>
</g>
<g style="fill:rgb(0%,0%,0%);fill-opacity:1;">
  <use xlink:href="#glyph18-1-9bdc1bc4" x="174.418522" y="21.710987"/>
</g>
<g style="fill:rgb(0%,0%,0%);fill-opacity:1;">
  <use xlink:href="#glyph18-2-9bdc1bc4" x="177.337532" y="21.710987"/>
</g>
<g style="fill:rgb(0%,0%,0%);fill-opacity:1;">
  <use xlink:href="#glyph18-3-9bdc1bc4" x="186.084034" y="21.710987"/>
</g>
<g style="fill:rgb(0%,0%,0%);fill-opacity:1;">
  <use xlink:href="#glyph17-4-9bdc1bc4" x="192.499512" y="21.710987"/>
</g>
<g style="fill:rgb(0%,0%,0%);fill-opacity:1;">
  <use xlink:href="#glyph17-5-9bdc1bc4" x="198.915024" y="21.710987"/>
</g>
<g style="fill:rgb(0%,0%,0%);fill-opacity:1;">
  <use xlink:href="#glyph17-6-9bdc1bc4" x="204.753021" y="21.710987"/>
</g>
<g style="fill:rgb(0%,0%,0%);fill-opacity:1;">
  <use xlink:href="#glyph17-7-9bdc1bc4" x="207.67202" y="21.710987"/>
</g>
<g style="fill:rgb(0%,0%,0%);fill-opacity:1;">
  <use xlink:href="#glyph17-8-9bdc1bc4" x="210.591019" y="21.710987"/>
</g>
<g style="fill:rgb(0%,0%,0%);fill-opacity:1;">
  <use xlink:href="#glyph17-9-9bdc1bc4" x="214.087532" y="21.710987"/>
</g>
<g style="fill:rgb(0%,0%,0%);fill-opacity:1;">
  <use xlink:href="#glyph17-10-9bdc1bc4" x="220.503021" y="21.710987"/>
</g>
<g style="fill:rgb(0%,0%,0%);fill-opacity:1;">
  <use xlink:href="#glyph19-1-9bdc1bc4" x="224.587532" y="21.710987"/>
</g>
<g style="fill:rgb(0%,0%,0%);fill-opacity:1;">
  <use xlink:href="#glyph17-11-9bdc1bc4" x="227.506531" y="21.710987"/>
</g>
<g style="fill:rgb(0%,0%,0%);fill-opacity:1;">
  <use xlink:href="#glyph20-1-9bdc1bc4" x="233.344551" y="21.710987"/>
</g>
<g style="fill:rgb(0%,0%,0%);fill-opacity:1;">
  <use xlink:href="#glyph17-12-9bdc1bc4" x="239.182526" y="21.710987"/>
</g>
<g style="fill:rgb(0%,0%,0%);fill-opacity:1;">
  <use xlink:href="#glyph17-7-9bdc1bc4" x="245.020523" y="21.710987"/>
</g>
<g style="fill:rgb(0%,0%,0%);fill-opacity:1;">
  <use xlink:href="#glyph20-2-9bdc1bc4" x="247.939545" y="21.710987"/>
</g>
<g style="fill:rgb(0%,0%,0%);fill-opacity:1;">
  <use xlink:href="#glyph19-2-9bdc1bc4" x="254.355011" y="21.710987"/>
</g>
<g style="fill:rgb(0%,0%,0%);fill-opacity:1;">
  <use xlink:href="#glyph20-3-9bdc1bc4" x="260.193031" y="21.710987"/>
</g>
<g style="fill:rgb(0%,0%,0%);fill-opacity:1;">
  <use xlink:href="#glyph17-13-9bdc1bc4" x="266.031006" y="21.710987"/>
</g>
<g style="fill:rgb(0%,0%,0%);fill-opacity:1;">
  <use xlink:href="#glyph19-3-9bdc1bc4" x="271.869003" y="21.710987"/>
</g>
<g style="fill:rgb(0%,0%,0%);fill-opacity:1;">
  <use xlink:href="#glyph20-4-9bdc1bc4" x="274.788025" y="21.710987"/>
</g>
<g style="fill:rgb(0%,0%,0%);fill-opacity:1;">
  <use xlink:href="#glyph20-5-9bdc1bc4" x="277.707024" y="21.710987"/>
</g>
<g style="fill:rgb(0%,0%,0%);fill-opacity:1;">
  <use xlink:href="#glyph20-4-9bdc1bc4" x="284.857521" y="21.710987"/>
</g>
<g style="fill:rgb(0%,0%,0%);fill-opacity:1;">
  <use xlink:href="#glyph20-6-9bdc1bc4" x="287.77652" y="21.710987"/>
</g>
<g style="fill:rgb(0%,0%,0%);fill-opacity:1;">
  <use xlink:href="#glyph17-7-9bdc1bc4" x="293.908493" y="21.710987"/>
</g>
<g style="fill:rgb(0%,0%,0%);fill-opacity:1;">
  <use xlink:href="#glyph19-4-9bdc1bc4" x="296.827492" y="21.710987"/>
</g>
<g style="fill:rgb(0%,0%,0%);fill-opacity:1;">
  <use xlink:href="#glyph20-7-9bdc1bc4" x="302.665512" y="21.710987"/>
</g>
<g style="fill:rgb(0%,0%,0%);fill-opacity:1;">
  <use xlink:href="#glyph20-8-9bdc1bc4" x="305.584511" y="21.710987"/>
</g>
<g style="fill:rgb(0%,0%,0%);fill-opacity:1;">
  <use xlink:href="#glyph17-14-9bdc1bc4" x="311.422485" y="21.710987"/>
</g>
<g style="fill:rgb(0%,0%,0%);fill-opacity:1;">
  <use xlink:href="#glyph19-1-9bdc1bc4" x="314.341484" y="21.710987"/>
</g>
<g style="fill:rgb(0%,0%,0%);fill-opacity:1;">
  <use xlink:href="#glyph19-5-9bdc1bc4" x="317.260483" y="21.710987"/>
</g>
<g style="fill:rgb(0%,0%,0%);fill-opacity:1;">
  <use xlink:href="#glyph20-4-9bdc1bc4" x="324.432014" y="21.710987"/>
</g>
<g style="fill:rgb(0%,0%,0%);fill-opacity:1;">
  <use xlink:href="#glyph17-15-9bdc1bc4" x="327.350967" y="21.710987"/>
</g>
<g style="fill:rgb(0%,0%,0%);fill-opacity:1;">
  <use xlink:href="#glyph19-1-9bdc1bc4" x="333.482986" y="21.710987"/>
</g>
<g style="fill:rgb(0%,0%,0%);fill-opacity:1;">
  <use xlink:href="#glyph19-4-9bdc1bc4" x="336.401962" y="21.710987"/>
</g>
<g style="fill:rgb(0%,0%,0%);fill-opacity:1;">
  <use xlink:href="#glyph20-7-9bdc1bc4" x="342.239983" y="21.710987"/>
</g>
<g style="fill:rgb(0%,0%,0%);fill-opacity:1;">
  <use xlink:href="#glyph20-1-9bdc1bc4" x="345.159004" y="21.710987"/>
</g>
<g style="fill:rgb(0%,0%,0%);fill-opacity:1;">
  <use xlink:href="#glyph19-6-9bdc1bc4" x="350.996979" y="21.710987"/>
</g>
<path style="fill:none;stroke-width:3;stroke-linecap:butt;stroke-linejoin:miter;stroke:rgb(0%,44.705883%,69.803923%);stroke-opacity:1;stroke-miterlimit:2;" d="M 122.953125 52.270833 L 125.473958 52.270833 L 128.015625 52.276042 L 135.286458 52.276042 L 140.125 52.28125 L 145.755208 52.291667 L 152.114583 52.307292 L 159.166667 52.348958 L 166.833333 52.442708 L 175.072917 52.666667 L 183.8125 53.234375 L 193.005208 54.703125 L 202.619792 58.635417 L 212.651042 69.270833 L 223.192708 97.088542 L 234.473958 159.755208 L 246.317708 250.744792 L 260.223958 328.411458 L 273.515625 359.541667 L 285.026042 369.71875 L 297.671875 374.182292 L 310.713542 376.036458 L 325.291667 376.895833 L 341.463542 377.302083 L 360.286458 377.505208 L 383.208333 377.604167 L 430.489583 377.677083 L 454.125 377.6875 L 502.182292 377.703125 L 541.760417 377.708333 L 562.046875 377.708333 " transform="matrix(0.75,0,0,0.75,0,0)"/>
<path style="fill:none;stroke-width:3;stroke-linecap:butt;stroke-linejoin:miter;stroke:rgb(90.196079%,62.352943%,0%);stroke-opacity:1;stroke-miterlimit:2;" d="M 122.953125 377.723958 L 131.223958 377.723958 L 135.286458 377.71875 L 140.125 377.71875 L 145.755208 377.708333 L 152.114583 377.692708 L 159.166667 377.65625 L 166.833333 377.572917 L 175.072917 377.369792 L 183.8125 376.864583 L 193.005208 375.541667 L 202.619792 372.005208 L 212.651042 362.473958 L 223.192708 337.729167 L 234.473958 283.286458 L 246.317708 209.880208 L 260.223958 163 L 273.515625 164.333333 L 285.026042 180.848958 L 297.671875 202.895833 L 310.713542 225.09375 L 325.291667 247.4375 L 341.463542 268.786458 L 360.286458 289.4375 L 383.208333 309.453125 L 430.489583 337.609375 L 454.125 346.984375 L 502.182292 359.833333 L 541.760417 366.270833 L 562.046875 368.609375 " transform="matrix(0.75,0,0,0.75,0,0)"/>
<path style="fill:none;stroke-width:3;stroke-linecap:butt;stroke-linejoin:miter;stroke:rgb(0%,61.960787%,45.09804%);stroke-opacity:1;stroke-miterlimit:2;" d="M 122.953125 377.729167 L 135.286458 377.729167 L 140.125 377.723958 L 152.114583 377.723958 L 159.166667 377.71875 L 166.833333 377.708333 L 175.072917 377.6875 L 183.8125 377.630208 L 193.005208 377.484375 L 202.619792 377.083333 L 212.651042 375.979167 L 223.192708 372.90625 L 234.473958 364.682292 L 246.317708 347.098958 L 260.223958 316.317708 L 273.515625 283.848958 L 285.026042 257.15625 L 297.671875 230.645833 L 310.713542 206.59375 L 325.291667 183.390625 L 341.463542 161.635417 L 360.286458 140.78125 L 383.208333 120.666667 L 430.489583 92.4375 L 454.125 83.052083 L 502.182292 70.192708 L 541.760417 63.75 L 562.046875 61.40625 " transform="matrix(0.75,0,0,0.75,0,0)"/>
<path style="fill:none;stroke-width:1;stroke-linecap:butt;stroke-linejoin:miter;stroke:rgb(0%,0%,0%);stroke-opacity:1;stroke-miterlimit:2;" d="M 118.520833 394.5 L 118.520833 399.5 " transform="matrix(0.75,0,0,0.75,0,0)"/>
<path style="fill:none;stroke-width:1;stroke-linecap:butt;stroke-linejoin:miter;stroke:rgb(0%,0%,0%);stroke-opacity:1;stroke-miterlimit:2;" d="M 340.28125 394.5 L 340.28125 399.5 " transform="matrix(0.75,0,0,0.75,0,0)"/>
<path style="fill:none;stroke-width:1;stroke-linecap:butt;stroke-linejoin:miter;stroke:rgb(0%,0%,0%);stroke-opacity:1;stroke-miterlimit:2;" d="M 562.046875 394.5 L 562.046875 399.5 " transform="matrix(0.75,0,0,0.75,0,0)"/>
<path style="fill:none;stroke-width:1;stroke-linecap:butt;stroke-linejoin:miter;stroke:rgb(0%,0%,0%);stroke-opacity:1;stroke-miterlimit:2;" d="M 100.5 377.729167 L 95.5 377.729167 " transform="matrix(0.75,0,0,0.75,0,0)"/>
<path style="fill:none;stroke-width:1;stroke-linecap:butt;stroke-linejoin:miter;stroke:rgb(0%,0%,0%);stroke-opacity:1;stroke-miterlimit:2;" d="M 100.5 300.291667 L 95.5 300.291667 " transform="matrix(0.75,0,0,0.75,0,0)"/>
<path style="fill:none;stroke-width:1;stroke-linecap:butt;stroke-linejoin:miter;stroke:rgb(0%,0%,0%);stroke-opacity:1;stroke-miterlimit:2;" d="M 100.5 222.854167 L 95.5 222.854167 " transform="matrix(0.75,0,0,0.75,0,0)"/>
<path style="fill:none;stroke-width:1;stroke-linecap:butt;stroke-linejoin:miter;stroke:rgb(0%,0%,0%);stroke-opacity:1;stroke-miterlimit:2;" d="M 100.5 145.421875 L 95.5 145.421875 " transform="matrix(0.75,0,0,0.75,0,0)"/>
<path style="fill:none;stroke-width:1;stroke-linecap:butt;stroke-linejoin:miter;stroke:rgb(0%,0%,0%);stroke-opacity:1;stroke-miterlimit:2;" d="M 100.5 67.984375 L 95.5 67.984375 " transform="matrix(0.75,0,0,0.75,0,0)"/>
<path style="fill:none;stroke-width:1;stroke-linecap:butt;stroke-linejoin:miter;stroke:rgb(0%,0%,0%);stroke-opacity:1;stroke-miterlimit:2;" d="M 100.5 394 L 584.5 394 " transform="matrix(0.75,0,0,0.75,0,0)"/>
<path style="fill:none;stroke-width:1;stroke-linecap:butt;stroke-linejoin:miter;stroke:rgb(0%,0%,0%);stroke-opacity:1;stroke-miterlimit:2;" d="M 101 394.5 L 101 35.5 " transform="matrix(0.75,0,0,0.75,0,0)"/>
<path style="fill:none;stroke-width:1;stroke-linecap:butt;stroke-linejoin:miter;stroke:rgb(0%,0%,0%);stroke-opacity:1;stroke-miterlimit:2;" d="M 100.5 36 L 584.5 36 " transform="matrix(0.75,0,0,0.75,0,0)"/>
<path style="fill:none;stroke-width:1;stroke-linecap:butt;stroke-linejoin:miter;stroke:rgb(0%,0%,0%);stroke-opacity:1;stroke-miterlimit:2;" d="M 584 394.5 L 584 35.5 " transform="matrix(0.75,0,0,0.75,0,0)"/>
</g>
</svg>
