<?xml version="1.0" encoding="UTF-8"?>
<svg xmlns="http://www.w3.org/2000/svg" xmlns:xlink="http://www.w3.org/1999/xlink" width="450pt" height="338pt" viewBox="0 0 450 338" version="1.1">
<defs>
<g>
<symbol overflow="visible" id="glyph0-0-2f16cb50">
<path style="stroke:none;" d=""/>
</symbol>
<symbol overflow="visible" id="glyph0-1-2f16cb50">
<path style="stroke:none;" d="M 4.78125 -5.25 C 4.78125 -5.9375 4.59375 -7.40625 3.515625 -7.40625 C 2.0625 -7.40625 0.4375 -4.4375 0.4375 -2.03125 C 0.4375 -1.046875 0.75 0.109375 1.703125 0.109375 C 3.1875 0.109375 4.78125 -2.890625 4.78125 -5.25 Z M 4.078125 -5.90625 C 4.078125 -5.390625 4 -4.84375 3.75 -3.8125 L 1.546875 -3.8125 C 1.734375 -4.484375 1.9375 -5.328125 2.359375 -6.0625 C 2.640625 -6.578125 3.03125 -7.171875 3.5 -7.171875 C 4.015625 -7.171875 4.078125 -6.5 4.078125 -5.90625 Z M 3.65625 -3.46875 C 3.53125 -3 3.3125 -2.09375 2.921875 -1.34375 C 2.546875 -0.625 2.15625 -0.109375 1.703125 -0.109375 C 1.359375 -0.109375 1.140625 -0.421875 1.140625 -1.390625 C 1.140625 -1.84375 1.203125 -2.453125 1.46875 -3.46875 Z M 3.65625 -3.46875 "/>
</symbol>
<symbol overflow="visible" id="glyph1-0-2f16cb50">
<path style="stroke:none;" d="M 0.203125 -7.65625 C 0.203125 -7.65625 0.203125 0 0.203125 0 C 0.203125 0 4.9375 0 4.9375 0 C 4.9375 0 4.9375 -7.65625 4.9375 -7.65625 C 4.9375 -7.65625 0.203125 -7.65625 0.203125 -7.65625 Z M 0.75 -0.546875 C 0.75 -0.546875 0.75 -7.109375 0.75 -7.109375 C 0.75 -7.109375 4.390625 -7.109375 4.390625 -7.109375 C 4.390625 -7.109375 4.390625 -0.546875 4.390625 -0.546875 C 4.390625 -0.546875 0.75 -0.546875 0.75 -0.546875 Z M 0.75 -0.546875 "/>
</symbol>
<symbol overflow="visible" id="glyph1-1-2f16cb50">
<path style="stroke:none;" d="M 5.328125 -3.578125 C 5.328125 -1.140625 4.46875 0.15625 2.890625 0.15625 C 1.296875 0.15625 0.453125 -1.140625 0.453125 -3.640625 C 0.453125 -6.140625 1.28125 -7.4375 2.890625 -7.4375 C 4.5 -7.4375 5.328125 -6.15625 5.328125 -3.578125 Z M 4.375 -3.671875 C 4.375 -5.65625 3.890625 -6.625 2.890625 -6.625 C 1.890625 -6.625 1.390625 -5.671875 1.390625 -3.640625 C 1.390625 -1.59375 1.890625 -0.609375 2.859375 -0.609375 C 3.890625 -0.609375 4.375 -1.546875 4.375 -3.671875 Z M 4.375 -3.671875 "/>
</symbol>
<symbol overflow="visible" id="glyph2-0-2f16cb50">
<path style="stroke:none;" d="M 0.203125 -7.65625 C 0.203125 -7.65625 0.203125 0 0.203125 0 C 0.203125 0 4.9375 0 4.9375 0 C 4.9375 0 4.9375 -7.65625 4.9375 -7.65625 C 4.9375 -7.65625 0.203125 -7.65625 0.203125 -7.65625 Z M 0.75 -0.546875 C 0.75 -0.546875 0.75 -7.109375 0.75 -7.109375 C 0.75 -7.109375 4.390625 -7.109375 4.390625 -7.109375 C 4.390625 -7.109375 4.390625 -0.546875 4.390625 -0.546875 C 4.390625 -0.546875 0.75 -0.546875 0.75 -0.546875 Z M 0.75 -0.546875 "/>
</symbol>
<symbol overflow="visible" id="glyph2-1-2f16cb50">
<path style="stroke:none;" d="M 2 0 C 2 0 0.90625 0 0.90625 0 C 0.90625 0 0.90625 -1.09375 0.90625 -1.09375 C 0.90625 -1.09375 2 -1.09375 2 -1.09375 C 2 -1.09375 2 0 2 0 Z M 2 0 "/>
</symbol>
<symbol overflow="visible" id="glyph2-2-2f16cb50">
<path style="stroke:none;" d="M 5.328125 -3.578125 C 5.328125 -1.140625 4.46875 0.15625 2.890625 0.15625 C 1.296875 0.15625 0.453125 -1.140625 0.453125 -3.640625 C 0.453125 -6.140625 1.28125 -7.4375 2.890625 -7.4375 C 4.5 -7.4375 5.328125 -6.15625 5.328125 -3.578125 Z M 4.375 -3.671875 C 4.375 -5.65625 3.890625 -6.625 2.890625 -6.625 C 1.890625 -6.625 1.390625 -5.671875 1.390625 -3.640625 C 1.390625 -1.59375 1.890625 -0.609375 2.859375 -0.609375 C 3.890625 -0.609375 4.375 -1.546875 4.375 -3.671875 Z M 4.375 -3.671875 "/>
</symbol>
<symbol overflow="visible" id="glyph2-3-2f16cb50">
<path style="stroke:none;" d="M 3.640625 0 C 3.640625 0 2.71875 0 2.71875 0 C 2.71875 0 2.71875 -5.296875 2.71875 -5.296875 C 2.71875 -5.296875 1.078125 -5.296875 1.078125 -5.296875 C 1.078125 -5.296875 1.078125 -5.96875 1.078125 -5.96875 C 2.5 -6.140625 2.703125 -6.296875 3.03125 -7.4375 C 3.03125 -7.4375 3.640625 -7.4375 3.640625 -7.4375 C 3.640625 -7.4375 3.640625 0 3.640625 0 Z M 3.640625 0 "/>
</symbol>
<symbol overflow="visible" id="glyph3-0-2f16cb50">
<path style="stroke:none;" d="M 0.203125 -7.65625 C 0.203125 -7.65625 0.203125 0 0.203125 0 C 0.203125 0 4.9375 0 4.9375 0 C 4.9375 0 4.9375 -7.65625 4.9375 -7.65625 C 4.9375 -7.65625 0.203125 -7.65625 0.203125 -7.65625 Z M 0.75 -0.546875 C 0.75 -0.546875 0.75 -7.109375 0.75 -7.109375 C 0.75 -7.109375 4.390625 -7.109375 4.390625 -7.109375 C 4.390625 -7.109375 4.390625 -0.546875 4.390625 -0.546875 C 4.390625 -0.546875 0.75 -0.546875 0.75 -0.546875 Z M 0.75 -0.546875 "/>
</symbol>
<symbol overflow="visible" id="glyph3-1-2f16cb50">
<path style="stroke:none;" d="M 5.328125 -3.578125 C 5.328125 -1.140625 4.46875 0.15625 2.890625 0.15625 C 1.296875 0.15625 0.453125 -1.140625 0.453125 -3.640625 C 0.453125 -6.140625 1.28125 -7.4375 2.890625 -7.4375 C 4.5 -7.4375 5.328125 -6.15625 5.328125 -3.578125 Z M 4.375 -3.671875 C 4.375 -5.65625 3.890625 -6.625 2.890625 -6.625 C 1.890625 -6.625 1.390625 -5.671875 1.390625 -3.640625 C 1.390625 -1.59375 1.890625 -0.609375 2.859375 -0.609375 C 3.890625 -0.609375 4.375 -1.546875 4.375 -3.671875 Z M 4.375 -3.671875 "/>
</symbol>
<symbol overflow="visible" id="glyph4-0-2f16cb50">
<path style="stroke:none;" d="M 0.203125 -7.65625 C 0.203125 -7.65625 0.203125 0 0.203125 0 C 0.203125 0 4.9375 0 4.9375 0 C 4.9375 0 4.9375 -7.65625 4.9375 -7.65625 C 4.9375 -7.65625 0.203125 -7.65625 0.203125 -7.65625 Z M 0.75 -0.546875 C 0.75 -0.546875 0.75 -7.109375 0.75 -7.109375 C 0.75 -7.109375 4.390625 -7.109375 4.390625 -7.109375 C 4.390625 -7.109375 4.390625 -0.546875 4.390625 -0.546875 C 4.390625 -0.546875 0.75 -0.546875 0.75 -0.546875 Z M 0.75 -0.546875 "/>
</symbol>
<symbol overflow="visible" id="glyph4-1-2f16cb50">
<path style="stroke:none;" d="M 2 0 C 2 0 0.90625 0 0.90625 0 C 0.90625 0 0.90625 -1.09375 0.90625 -1.09375 C 0.90625 -1.09375 2 -1.09375 2 -1.09375 C 2 -1.09375 2 0 2 0 Z M 2 0 "/>
</symbol>
<symbol overflow="visible" id="glyph4-2-2f16cb50">
<path style="stroke:none;" d="M 5.390625 -2.46875 C 5.390625 -0.890625 4.34375 0.15625 2.828125 0.15625 C 1.515625 0.15625 0.671875 -0.4375 0.375 -1.90625 C 0.375 -1.90625 1.296875 -1.90625 1.296875 -1.90625 C 1.515625 -1.078125 2 -0.65625 2.8125 -0.65625 C 3.828125 -0.65625 4.4375 -1.265625 4.4375 -2.34375 C 4.4375 -3.4375 3.8125 -4.078125 2.8125 -4.078125 C 2.234375 -4.078125 1.875 -3.90625 1.453125 -3.390625 C 1.453125 -3.390625 0.59375 -3.390625 0.59375 -3.390625 C 0.59375 -3.390625 1.15625 -7.28125 1.15625 -7.28125 C 1.15625 -7.28125 5 -7.28125 5 -7.28125 C 5 -7.28125 5 -6.375 5 -6.375 C 5 -6.375 1.90625 -6.375 1.90625 -6.375 C 1.90625 -6.375 1.609375 -4.453125 1.609375 -4.453125 C 2.03125 -4.765625 2.453125 -4.90625 2.984375 -4.90625 C 4.40625 -4.90625 5.390625 -3.9375 5.390625 -2.46875 Z M 5.390625 -2.46875 "/>
</symbol>
<symbol overflow="visible" id="glyph5-0-2f16cb50">
<path style="stroke:none;" d="M -7.65625 -0.203125 C -7.65625 -0.203125 0 -0.203125 0 -0.203125 C 0 -0.203125 0 -4.9375 0 -4.9375 C 0 -4.9375 -7.65625 -4.9375 -7.65625 -4.9375 C -7.65625 -4.9375 -7.65625 -0.203125 -7.65625 -0.203125 Z M -0.546875 -0.75 C -0.546875 -0.75 -7.109375 -0.75 -7.109375 -0.75 C -7.109375 -0.75 -7.109375 -4.390625 -7.109375 -4.390625 C -7.109375 -4.390625 -0.546875 -4.390625 -0.546875 -4.390625 C -0.546875 -4.390625 -0.546875 -0.75 -0.546875 -0.75 Z M -0.546875 -0.75 "/>
</symbol>
<symbol overflow="visible" id="glyph5-1-2f16cb50">
<path style="stroke:none;" d="M -3.828125 -7 C -1.453125 -7 0 -5.8125 0 -3.890625 C 0 -3.890625 0 -0.9375 0 -0.9375 C 0 -0.9375 -7.65625 -0.9375 -7.65625 -0.9375 C -7.65625 -0.9375 -7.65625 -3.890625 -7.65625 -3.890625 C -7.65625 -5.828125 -6.203125 -7 -3.828125 -7 Z M -3.828125 -6.03125 C -5.78125 -6.03125 -6.796875 -5.234375 -6.796875 -3.71875 C -6.796875 -3.71875 -6.796875 -1.90625 -6.796875 -1.90625 C -6.796875 -1.90625 -0.859375 -1.90625 -0.859375 -1.90625 C -0.859375 -1.90625 -0.859375 -3.71875 -0.859375 -3.71875 C -0.859375 -5.234375 -1.890625 -6.03125 -3.828125 -6.03125 Z M -3.828125 -6.03125 "/>
</symbol>
<symbol overflow="visible" id="glyph6-0-2f16cb50">
<path style="stroke:none;" d="M -7.65625 -0.203125 C -7.65625 -0.203125 0 -0.203125 0 -0.203125 C 0 -0.203125 0 -4.9375 0 -4.9375 C 0 -4.9375 -7.65625 -4.9375 -7.65625 -4.9375 C -7.65625 -4.9375 -7.65625 -0.203125 -7.65625 -0.203125 Z M -0.546875 -0.75 C -0.546875 -0.75 -7.109375 -0.75 -7.109375 -0.75 C -7.109375 -0.75 -7.109375 -4.390625 -7.109375 -4.390625 C -7.109375 -4.390625 -0.546875 -4.390625 -0.546875 -4.390625 C -0.546875 -4.390625 -0.546875 -0.75 -0.546875 -0.75 Z M -0.546875 -0.75 "/>
</symbol>
<symbol overflow="visible" id="glyph6-1-2f16cb50">
<path style="stroke:none;" d="M -2.5 -5.390625 C -2.5 -5.390625 -2.5 -1.328125 -2.5 -1.328125 C -1.234375 -1.359375 -0.65625 -2.03125 -0.65625 -2.953125 C -0.65625 -3.65625 -0.9375 -4.140625 -1.671875 -4.390625 C -1.671875 -4.390625 -1.671875 -5.265625 -1.671875 -5.265625 C -0.5625 -5.046875 0.15625 -4.171875 0.15625 -2.921875 C 0.15625 -1.375 -0.90625 -0.421875 -2.71875 -0.421875 C -4.53125 -0.421875 -5.65625 -1.40625 -5.65625 -2.9375 C -5.65625 -3.96875 -5.109375 -4.8125 -4.203125 -5.171875 C -3.796875 -5.328125 -3.296875 -5.390625 -2.5 -5.390625 Z M -3.28125 -4.453125 C -4.140625 -4.453125 -4.84375 -3.796875 -4.84375 -2.921875 C -4.84375 -2.046875 -4.1875 -1.421875 -3.21875 -1.359375 C -3.21875 -1.359375 -3.21875 -4.4375 -3.21875 -4.4375 C -3.234375 -4.453125 -3.28125 -4.453125 -3.28125 -4.453125 Z M -3.28125 -4.453125 "/>
</symbol>
<symbol overflow="visible" id="glyph6-2-2f16cb50">
<path style="stroke:none;" d="M 0 -5.109375 C 0 -5.109375 0 -4.234375 0 -4.234375 C 0 -4.234375 -3.8125 -4.234375 -3.8125 -4.234375 C -4.46875 -4.234375 -4.890625 -3.796875 -4.890625 -3.109375 C -4.890625 -2.21875 -4.15625 -1.609375 -3.03125 -1.609375 C -3.03125 -1.609375 0 -1.609375 0 -1.609375 C 0 -1.609375 0 -0.734375 0 -0.734375 C 0 -0.734375 -5.5 -0.734375 -5.5 -0.734375 C -5.5 -0.734375 -5.5 -1.546875 -5.5 -1.546875 C -5.5 -1.546875 -4.578125 -1.546875 -4.578125 -1.546875 C -5.34375 -2.03125 -5.65625 -2.546875 -5.65625 -3.375 C -5.65625 -4.4375 -5.078125 -5.109375 -4.15625 -5.109375 C -4.15625 -5.109375 0 -5.109375 0 -5.109375 Z M 0 -5.109375 "/>
</symbol>
<symbol overflow="visible" id="glyph6-3-2f16cb50">
<path style="stroke:none;" d="M 0 -2.671875 C 0.046875 -2.375 0.078125 -2.15625 0.078125 -1.953125 C 0.078125 -1.265625 -0.234375 -0.890625 -0.796875 -0.890625 C -0.796875 -0.890625 -4.78125 -0.890625 -4.78125 -0.890625 C -4.78125 -0.890625 -4.78125 -0.140625 -4.78125 -0.140625 C -4.78125 -0.140625 -5.5 -0.140625 -5.5 -0.140625 C -5.5 -0.140625 -5.5 -0.890625 -5.5 -0.890625 C -5.5 -0.890625 -7.015625 -0.890625 -7.015625 -0.890625 C -7.015625 -0.890625 -7.015625 -1.765625 -7.015625 -1.765625 C -7.015625 -1.765625 -5.5 -1.765625 -5.5 -1.765625 C -5.5 -1.765625 -5.5 -2.671875 -5.5 -2.671875 C -5.5 -2.671875 -4.78125 -2.671875 -4.78125 -2.671875 C -4.78125 -2.671875 -4.78125 -1.765625 -4.78125 -1.765625 C -4.78125 -1.765625 -1.1875 -1.765625 -1.1875 -1.765625 C -0.796875 -1.765625 -0.6875 -1.875 -0.6875 -2.25 C -0.6875 -2.421875 -0.703125 -2.546875 -0.734375 -2.671875 C -0.734375 -2.671875 0 -2.671875 0 -2.671875 Z M 0 -2.671875 "/>
</symbol>
<symbol overflow="visible" id="glyph7-0-2f16cb50">
<path style="stroke:none;" d="M -7.65625 -0.203125 C -7.65625 -0.203125 0 -0.203125 0 -0.203125 C 0 -0.203125 0 -4.9375 0 -4.9375 C 0 -4.9375 -7.65625 -4.9375 -7.65625 -4.9375 C -7.65625 -4.9375 -7.65625 -0.203125 -7.65625 -0.203125 Z M -0.546875 -0.75 C -0.546875 -0.75 -7.109375 -0.75 -7.109375 -0.75 C -7.109375 -0.75 -7.109375 -4.390625 -7.109375 -4.390625 C -7.109375 -4.390625 -0.546875 -4.390625 -0.546875 -4.390625 C -0.546875 -4.390625 -0.546875 -0.75 -0.546875 -0.75 Z M -0.546875 -0.75 "/>
</symbol>
<symbol overflow="visible" id="glyph7-1-2f16cb50">
<path style="stroke:none;" d="M -1.546875 -4.8125 C -0.484375 -4.8125 0.15625 -3.9375 0.15625 -2.546875 C 0.15625 -1.109375 -0.40625 -0.40625 -1.6875 -0.359375 C -1.6875 -0.359375 -1.6875 -1.28125 -1.6875 -1.28125 C -0.84375 -1.390625 -0.65625 -1.84375 -0.65625 -2.625 C -0.65625 -3.390625 -0.953125 -3.90625 -1.46875 -3.90625 C -1.875 -3.90625 -2.046875 -3.671875 -2.1875 -3.0625 C -2.1875 -3.0625 -2.390625 -2.234375 -2.390625 -2.234375 C -2.703125 -0.9375 -3.125 -0.5 -3.984375 -0.5 C -5 -0.5 -5.65625 -1.328125 -5.65625 -2.609375 C -5.65625 -3.875 -5.046875 -4.59375 -3.96875 -4.59375 C -3.96875 -4.59375 -3.96875 -3.671875 -3.96875 -3.671875 C -4.546875 -3.65625 -4.84375 -3.28125 -4.84375 -2.578125 C -4.84375 -1.859375 -4.53125 -1.40625 -4.015625 -1.40625 C -3.640625 -1.40625 -3.40625 -1.71875 -3.234375 -2.421875 C -3.234375 -2.421875 -3.03125 -3.265625 -3.03125 -3.265625 C -2.765625 -4.359375 -2.359375 -4.8125 -1.546875 -4.8125 Z M -1.546875 -4.8125 "/>
</symbol>
<symbol overflow="visible" id="glyph7-2-2f16cb50">
<path style="stroke:none;" d="M 0 -1.609375 C 0 -1.609375 0 -0.734375 0 -0.734375 C 0 -0.734375 -5.5 -0.734375 -5.5 -0.734375 C -5.5 -0.734375 -5.5 -1.609375 -5.5 -1.609375 C -5.5 -1.609375 0 -1.609375 0 -1.609375 Z M -6.328125 -1.71875 C -6.328125 -1.71875 -6.328125 -0.625 -6.328125 -0.625 C -6.328125 -0.625 -7.421875 -0.625 -7.421875 -0.625 C -7.421875 -0.625 -7.421875 -1.71875 -7.421875 -1.71875 C -7.421875 -1.71875 -6.328125 -1.71875 -6.328125 -1.71875 Z M -6.328125 -1.71875 "/>
</symbol>
<symbol overflow="visible" id="glyph7-3-2f16cb50">
<path style="stroke:none;" d="M -5.5 -5.015625 C -5.5 -5.015625 1.15625 -2.578125 1.15625 -2.578125 C 1.9375 -2.28125 2.28125 -1.78125 2.28125 -1.15625 C 2.28125 -0.921875 2.25 -0.75 2.15625 -0.5625 C 2.15625 -0.5625 1.359375 -0.5625 1.359375 -0.5625 C 1.40625 -0.75 1.421875 -0.90625 1.421875 -1.03125 C 1.421875 -1.40625 1.28125 -1.578125 0.890625 -1.734375 C 0.890625 -1.734375 0.015625 -2.0625 0.015625 -2.0625 C 0.015625 -2.0625 -5.5 -0.203125 -5.5 -0.203125 C -5.5 -0.203125 -5.5 -1.140625 -5.5 -1.140625 C -5.5 -1.140625 -1.21875 -2.546875 -1.21875 -2.546875 C -1.21875 -2.546875 -5.5 -4.078125 -5.5 -4.078125 C -5.5 -4.078125 -5.5 -5.015625 -5.5 -5.015625 Z M -5.5 -5.015625 "/>
</symbol>
<symbol overflow="visible" id="glyph8-0-2f16cb50">
<path style="stroke:none;" d="M 0.203125 -7.65625 C 0.203125 -7.65625 0.203125 0 0.203125 0 C 0.203125 0 4.9375 0 4.9375 0 C 4.9375 0 4.9375 -7.65625 4.9375 -7.65625 C 4.9375 -7.65625 0.203125 -7.65625 0.203125 -7.65625 Z M 0.75 -0.546875 C 0.75 -0.546875 0.75 -7.109375 0.75 -7.109375 C 0.75 -7.109375 4.390625 -7.109375 4.390625 -7.109375 C 4.390625 -7.109375 4.390625 -0.546875 4.390625 -0.546875 C 4.390625 -0.546875 0.75 -0.546875 0.75 -0.546875 Z M 0.75 -0.546875 "/>
</symbol>
<symbol overflow="visible" id="glyph8-1-2f16cb50">
<path style="stroke:none;" d="M 5.328125 -3.578125 C 5.328125 -1.140625 4.46875 0.15625 2.890625 0.15625 C 1.296875 0.15625 0.453125 -1.140625 0.453125 -3.640625 C 0.453125 -6.140625 1.28125 -7.4375 2.890625 -7.4375 C 4.5 -7.4375 5.328125 -6.15625 5.328125 -3.578125 Z M 4.375 -3.671875 C 4.375 -5.65625 3.890625 -6.625 2.890625 -6.625 C 1.890625 -6.625 1.390625 -5.671875 1.390625 -3.640625 C 1.390625 -1.59375 1.890625 -0.609375 2.859375 -0.609375 C 3.890625 -0.609375 4.375 -1.546875 4.375 -3.671875 Z M 4.375 -3.671875 "/>
</symbol>
<symbol overflow="visible" id="glyph8-2-2f16cb50">
<path style="stroke:none;" d="M 2 0 C 2 0 0.90625 0 0.90625 0 C 0.90625 0 0.90625 -1.09375 0.90625 -1.09375 C 0.90625 -1.09375 2 -1.09375 2 -1.09375 C 2 -1.09375 2 0 2 0 Z M 2 0 "/>
</symbol>
<symbol overflow="visible" id="glyph8-3-2f16cb50">
<path style="stroke:none;" d="M 3.640625 0 C 3.640625 0 2.71875 0 2.71875 0 C 2.71875 0 2.71875 -5.296875 2.71875 -5.296875 C 2.71875 -5.296875 1.078125 -5.296875 1.078125 -5.296875 C 1.078125 -5.296875 1.078125 -5.96875 1.078125 -5.96875 C 2.5 -6.140625 2.703125 -6.296875 3.03125 -7.4375 C 3.03125 -7.4375 3.640625 -7.4375 3.640625 -7.4375 C 3.640625 -7.4375 3.640625 0 3.640625 0 Z M 3.640625 0 "/>
</symbol>
<symbol overflow="visible" id="glyph9-0-2f16cb50">
<path style="stroke:none;" d="M 0.203125 -7.65625 C 0.203125 -7.65625 0.203125 0 0.203125 0 C 0.203125 0 4.9375 0 4.9375 0 C 4.9375 0 4.9375 -7.65625 4.9375 -7.65625 C 4.9375 -7.65625 0.203125 -7.65625 0.203125 -7.65625 Z M 0.75 -0.546875 C 0.75 -0.546875 0.75 -7.109375 0.75 -7.109375 C 0.75 -7.109375 4.390625 -7.109375 4.390625 -7.109375 C 4.390625 -7.109375 4.390625 -0.546875 4.390625 -0.546875 C 4.390625 -0.546875 0.75 -0.546875 0.75 -0.546875 Z M 0.75 -0.546875 "/>
</symbol>
<symbol overflow="visible" id="glyph9-1-2f16cb50">
<path style="stroke:none;" d="M 5.328125 -3.578125 C 5.328125 -1.140625 4.46875 0.15625 2.890625 0.15625 C 1.296875 0.15625 0.453125 -1.140625 0.453125 -3.640625 C 0.453125 -6.140625 1.28125 -7.4375 2.890625 -7.4375 C 4.5 -7.4375 5.328125 -6.15625 5.328125 -3.578125 Z M 4.375 -3.671875 C 4.375 -5.65625 3.890625 -6.625 2.890625 -6.625 C 1.890625 -6.625 1.390625 -5.671875 1.390625 -3.640625 C 1.390625 -1.59375 1.890625 -0.609375 2.859375 -0.609375 C 3.890625 -0.609375 4.375 -1.546875 4.375 -3.671875 Z M 4.375 -3.671875 "/>
</symbol>
<symbol overflow="visible" id="glyph9-2-2f16cb50">
<path style="stroke:none;" d="M 2 0 C 2 0 0.90625 0 0.90625 0 C 0.90625 0 0.90625 -1.09375 0.90625 -1.09375 C 0.90625 -1.09375 2 -1.09375 2 -1.09375 C 2 -1.09375 2 0 2 0 Z M 2 0 "/>
</symbol>
<symbol overflow="visible" id="glyph10-0-2f16cb50">
<path style="stroke:none;" d="M 0.203125 -7.65625 C 0.203125 -7.65625 0.203125 0 0.203125 0 C 0.203125 0 4.9375 0 4.9375 0 C 4.9375 0 4.9375 -7.65625 4.9375 -7.65625 C 4.9375 -7.65625 0.203125 -7.65625 0.203125 -7.65625 Z M 0.75 -0.546875 C 0.75 -0.546875 0.75 -7.109375 0.75 -7.109375 C 0.75 -7.109375 4.390625 -7.109375 4.390625 -7.109375 C 4.390625 -7.109375 4.390625 -0.546875 4.390625 -0.546875 C 4.390625 -0.546875 0.75 -0.546875 0.75 -0.546875 Z M 0.75 -0.546875 "/>
</symbol>
<symbol overflow="visible" id="glyph10-1-2f16cb50">
<path style="stroke:none;" d="M 5.390625 -2.46875 C 5.390625 -0.890625 4.34375 0.15625 2.828125 0.15625 C 1.515625 0.15625 0.671875 -0.4375 0.375 -1.90625 C 0.375 -1.90625 1.296875 -1.90625 1.296875 -1.90625 C 1.515625 -1.078125 2 -0.65625 2.8125 -0.65625 C 3.828125 -0.65625 4.4375 -1.265625 4.4375 -2.34375 C 4.4375 -3.4375 3.8125 -4.078125 2.8125 -4.078125 C 2.234375 -4.078125 1.875 -3.90625 1.453125 -3.390625 C 1.453125 -3.390625 0.59375 -3.390625 0.59375 -3.390625 C 0.59375 -3.390625 1.15625 -7.28125 1.15625 -7.28125 C 1.15625 -7.28125 5 -7.28125 5 -7.28125 C 5 -7.28125 5 -6.375 5 -6.375 C 5 -6.375 1.90625 -6.375 1.90625 -6.375 C 1.90625 -6.375 1.609375 -4.453125 1.609375 -4.453125 C 2.03125 -4.765625 2.453125 -4.90625 2.984375 -4.90625 C 4.40625 -4.90625 5.390625 -3.9375 5.390625 -2.46875 Z M 5.390625 -2.46875 "/>
</symbol>
<symbol overflow="visible" id="glyph11-0-2f16cb50">
<path style="stroke:none;" d="M 0.203125 -7.65625 C 0.203125 -7.65625 0.203125 0 0.203125 0 C 0.203125 0 4.9375 0 4.9375 0 C 4.9375 0 4.9375 -7.65625 4.9375 -7.65625 C 4.9375 -7.65625 0.203125 -7.65625 0.203125 -7.65625 Z M 0.75 -0.546875 C 0.75 -0.546875 0.75 -7.109375 0.75 -7.109375 C 0.75 -7.109375 4.390625 -7.109375 4.390625 -7.109375 C 4.390625 -7.109375 4.390625 -0.546875 4.390625 -0.546875 C 4.390625 -0.546875 0.75 -0.546875 0.75 -0.546875 Z M 0.75 -0.546875 "/>
</symbol>
<symbol overflow="visible" id="glyph11-1-2f16cb50">
<path style="stroke:none;" d="M 3.640625 0 C 3.640625 0 2.71875 0 2.71875 0 C 2.71875 0 2.71875 -5.296875 2.71875 -5.296875 C 2.71875 -5.296875 1.078125 -5.296875 1.078125 -5.296875 C 1.078125 -5.296875 1.078125 -5.96875 1.078125 -5.96875 C 2.5 -6.140625 2.703125 -6.296875 3.03125 -7.4375 C 3.03125 -7.4375 3.640625 -7.4375 3.640625 -7.4375 C 3.640625 -7.4375 3.640625 0 3.640625 0 Z M 3.640625 0 "/>
</symbol>
<symbol overflow="visible" id="glyph11-2-2f16cb50">
<path style="stroke:none;" d="M 2 0 C 2 0 0.90625 0 0.90625 0 C 0.90625 0 0.90625 -1.09375 0.90625 -1.09375 C 0.90625 -1.09375 2 -1.09375 2 -1.09375 C 2 -1.09375 2 0 2 0 Z M 2 0 "/>
</symbol>
<symbol overflow="visible" id="glyph12-0-2f16cb50">
<path style="stroke:none;" d="M 0.203125 -7.65625 C 0.203125 -7.65625 0.203125 0 0.203125 0 C 0.203125 0 4.9375 0 4.9375 0 C 4.9375 0 4.9375 -7.65625 4.9375 -7.65625 C 4.9375 -7.65625 0.203125 -7.65625 0.203125 -7.65625 Z M 0.75 -0.546875 C 0.75 -0.546875 0.75 -7.109375 0.75 -7.109375 C 0.75 -7.109375 4.390625 -7.109375 4.390625 -7.109375 C 4.390625 -7.109375 4.390625 -0.546875 4.390625 -0.546875 C 4.390625 -0.546875 0.75 -0.546875 0.75 -0.546875 Z M 0.75 -0.546875 "/>
</symbol>
<symbol overflow="visible" id="glyph12-1-2f16cb50">
<path style="stroke:none;" d="M 5.390625 -2.46875 C 5.390625 -0.890625 4.34375 0.15625 2.828125 0.15625 C 1.515625 0.15625 0.671875 -0.4375 0.375 -1.90625 C 0.375 -1.90625 1.296875 -1.90625 1.296875 -1.90625 C 1.515625 -1.078125 2 -0.65625 2.8125 -0.65625 C 3.828125 -0.65625 4.4375 -1.265625 4.4375 -2.34375 C 4.4375 -3.4375 3.8125 -4.078125 2.8125 -4.078125 C 2.234375 -4.078125 1.875 -3.90625 1.453125 -3.390625 C 1.453125 -3.390625 0.59375 -3.390625 0.59375 -3.390625 C 0.59375 -3.390625 1.15625 -7.28125 1.15625 -7.28125 C 1.15625 -7.28125 5 -7.28125 5 -7.28125 C 5 -7.28125 5 -6.375 5 -6.375 C 5 -6.375 1.90625 -6.375 1.90625 -6.375 C 1.90625 -6.375 1.609375 -4.453125 1.609375 -4.453125 C 2.03125 -4.765625 2.453125 -4.90625 2.984375 -4.90625 C 4.40625 -4.90625 5.390625 -3.9375 5.390625 -2.46875 Z M 5.390625 -2.46875 "/>
</symbol>
<symbol overflow="visible" id="glyph13-0-2f16cb50">
<path style="stroke:none;" d=""/>
</symbol>
<symbol overflow="visible" id="glyph13-1-2f16cb50">
<path style="stroke:none;" d="M 5.515625 -1.5 C 5.515625 -1.609375 5.421875 -1.609375 5.359375 -1.609375 C 5.234375 -1.609375 5.21875 -1.59375 5.15625 -1.359375 C 5.015625 -0.78125 4.8125 -0.109375 4.453125 -0.109375 C 4.171875 -0.109375 4.171875 -0.40625 4.171875 -0.546875 C 4.171875 -0.625 4.171875 -0.78125 4.25 -1.078125 L 4.96875 -3.9375 C 5.015625 -4.078125 5.015625 -4.109375 5.015625 -4.15625 C 5.015625 -4.375 4.828125 -4.4375 4.71875 -4.4375 C 4.390625 -4.4375 4.3125 -4.078125 4.3125 -4.015625 C 4.109375 -4.46875 3.765625 -4.640625 3.4375 -4.640625 C 2.265625 -4.640625 1.03125 -3.046875 1.03125 -1.515625 C 1.03125 -0.625 1.515625 0.109375 2.296875 0.109375 C 2.671875 0.109375 3.140625 -0.109375 3.5625 -0.625 C 3.671875 -0.109375 4.0625 0.109375 4.4375 0.109375 C 4.8125 0.109375 5.046875 -0.140625 5.203125 -0.46875 C 5.390625 -0.875 5.515625 -1.5 5.515625 -1.5 Z M 3.640625 -1.296875 C 3.546875 -0.96875 2.890625 -0.109375 2.328125 -0.109375 C 1.828125 -0.109375 1.75 -0.734375 1.75 -1.046875 C 1.75 -1.578125 2.0625 -2.796875 2.25 -3.25 C 2.515625 -3.890625 3 -4.40625 3.4375 -4.40625 C 3.890625 -4.40625 4.15625 -3.859375 4.15625 -3.421875 C 4.15625 -3.421875 4.140625 -3.34375 4.125 -3.28125 Z M 3.640625 -1.296875 "/>
</symbol>
<symbol overflow="visible" id="glyph13-2-2f16cb50">
<path style="stroke:none;" d="M 4.8125 -3 C 4.8125 -4.125 4.1875 -4.640625 3.5625 -4.640625 C 3.15625 -4.640625 2.796875 -4.421875 2.453125 -4.078125 L 3.1875 -7.03125 C 3.1875 -7.0625 3.21875 -7.15625 3.21875 -7.15625 C 3.21875 -7.25 3.15625 -7.28125 3.0625 -7.28125 C 3.03125 -7.28125 2.921875 -7.28125 2.890625 -7.265625 L 1.859375 -7.1875 C 1.734375 -7.171875 1.609375 -7.15625 1.609375 -6.96875 C 1.609375 -6.84375 1.71875 -6.84375 1.875 -6.84375 C 2.375 -6.84375 2.390625 -6.765625 2.390625 -6.671875 C 2.390625 -6.640625 2.359375 -6.484375 2.359375 -6.484375 L 1.328125 -2.34375 C 1.3125 -2.3125 1.203125 -1.875 1.203125 -1.484375 C 1.203125 -0.59375 1.65625 0.109375 2.421875 0.109375 C 3.59375 0.109375 4.8125 -1.453125 4.8125 -3 Z M 3.53125 -1.109375 C 3.40625 -0.84375 2.953125 -0.109375 2.421875 -0.109375 C 2.15625 -0.109375 1.8125 -0.34375 1.8125 -1.125 C 1.8125 -1.578125 1.90625 -1.953125 2.203125 -3.15625 C 2.28125 -3.40625 2.28125 -3.421875 2.4375 -3.640625 C 2.734375 -4.046875 3.140625 -4.40625 3.53125 -4.40625 C 4.015625 -4.40625 4.109375 -3.8125 4.109375 -3.46875 C 4.109375 -3.03125 3.828125 -1.78125 3.53125 -1.109375 Z M 3.53125 -1.109375 "/>
</symbol>
<symbol overflow="visible" id="glyph14-0-2f16cb50">
<path style="stroke:none;" d=""/>
</symbol>
<symbol overflow="visible" id="glyph14-1-2f16cb50">
<path style="stroke:none;" d="M 7.578125 -3.640625 C 7.578125 -3.765625 7.484375 -3.859375 7.375 -3.859375 L 0.796875 -3.859375 C 0.6875 -3.859375 0.59375 -3.765625 0.59375 -3.640625 C 0.59375 -3.53125 0.6875 -3.4375 0.796875 -3.4375 L 7.375 -3.4375 C 7.484375 -3.4375 7.578125 -3.53125 7.578125 -3.640625 Z M 7.578125 -1.609375 C 7.578125 -1.71875 7.484375 -1.8125 7.375 -1.8125 L 0.796875 -1.8125 C 0.6875 -1.8125 0.59375 -1.71875 0.59375 -1.609375 C 0.59375 -1.484375 0.6875 -1.390625 0.796875 -1.390625 L 7.375 -1.390625 C 7.484375 -1.390625 7.578125 -1.484375 7.578125 -1.609375 Z M 7.578125 -1.609375 "/>
</symbol>
<symbol overflow="visible" id="glyph14-2-2f16cb50">
<path style="stroke:none;" d="M 4.40625 0 L 4.40625 -0.328125 L 4.0625 -0.328125 C 3.125 -0.328125 3.09375 -0.4375 3.09375 -0.828125 L 3.09375 -6.71875 C 3.09375 -6.96875 3.09375 -7 2.84375 -7 C 2.1875 -6.328125 1.265625 -6.328125 0.9375 -6.328125 L 0.9375 -6 C 1.140625 -6 1.765625 -6 2.3125 -6.265625 L 2.3125 -0.828125 C 2.3125 -0.453125 2.28125 -0.328125 1.328125 -0.328125 L 1 -0.328125 L 1 0 C 1.359375 -0.03125 2.28125 -0.03125 2.703125 -0.03125 C 3.125 -0.03125 4.03125 -0.03125 4.40625 0 Z M 4.40625 0 "/>
</symbol>
<symbol overflow="visible" id="glyph14-3-2f16cb50">
<path style="stroke:none;" d="M 4.796875 -1.796875 C 4.796875 -2.65625 4.140625 -3.46875 3.046875 -3.703125 C 3.90625 -3.984375 4.515625 -4.71875 4.515625 -5.546875 C 4.515625 -6.40625 3.59375 -7 2.578125 -7 C 1.515625 -7 0.71875 -6.359375 0.71875 -5.5625 C 0.71875 -5.21875 0.953125 -5.015625 1.265625 -5.015625 C 1.578125 -5.015625 1.796875 -5.25 1.796875 -5.546875 C 1.796875 -6.078125 1.296875 -6.078125 1.140625 -6.078125 C 1.46875 -6.59375 2.15625 -6.734375 2.546875 -6.734375 C 2.96875 -6.734375 3.546875 -6.5 3.546875 -5.546875 C 3.546875 -5.421875 3.53125 -4.8125 3.25 -4.359375 C 2.9375 -3.859375 2.578125 -3.828125 2.328125 -3.8125 C 2.234375 -3.796875 1.984375 -3.78125 1.90625 -3.78125 C 1.828125 -3.765625 1.75 -3.765625 1.75 -3.65625 C 1.75 -3.53125 1.828125 -3.53125 2 -3.53125 L 2.46875 -3.53125 C 3.328125 -3.53125 3.71875 -2.828125 3.71875 -1.796875 C 3.71875 -0.375 3 -0.0625 2.53125 -0.0625 C 2.078125 -0.0625 1.296875 -0.234375 0.921875 -0.859375 C 1.296875 -0.8125 1.609375 -1.046875 1.609375 -1.4375 C 1.609375 -1.8125 1.328125 -2.03125 1.03125 -2.03125 C 0.78125 -2.03125 0.4375 -1.875 0.4375 -1.421875 C 0.4375 -0.46875 1.421875 0.234375 2.5625 0.234375 C 3.84375 0.234375 4.796875 -0.71875 4.796875 -1.796875 Z M 4.796875 -1.796875 "/>
</symbol>
<symbol overflow="visible" id="glyph14-4-2f16cb50">
<path style="stroke:none;" d="M 2.125 -0.015625 C 2.125 -0.703125 1.875 -1.109375 1.453125 -1.109375 C 1.109375 -1.109375 0.90625 -0.84375 0.90625 -0.5625 C 0.90625 -0.265625 1.109375 0 1.453125 0 C 1.578125 0 1.71875 -0.046875 1.828125 -0.140625 C 1.859375 -0.15625 1.875 -0.171875 1.875 -0.171875 C 1.875 -0.171875 1.90625 -0.15625 1.90625 -0.015625 C 1.90625 0.765625 1.53125 1.390625 1.1875 1.75 C 1.078125 1.859375 1.078125 1.875 1.078125 1.90625 C 1.078125 1.984375 1.125 2.03125 1.171875 2.03125 C 1.296875 2.03125 2.125 1.21875 2.125 -0.015625 Z M 2.125 -0.015625 "/>
</symbol>
<symbol overflow="visible" id="glyph14-5-2f16cb50">
<path style="stroke:none;" d="M 4.71875 -1.828125 L 4.453125 -1.828125 C 4.40625 -1.515625 4.328125 -1.046875 4.21875 -0.890625 C 4.140625 -0.8125 3.453125 -0.8125 3.21875 -0.8125 L 1.328125 -0.8125 L 2.453125 -1.890625 C 4.078125 -3.34375 4.71875 -3.90625 4.71875 -4.953125 C 4.71875 -6.15625 3.765625 -7 2.484375 -7 C 1.296875 -7 0.53125 -6.03125 0.53125 -5.09375 C 0.53125 -4.5 1.046875 -4.5 1.078125 -4.5 C 1.265625 -4.5 1.625 -4.625 1.625 -5.0625 C 1.625 -5.328125 1.4375 -5.609375 1.078125 -5.609375 C 0.984375 -5.609375 0.96875 -5.609375 0.9375 -5.59375 C 1.171875 -6.28125 1.75 -6.671875 2.359375 -6.671875 C 3.3125 -6.671875 3.765625 -5.8125 3.765625 -4.953125 C 3.765625 -4.109375 3.234375 -3.28125 2.65625 -2.640625 L 0.640625 -0.390625 C 0.53125 -0.265625 0.53125 -0.25 0.53125 0 L 4.421875 0 Z M 4.71875 -1.828125 "/>
</symbol>
<symbol overflow="visible" id="glyph15-0-2f16cb50">
<path style="stroke:none;" d=""/>
</symbol>
<symbol overflow="visible" id="glyph15-1-2f16cb50">
<path style="stroke:none;" d="M 5.515625 -1.5 C 5.515625 -1.609375 5.421875 -1.609375 5.359375 -1.609375 C 5.234375 -1.609375 5.21875 -1.59375 5.15625 -1.359375 C 5.015625 -0.78125 4.8125 -0.109375 4.453125 -0.109375 C 4.171875 -0.109375 4.171875 -0.40625 4.171875 -0.546875 C 4.171875 -0.625 4.171875 -0.78125 4.25 -1.078125 L 4.96875 -3.9375 C 5.015625 -4.078125 5.015625 -4.109375 5.015625 -4.15625 C 5.015625 -4.375 4.828125 -4.4375 4.71875 -4.4375 C 4.390625 -4.4375 4.3125 -4.078125 4.3125 -4.015625 C 4.109375 -4.46875 3.765625 -4.640625 3.4375 -4.640625 C 2.265625 -4.640625 1.03125 -3.046875 1.03125 -1.515625 C 1.03125 -0.625 1.515625 0.109375 2.296875 0.109375 C 2.671875 0.109375 3.140625 -0.109375 3.5625 -0.625 C 3.671875 -0.109375 4.0625 0.109375 4.4375 0.109375 C 4.8125 0.109375 5.046875 -0.140625 5.203125 -0.46875 C 5.390625 -0.875 5.515625 -1.5 5.515625 -1.5 Z M 3.640625 -1.296875 C 3.546875 -0.96875 2.890625 -0.109375 2.328125 -0.109375 C 1.828125 -0.109375 1.75 -0.734375 1.75 -1.046875 C 1.75 -1.578125 2.0625 -2.796875 2.25 -3.25 C 2.515625 -3.890625 3 -4.40625 3.4375 -4.40625 C 3.890625 -4.40625 4.15625 -3.859375 4.15625 -3.421875 C 4.15625 -3.421875 4.140625 -3.34375 4.125 -3.28125 Z M 3.640625 -1.296875 "/>
</symbol>
<symbol overflow="visible" id="glyph15-2-2f16cb50">
<path style="stroke:none;" d="M 4.8125 -3 C 4.8125 -4.125 4.1875 -4.640625 3.5625 -4.640625 C 3.15625 -4.640625 2.796875 -4.421875 2.453125 -4.078125 L 3.1875 -7.03125 C 3.1875 -7.0625 3.21875 -7.15625 3.21875 -7.15625 C 3.21875 -7.25 3.15625 -7.28125 3.0625 -7.28125 C 3.03125 -7.28125 2.921875 -7.28125 2.890625 -7.265625 L 1.859375 -7.1875 C 1.734375 -7.171875 1.609375 -7.15625 1.609375 -6.96875 C 1.609375 -6.84375 1.71875 -6.84375 1.875 -6.84375 C 2.375 -6.84375 2.390625 -6.765625 2.390625 -6.671875 C 2.390625 -6.640625 2.359375 -6.484375 2.359375 -6.484375 L 1.328125 -2.34375 C 1.3125 -2.3125 1.203125 -1.875 1.203125 -1.484375 C 1.203125 -0.59375 1.65625 0.109375 2.421875 0.109375 C 3.59375 0.109375 4.8125 -1.453125 4.8125 -3 Z M 3.53125 -1.109375 C 3.40625 -0.84375 2.953125 -0.109375 2.421875 -0.109375 C 2.15625 -0.109375 1.8125 -0.34375 1.8125 -1.125 C 1.8125 -1.578125 1.90625 -1.953125 2.203125 -3.15625 C 2.28125 -3.40625 2.28125 -3.421875 2.4375 -3.640625 C 2.734375 -4.046875 3.140625 -4.40625 3.53125 -4.40625 C 4.015625 -4.40625 4.109375 -3.8125 4.109375 -3.46875 C 4.109375 -3.03125 3.828125 -1.78125 3.53125 -1.109375 Z M 3.53125 -1.109375 "/>
</symbol>
<symbol overflow="visible" id="glyph16-0-2f16cb50">
<path style="stroke:none;" d=""/>
</symbol>
<symbol overflow="visible" id="glyph16-1-2f16cb50">
<path style="stroke:none;" d="M 7.578125 -3.640625 C 7.578125 -3.765625 7.484375 -3.859375 7.375 -3.859375 L 0.796875 -3.859375 C 0.6875 -3.859375 0.59375 -3.765625 0.59375 -3.640625 C 0.59375 -3.53125 0.6875 -3.4375 0.796875 -3.4375 L 7.375 -3.4375 C 7.484375 -3.4375 7.578125 -3.53125 7.578125 -3.640625 Z M 7.578125 -1.609375 C 7.578125 -1.71875 7.484375 -1.8125 7.375 -1.8125 L 0.796875 -1.8125 C 0.6875 -1.8125 0.59375 -1.71875 0.59375 -1.609375 C 0.59375 -1.484375 0.6875 -1.390625 0.796875 -1.390625 L 7.375 -1.390625 C 7.484375 -1.390625 7.578125 -1.484375 7.578125 -1.609375 Z M 7.578125 -1.609375 "/>
</symbol>
<symbol overflow="visible" id="glyph16-2-2f16cb50">
<path style="stroke:none;" d="M 4.71875 -1.828125 L 4.453125 -1.828125 C 4.40625 -1.515625 4.328125 -1.046875 4.21875 -0.890625 C 4.140625 -0.8125 3.453125 -0.8125 3.21875 -0.8125 L 1.328125 -0.8125 L 2.453125 -1.890625 C 4.078125 -3.34375 4.71875 -3.90625 4.71875 -4.953125 C 4.71875 -6.15625 3.765625 -7 2.484375 -7 C 1.296875 -7 0.53125 -6.03125 0.53125 -5.09375 C 0.53125 -4.5 1.046875 -4.5 1.078125 -4.5 C 1.265625 -4.5 1.625 -4.625 1.625 -5.0625 C 1.625 -5.328125 1.4375 -5.609375 1.078125 -5.609375 C 0.984375 -5.609375 0.96875 -5.609375 0.9375 -5.59375 C 1.171875 -6.28125 1.75 -6.671875 2.359375 -6.671875 C 3.3125 -6.671875 3.765625 -5.8125 3.765625 -4.953125 C 3.765625 -4.109375 3.234375 -3.28125 2.65625 -2.640625 L 0.640625 -0.390625 C 0.53125 -0.265625 0.53125 -0.25 0.53125 0 L 4.421875 0 Z M 4.71875 -1.828125 "/>
</symbol>
<symbol overflow="visible" id="glyph16-3-2f16cb50">
<path style="stroke:none;" d="M 2.125 -0.015625 C 2.125 -0.703125 1.875 -1.109375 1.453125 -1.109375 C 1.109375 -1.109375 0.90625 -0.84375 0.90625 -0.5625 C 0.90625 -0.265625 1.109375 0 1.453125 0 C 1.578125 0 1.71875 -0.046875 1.828125 -0.140625 C 1.859375 -0.15625 1.875 -0.171875 1.875 -0.171875 C 1.875 -0.171875 1.90625 -0.15625 1.90625 -0.015625 C 1.90625 0.765625 1.53125 1.390625 1.1875 1.75 C 1.078125 1.859375 1.078125 1.875 1.078125 1.90625 C 1.078125 1.984375 1.125 2.03125 1.171875 2.03125 C 1.296875 2.03125 2.125 1.21875 2.125 -0.015625 Z M 2.125 -0.015625 "/>
</symbol>
<symbol overflow="visible" id="glyph16-4-2f16cb50">
<path style="stroke:none;" d="M 4.796875 -1.796875 C 4.796875 -2.65625 4.140625 -3.46875 3.046875 -3.703125 C 3.90625 -3.984375 4.515625 -4.71875 4.515625 -5.546875 C 4.515625 -6.40625 3.59375 -7 2.578125 -7 C 1.515625 -7 0.71875 -6.359375 0.71875 -5.5625 C 0.71875 -5.21875 0.953125 -5.015625 1.265625 -5.015625 C 1.578125 -5.015625 1.796875 -5.25 1.796875 -5.546875 C 1.796875 -6.078125 1.296875 -6.078125 1.140625 -6.078125 C 1.46875 -6.59375 2.15625 -6.734375 2.546875 -6.734375 C 2.96875 -6.734375 3.546875 -6.5 3.546875 -5.546875 C 3.546875 -5.421875 3.53125 -4.8125 3.25 -4.359375 C 2.9375 -3.859375 2.578125 -3.828125 2.328125 -3.8125 C 2.234375 -3.796875 1.984375 -3.78125 1.90625 -3.78125 C 1.828125 -3.765625 1.75 -3.765625 1.75 -3.65625 C 1.75 -3.53125 1.828125 -3.53125 2 -3.53125 L 2.46875 -3.53125 C 3.328125 -3.53125 3.71875 -2.828125 3.71875 -1.796875 C 3.71875 -0.375 3 -0.0625 2.53125 -0.0625 C 2.078125 -0.0625 1.296875 -0.234375 0.921875 -0.859375 C 1.296875 -0.8125 1.609375 -1.046875 1.609375 -1.4375 C 1.609375 -1.8125 1.328125 -2.03125 1.03125 -2.03125 C 0.78125 -2.03125 0.4375 -1.875 0.4375 -1.421875 C 0.4375 -0.46875 1.421875 0.234375 2.5625 0.234375 C 3.84375 0.234375 4.796875 -0.71875 4.796875 -1.796875 Z M 4.796875 -1.796875 "/>
</symbol>
</g>
<clipPath id="clip1-2f16cb50">
  <path d="M 49.5 135 L 438 135 L 438 140 L 49.5 140 Z M 49.5 135 "/>
</clipPath>
<clipPath id="clip2-2f16cb50">
  <path d="M 49.5 14 L 438 14 L 438 294 L 49.5 294 Z M 49.5 14 "/>
</clipPath>
</defs>
<g id="surface1-2f16cb50">
<path style=" stroke:none;fill-rule:nonzero;fill:rgb(100%,100%,100%);fill-opacity:1;" d="M 0 0 L 450 0 L 450 337.5 L 0 337.5 Z M 0 0 "/>
<path style=" stroke:none;fill-rule:nonzero;fill:rgb(100%,100%,100%);fill-opacity:1;" d="M 49.5 295.5 L 438 295.5 L 438 12 L 49.5 12 Z M 49.5 295.5 "/>
<path style="fill:none;stroke-width:1;stroke-linecap:butt;stroke-linejoin:miter;stroke:rgb(0%,0%,0%);stroke-opacity:0.12;stroke-miterlimit:2;" d="M 66 394 L 66 16 " transform="matrix(0.75,0,0,0.75,0,0)"/>
<path style="fill:none;stroke-width:1;stroke-linecap:butt;stroke-linejoin:miter;stroke:rgb(0%,0%,0%);stroke-opacity:0.12;stroke-miterlimit:2;" d="M 325 394 L 325 16 " transform="matrix(0.75,0,0,0.75,0,0)"/>
<path style="fill:none;stroke-width:1;stroke-linecap:butt;stroke-linejoin:miter;stroke:rgb(0%,0%,0%);stroke-opacity:0.12;stroke-miterlimit:2;" d="M 584 394 L 584 16 " transform="matrix(0.75,0,0,0.75,0,0)"/>
<path style="fill:none;stroke-width:1;stroke-linecap:butt;stroke-linejoin:miter;stroke:rgb(0%,0%,0%);stroke-opacity:0.12;stroke-miterlimit:2;" d="M 66 376.817708 L 584 376.817708 " transform="matrix(0.75,0,0,0.75,0,0)"/>
<path style="fill:none;stroke-width:1;stroke-linecap:butt;stroke-linejoin:miter;stroke:rgb(0%,0%,0%);stroke-opacity:0.12;stroke-miterlimit:2;" d="M 66 280.166667 L 584 280.166667 " transform="matrix(0.75,0,0,0.75,0,0)"/>
<path style="fill:none;stroke-width:1;stroke-linecap:butt;stroke-linejoin:miter;stroke:rgb(0%,0%,0%);stroke-opacity:0.12;stroke-miterlimit:2;" d="M 66 183.520833 L 584 183.520833 " transform="matrix(0.75,0,0,0.75,0,0)"/>
<path style="fill:none;stroke-width:1;stroke-linecap:butt;stroke-linejoin:miter;stroke:rgb(0%,0%,0%);stroke-opacity:0.12;stroke-miterlimit:2;" d="M 66 86.869792 L 584 86.869792 " transform="matrix(0.75,0,0,0.75,0,0)"/>
<g style="fill:rgb(0%,0%,0%);fill-opacity:1;">
  <use xlink:href="#glyph0-1-2f16cb50" x="241.287758" y="324.445496"/>
</g>
<g style="fill:rgb(0%,0%,0%);fill-opacity:1;">
  <use xlink:href="#glyph1-1-2f16cb50" x="42.20252" y="311.443497"/>
</g>
<g style="fill:rgb(0%,0%,0%);fill-opacity:1;">
  <use xlink:href="#glyph2-1-2f16cb50" x="48.040512" y="311.443497"/>
</g>
<g style="fill:rgb(0%,0%,0%);fill-opacity:1;">
  <use xlink:href="#glyph3-1-2f16cb50" x="50.959517" y="311.443497"/>
</g>
<g style="fill:rgb(0%,0%,0%);fill-opacity:1;">
  <use xlink:href="#glyph2-2-2f16cb50" x="236.452492" y="311.443497"/>
</g>
<g style="fill:rgb(0%,0%,0%);fill-opacity:1;">
  <use xlink:href="#glyph4-1-2f16cb50" x="242.290489" y="311.443497"/>
</g>
<g style="fill:rgb(0%,0%,0%);fill-opacity:1;">
  <use xlink:href="#glyph4-2-2f16cb50" x="245.209511" y="311.443497"/>
</g>
<g style="fill:rgb(0%,0%,0%);fill-opacity:1;">
  <use xlink:href="#glyph2-3-2f16cb50" x="430.702515" y="311.443497"/>
</g>
<g style="fill:rgb(0%,0%,0%);fill-opacity:1;">
  <use xlink:href="#glyph2-1-2f16cb50" x="436.540512" y="311.443497"/>
</g>
<g style="fill:rgb(0%,0%,0%);fill-opacity:1;">
  <use xlink:href="#glyph2-2-2f16cb50" x="439.459488" y="311.443497"/>
</g>
<g style="fill:rgb(0%,0%,0%);fill-opacity:1;">
  <use xlink:href="#glyph5-1-2f16cb50" x="21.366008" y="171.25351"/>
</g>
<g style="fill:rgb(0%,0%,0%);fill-opacity:1;">
  <use xlink:href="#glyph6-1-2f16cb50" x="21.366008" y="163.672497"/>
</g>
<g style="fill:rgb(0%,0%,0%);fill-opacity:1;">
  <use xlink:href="#glyph6-2-2f16cb50" x="21.366008" y="157.834488"/>
</g>
<g style="fill:rgb(0%,0%,0%);fill-opacity:1;">
  <use xlink:href="#glyph7-1-2f16cb50" x="21.366008" y="151.996502"/>
</g>
<g style="fill:rgb(0%,0%,0%);fill-opacity:1;">
  <use xlink:href="#glyph7-2-2f16cb50" x="21.366008" y="146.746502"/>
</g>
<g style="fill:rgb(0%,0%,0%);fill-opacity:1;">
  <use xlink:href="#glyph6-3-2f16cb50" x="21.366008" y="144.415489"/>
</g>
<g style="fill:rgb(0%,0%,0%);fill-opacity:1;">
  <use xlink:href="#glyph7-3-2f16cb50" x="21.366008" y="141.496479"/>
</g>
<g style="fill:rgb(0%,0%,0%);fill-opacity:1;">
  <use xlink:href="#glyph8-1-2f16cb50" x="27.405001" y="286.44088"/>
</g>
<g style="fill:rgb(0%,0%,0%);fill-opacity:1;">
  <use xlink:href="#glyph8-2-2f16cb50" x="33.243004" y="286.44088"/>
</g>
<g style="fill:rgb(0%,0%,0%);fill-opacity:1;">
  <use xlink:href="#glyph3-1-2f16cb50" x="36.161997" y="286.44088"/>
</g>
<g style="fill:rgb(0%,0%,0%);fill-opacity:1;">
  <use xlink:href="#glyph9-1-2f16cb50" x="27.405001" y="213.953728"/>
</g>
<g style="fill:rgb(0%,0%,0%);fill-opacity:1;">
  <use xlink:href="#glyph9-2-2f16cb50" x="33.243004" y="213.953728"/>
</g>
<g style="fill:rgb(0%,0%,0%);fill-opacity:1;">
  <use xlink:href="#glyph10-1-2f16cb50" x="36.161997" y="213.953728"/>
</g>
<g style="fill:rgb(0%,0%,0%);fill-opacity:1;">
  <use xlink:href="#glyph8-3-2f16cb50" x="27.405001" y="141.466644"/>
</g>
<g style="fill:rgb(0%,0%,0%);fill-opacity:1;">
  <use xlink:href="#glyph8-2-2f16cb50" x="33.243004" y="141.466644"/>
</g>
<g style="fill:rgb(0%,0%,0%);fill-opacity:1;">
  <use xlink:href="#glyph3-1-2f16cb50" x="36.161997" y="141.466644"/>
</g>
<g style="fill:rgb(0%,0%,0%);fill-opacity:1;">
  <use xlink:href="#glyph11-1-2f16cb50" x="27.405001" y="68.979527"/>
</g>
<g style="fill:rgb(0%,0%,0%);fill-opacity:1;">
  <use xlink:href="#glyph11-2-2f16cb50" x="33.243004" y="68.979527"/>
</g>
<g style="fill:rgb(0%,0%,0%);fill-opacity:1;">
  <use xlink:href="#glyph12-1-2f16cb50" x="36.161997" y="68.979527"/>
</g>
<g clip-path="url(#clip1-2f16cb50)" clip-rule="nonzero">
<path style="fill:none;stroke-width:5;stroke-linecap:butt;stroke-linejoin:miter;stroke:rgb(0%,44.705883%,69.803923%);stroke-opacity:1;stroke-miterlimit:2;" d="M 66 183.520833 L 584 183.520833 " transform="matrix(0.75,0,0,0.75,0,0)"/>
</g>
<g clip-path="url(#clip2-2f16cb50)" clip-rule="nonzero">
<path style="fill:none;stroke-width:5;stroke-linecap:butt;stroke-linejoin:miter;stroke:rgb(90.196079%,62.352943%,0%);stroke-opacity:1;stroke-miterlimit:2;" d="M 66 376.817708 L 66.84375 376.8125 L 67.6875 376.791667 L 68.53125 376.765625 L 69.375 376.71875 L 77.166667 375.765625 L 84.963542 373.822917 L 88.864583 372.5 L 92.760417 370.947917 L 96.65625 369.171875 L 100.557292 367.182292 L 105.239583 364.515625 L 109.927083 361.552083 L 114.609375 358.307292 L 119.296875 354.791667 L 127.21875 348.25 L 135.140625 341.010417 L 143.744792 332.40625 L 152.348958 323.104167 L 160.286458 313.958333 L 168.21875 304.317708 L 176.723958 293.489583 L 185.229167 282.213542 L 195.083333 268.666667 L 204.9375 254.697917 L 222.453125 229.125 L 237.8125 206.270833 L 254.5625 181.338542 L 271.40625 156.713542 L 280.71875 143.46875 L 290.03125 130.588542 L 298.890625 118.75 L 307.75 107.380208 L 316.963542 96.135417 L 326.177083 85.557292 L 333.932292 77.223958 L 341.6875 69.46875 L 346.421875 65.036458 L 351.15625 60.84375 L 355.890625 56.90625 L 360.625 53.229167 L 364.963542 50.098958 L 369.296875 47.208333 L 373.635417 44.567708 L 377.973958 42.177083 L 381.979167 40.203125 L 385.984375 38.458333 L 389.989583 36.953125 L 393.994792 35.6875 L 398.052083 34.661458 L 402.109375 33.895833 L 406.166667 33.40625 L 410.223958 33.1875 L 414.770833 33.276042 L 419.317708 33.734375 L 423.864583 34.567708 L 428.411458 35.78125 L 432.53125 37.21875 L 436.651042 38.989583 L 440.770833 41.09375 L 444.890625 43.541667 L 449.609375 46.776042 L 454.328125 50.484375 L 459.046875 54.666667 L 463.765625 59.34375 L 468.130208 64.119792 L 472.5 69.338542 L 476.869792 75 L 481.234375 81.114583 L 485.541667 87.598958 L 489.848958 94.541667 L 494.15625 101.953125 L 498.463542 109.838542 L 502.640625 117.953125 L 506.822917 126.53125 L 511.005208 135.578125 L 515.1875 145.104167 L 519.473958 155.369792 L 523.760417 166.151042 L 528.046875 177.458333 L 532.328125 189.302083 L 537.026042 202.890625 L 541.723958 217.145833 L 546.416667 232.0625 L 551.114583 247.661458 L 554.526042 259.427083 L 557.9375 271.557292 L 561.348958 284.057292 L 564.760417 296.9375 L 568.166667 310.197917 L 571.578125 323.838542 L 574.989583 337.869792 L 578.401042 352.291667 L 579.802083 358.322917 L 581.203125 364.421875 L 582.598958 370.583333 L 584 376.817708 " transform="matrix(0.75,0,0,0.75,0,0)"/>
<path style="fill:none;stroke-width:5;stroke-linecap:butt;stroke-linejoin:miter;stroke:rgb(0%,61.960787%,45.09804%);stroke-opacity:1;stroke-miterlimit:2;" d="M 66 376.817708 L 66.84375 373.057292 L 67.6875 369.317708 L 68.53125 365.604167 L 69.375 361.911458 L 73.270833 345.166667 L 77.166667 328.942708 L 81.067708 313.21875 L 84.963542 298 L 88.864583 283.28125 L 92.760417 269.046875 L 96.65625 255.302083 L 100.557292 242.036458 L 105.239583 226.713542 L 109.927083 212.067708 L 114.609375 198.078125 L 119.296875 184.744792 L 123.255208 173.973958 L 127.21875 163.651042 L 131.177083 153.78125 L 135.140625 144.34375 L 139.442708 134.588542 L 143.744792 125.338542 L 148.046875 116.583333 L 152.348958 108.3125 L 156.317708 101.119792 L 160.286458 94.322917 L 164.25 87.921875 L 168.21875 81.911458 L 172.473958 75.895833 L 176.723958 70.3125 L 180.979167 65.151042 L 185.229167 60.40625 L 190.15625 55.421875 L 195.083333 50.979167 L 200.010417 47.057292 L 204.9375 43.651042 L 209.317708 41.041667 L 213.697917 38.822917 L 218.078125 36.984375 L 222.453125 35.520833 L 226.296875 34.53125 L 230.135417 33.817708 L 233.973958 33.369792 L 237.8125 33.182292 L 242 33.270833 L 246.1875 33.65625 L 250.375 34.333333 L 254.5625 35.291667 L 258.770833 36.536458 L 262.984375 38.046875 L 267.192708 39.822917 L 271.40625 41.854167 L 276.0625 44.390625 L 280.71875 47.223958 L 285.375 50.333333 L 290.03125 53.71875 L 294.463542 57.1875 L 298.890625 60.885417 L 303.322917 64.802083 L 307.75 68.932292 L 316.963542 78.161458 L 326.177083 88.192708 L 333.932292 97.203125 L 341.6875 106.677083 L 351.15625 118.8125 L 360.625 131.484375 L 369.296875 143.494792 L 377.973958 155.817708 L 393.994792 179.203125 L 410.223958 203.338542 L 428.411458 230.40625 L 444.890625 254.458333 L 454.328125 267.848958 L 463.765625 280.848958 L 472.5 292.479167 L 481.234375 303.635417 L 489.848958 314.114583 L 498.463542 324.010417 L 506.822917 333 L 515.1875 341.317708 L 523.760417 349.09375 L 532.328125 356.041667 L 537.026042 359.473958 L 541.723958 362.630208 L 546.416667 365.494792 L 551.114583 368.0625 L 557.9375 371.239583 L 564.760417 373.734375 L 571.578125 375.515625 L 578.401042 376.552083 L 579.802083 376.666667 L 581.203125 376.75 L 582.598958 376.802083 L 584 376.817708 " transform="matrix(0.75,0,0,0.75,0,0)"/>
</g>
<path style="fill-rule:nonzero;fill:rgb(100%,100%,100%);fill-opacity:1;stroke-width:1;stroke-linecap:butt;stroke-linejoin:miter;stroke:rgb(0%,0%,0%);stroke-opacity:1;stroke-miterlimit:2;" d="M 477 100 L 578 100 L 578 22 L 477 22 Z M 477 100 " transform="matrix(0.75,0,0,0.75,0,0)"/>
<path style="fill:none;stroke-width:1;stroke-linecap:butt;stroke-linejoin:miter;stroke:rgb(0%,0%,0%);stroke-opacity:1;stroke-miterlimit:2;" d="M 66 394.5 L 66 399.5 " transform="matrix(0.75,0,0,0.75,0,0)"/>
<path style="fill:none;stroke-width:1;stroke-linecap:butt;stroke-linejoin:miter;stroke:rgb(0%,0%,0%);stroke-opacity:1;stroke-miterlimit:2;" d="M 325 394.5 L 325 399.5 " transform="matrix(0.75,0,0,0.75,0,0)"/>
<path style="fill:none;stroke-width:1;stroke-linecap:butt;stroke-linejoin:miter;stroke:rgb(0%,0%,0%);stroke-opacity:1;stroke-miterlimit:2;" d="M 584 394.5 L 584 399.5 " transform="matrix(0.75,0,0,0.75,0,0)"/>
<path style="fill:none;stroke-width:1;stroke-linecap:butt;stroke-linejoin:miter;stroke:rgb(0%,0%,0%);stroke-opacity:1;stroke-miterlimit:2;" d="M 65.5 376.817708 L 60.5 376.817708 " transform="matrix(0.75,0,0,0.75,0,0)"/>
<path style="fill:none;stroke-width:1;stroke-linecap:butt;stroke-linejoin:miter;stroke:rgb(0%,0%,0%);stroke-opacity:1;stroke-miterlimit:2;" d="M 65.5 280.166667 L 60.5 280.166667 " transform="matrix(0.75,0,0,0.75,0,0)"/>
<path style="fill:none;stroke-width:1;stroke-linecap:butt;stroke-linejoin:miter;stroke:rgb(0%,0%,0%);stroke-opacity:1;stroke-miterlimit:2;" d="M 65.5 183.520833 L 60.5 183.520833 " transform="matrix(0.75,0,0,0.75,0,0)"/>
<path style="fill:none;stroke-width:1;stroke-linecap:butt;stroke-linejoin:miter;stroke:rgb(0%,0%,0%);stroke-opacity:1;stroke-miterlimit:2;" d="M 65.5 86.869792 L 60.5 86.869792 " transform="matrix(0.75,0,0,0.75,0,0)"/>
<path style="fill:none;stroke-width:5;stroke-linecap:butt;stroke-linejoin:miter;stroke:rgb(0%,44.705883%,69.803923%);stroke-opacity:1;stroke-miterlimit:2;" d="M 482.765625 38 L 502.765625 38 " transform="matrix(0.75,0,0,0.75,0,0)"/>
<path style="fill:none;stroke-width:5;stroke-linecap:butt;stroke-linejoin:miter;stroke:rgb(90.196079%,62.352943%,0%);stroke-opacity:1;stroke-miterlimit:2;" d="M 482.765625 61 L 502.765625 61 " transform="matrix(0.75,0,0,0.75,0,0)"/>
<path style="fill:none;stroke-width:5;stroke-linecap:butt;stroke-linejoin:miter;stroke:rgb(0%,61.960787%,45.09804%);stroke-opacity:1;stroke-miterlimit:2;" d="M 482.765625 84 L 502.765625 84 " transform="matrix(0.75,0,0,0.75,0,0)"/>
<g style="fill:rgb(0%,0%,0%);fill-opacity:1;">
  <use xlink:href="#glyph13-1-2f16cb50" x="380.823761" y="31.712983"/>
</g>
<g style="fill:rgb(0%,0%,0%);fill-opacity:1;">
  <use xlink:href="#glyph14-1-2f16cb50" x="388.289246" y="31.712983"/>
</g>
<g style="fill:rgb(0%,0%,0%);fill-opacity:1;">
  <use xlink:href="#glyph13-2-2f16cb50" x="398.558258" y="31.712983"/>
</g>
<g style="fill:rgb(0%,0%,0%);fill-opacity:1;">
  <use xlink:href="#glyph14-1-2f16cb50" x="405.488251" y="31.712983"/>
</g>
<g style="fill:rgb(0%,0%,0%);fill-opacity:1;">
  <use xlink:href="#glyph14-2-2f16cb50" x="415.757263" y="31.712983"/>
</g>
<g style="fill:rgb(0%,0%,0%);fill-opacity:1;">
  <use xlink:href="#glyph13-1-2f16cb50" x="380.823761" y="48.96298"/>
</g>
<g style="fill:rgb(0%,0%,0%);fill-opacity:1;">
  <use xlink:href="#glyph14-1-2f16cb50" x="388.289246" y="48.96298"/>
</g>
<g style="fill:rgb(0%,0%,0%);fill-opacity:1;">
  <use xlink:href="#glyph14-3-2f16cb50" x="398.558258" y="48.96298"/>
</g>
<g style="fill:rgb(0%,0%,0%);fill-opacity:1;">
  <use xlink:href="#glyph14-4-2f16cb50" x="403.808258" y="48.96298"/>
</g>
<g style="fill:rgb(0%,0%,0%);fill-opacity:1;">
  <use xlink:href="#glyph13-2-2f16cb50" x="406.727234" y="48.96298"/>
</g>
<g style="fill:rgb(0%,0%,0%);fill-opacity:1;">
  <use xlink:href="#glyph14-1-2f16cb50" x="413.657227" y="48.96298"/>
</g>
<g style="fill:rgb(0%,0%,0%);fill-opacity:1;">
  <use xlink:href="#glyph14-5-2f16cb50" x="423.926239" y="48.96298"/>
</g>
<g style="fill:rgb(0%,0%,0%);fill-opacity:1;">
  <use xlink:href="#glyph15-1-2f16cb50" x="380.823761" y="66.212997"/>
</g>
<g style="fill:rgb(0%,0%,0%);fill-opacity:1;">
  <use xlink:href="#glyph16-1-2f16cb50" x="388.289246" y="66.212997"/>
</g>
<g style="fill:rgb(0%,0%,0%);fill-opacity:1;">
  <use xlink:href="#glyph16-2-2f16cb50" x="398.558258" y="66.212997"/>
</g>
<g style="fill:rgb(0%,0%,0%);fill-opacity:1;">
  <use xlink:href="#glyph16-3-2f16cb50" x="403.808258" y="66.212997"/>
</g>
<g style="fill:rgb(0%,0%,0%);fill-opacity:1;">
  <use xlink:href="#glyph15-2-2f16cb50" x="406.727234" y="66.212997"/>
</g>
<g style="fill:rgb(0%,0%,0%);fill-opacity:1;">
  <use xlink:href="#glyph16-1-2f16cb50" x="413.657227" y="66.212997"/>
</g>
<g style="fill:rgb(0%,0%,0%);fill-opacity:1;">
  <use xlink:href="#glyph16-4-2f16cb50" x="423.926239" y="66.212997"/>
</g>
<path style="fill:none;stroke-width:1;stroke-linecap:butt;stroke-linejoin:miter;stroke:rgb(0%,0%,0%);stroke-opacity:1;stroke-miterlimit:2;" d="M 65.5 394 L 584.5 394 " transform="matrix(0.75,0,0,0.75,0,0)"/>
<path style="fill:none;stroke-width:1;stroke-linecap:butt;stroke-linejoin:miter;stroke:rgb(0%,0%,0%);stroke-opacity:1;stroke-miterlimit:2;" d="M 66 394.5 L 66 15.5 " transform="matrix(0.75,0,0,0.75,0,0)"/>
<path style="fill:none;stroke-width:1;stroke-linecap:butt;stroke-linejoin:miter;stroke:rgb(0%,0%,0%);stroke-opacity:1;stroke-miterlimit:2;" d="M 65.5 16 L 584.5 16 " transform="matrix(0.75,0,0,0.75,0,0)"/>
<path style="fill:none;stroke-width:1;stroke-linecap:butt;stroke-linejoin:miter;stroke:rgb(0%,0%,0%);stroke-opacity:1;stroke-miterlimit:2;" d="M 584 394.5 L 584 15.5 " transform="matrix(0.75,0,0,0.75,0,0)"/>
</g>
</svg>
